<svg xmlns="http://www.w3.org/2000/svg" width="24" height="25" fill="none" viewBox="0 0 24 25"><path stroke="#333" d="M23.5 12.9926C23.5 19.343 18.3513 24.4912 12 24.4912C5.64866 24.4912 0.5 19.343 0.5 12.9926C0.5 6.64225 5.64866 1.49414 12 1.49414C18.3513 1.49414 23.5 6.64226 23.5 12.9926Z"/><path fill="#333" stroke="#333" d="M13.022 11.6467H14.5107L14.3783 12.8986H13.022H12.522V13.3986V19.1884H10.8425V13.3986V12.8986H10.3425H9.57227V11.6661H10.3425H10.8425V11.1661V9.72952C10.8425 9.28152 10.9527 8.74043 11.2657 8.32402C11.56 7.93251 12.0788 7.58936 13.0419 7.58936H14.5267V8.74419H13.5976C13.4095 8.74419 13.1424 8.78839 12.9113 8.97013C12.6586 9.16894 12.522 9.47459 12.522 9.84599V11.1467V11.6467H13.022Z"/></svg>