<svg xmlns="http://www.w3.org/2000/svg" width="24" height="25" fill="none" viewBox="0 0 24 25"><path stroke="#333" d="M23.5 12.9926C23.5 19.343 18.3513 24.4912 12 24.4912C5.64866 24.4912 0.5 19.343 0.5 12.9926C0.5 6.64225 5.64866 1.49414 12 1.49414C18.3513 1.49414 23.5 6.64226 23.5 12.9926Z"/><path fill="#333" stroke="#333" d="M7.13867 11.8812H6.63867V12.3812V17.5492C6.63867 18.0005 6.99392 18.3557 7.44524 18.3557H16.5547C17.006 18.3557 17.3613 18.0005 17.3613 17.5492V12.3812V11.8812H16.8613H15.5912H14.8975L15.1168 12.5393C15.1523 12.6456 15.1569 12.8015 15.1569 12.9944C15.1569 14.7328 13.7384 16.1513 12 16.1513C10.2615 16.1513 8.84304 14.7329 8.84304 12.9944C8.84304 12.9047 8.84325 12.8133 8.84986 12.7252C8.85688 12.6315 8.869 12.5779 8.8769 12.5568L9.13023 11.8812H8.40874H7.13867ZM7.11678 7.40674H16.8613C17.2639 7.40674 17.5875 7.73032 17.5875 8.13302V17.8776C17.5875 18.2803 17.2639 18.6039 16.8613 18.6039H7.11678C6.71409 18.6039 6.3905 18.2803 6.3905 17.8776V8.13302C6.3905 7.73032 6.71409 7.40674 7.11678 7.40674ZM14.9306 12.9944C14.9306 11.3825 13.6119 10.0637 12 10.0637C10.3881 10.0637 9.06932 11.3825 9.06932 12.9944C9.06932 14.6063 10.3881 15.925 12 15.925C13.6119 15.925 14.9306 14.6063 14.9306 12.9944ZM16.5547 10.4506C17.006 10.4506 17.3613 10.0953 17.3613 9.64398V8.4177C17.3613 7.96638 17.006 7.61113 16.5547 7.61113H15.3284C14.8771 7.61113 14.5218 7.96638 14.5218 8.4177V9.64398C14.5218 10.0953 14.8771 10.4506 15.3284 10.4506H16.5547Z"/></svg>