<svg xmlns="http://www.w3.org/2000/svg" width="161" height="91" fill="none" viewBox="0 0 161 91"><g filter="url(#filter0_d)"><path fill="url(#paint0_linear)" d="M90.9509 18.9188C90.1253 18.7392 88.8506 18.4937 87.2773 18.3089C85.2065 18.0634 83.6224 18.0449 80.5539 18H76.0949C75.6313 26.5521 76.9283 35.1083 79.9084 43.1574C81.7135 47.9975 84.117 52.6019 87.0648 56.8673V28.9854C91.0843 30.0678 94.6304 32.4163 97.1579 35.6699C99.6854 38.9234 101.054 42.9018 101.054 46.9934C101.054 51.085 99.6854 55.0634 97.1579 58.317C94.6304 61.5705 91.0843 63.919 87.0648 65.0014V76C93.7022 74.8903 99.7655 71.6189 104.278 66.7131C108.79 61.8073 111.488 55.553 111.936 48.9581C112.385 42.3633 110.559 35.8122 106.752 30.3607C102.945 24.9092 97.3789 20.875 90.9509 18.9082V18.9188Z"/><path fill="url(#paint1_linear)" d="M62.8202 46.7672C62.8069 46.4655 62.8069 46.185 62.8202 45.926V38.1224C62.4676 31.8867 61.2065 25.7366 59.0772 19.8686C57.2922 14.9727 54.9165 10.3151 52.0032 6V46.8607C52.0339 53.7562 54.4421 60.4279 58.8178 65.7406C63.1935 71.0533 69.2664 74.6788 76.0032 76V64.7192C67.6505 61.8162 63.0674 52.8376 62.8202 46.7672Z"/></g><g filter="url(#filter1_d)"><path fill="#333" d="M20.5416 41V54.034H18.157V45.417L13.2902 54.5L8.38786 45.4298V54.0468H6.00317V41H8.38786L13.2902 49.6489L18.157 41H20.5416Z"/><path fill="#333" d="M32.8682 51.462H27.081L25.7433 54H23.2175L29.9826 41L36.7476 54H34.2187L32.8682 51.462ZM31.7535 49.3433L29.9826 45.9446L28.199 49.3589L31.7535 49.3433Z"/><path fill="#333" d="M45.1459 49.3317H42.068V53.9714H39.6892V41H42.068V41.0318H47.4309C50.0006 41.0318 51.2111 42.3038 51.2111 44.4249V45.9481C51.2111 47.8975 50.2078 49.1282 48.0555 49.3253L51.5509 54H48.6025L45.1459 49.3317ZM42.068 47.1788H47.2464C48.6057 47.1788 48.8323 46.8831 48.8323 45.9354V44.4122C48.8323 43.4582 48.6057 43.1688 47.2464 43.1688H42.068V47.1788Z"/><path fill="#333" d="M66.2088 43.155H61.1258V54H58.7415V43.155H53.6584V41H66.2088V43.155Z"/><path fill="#333" d="M71.6211 41V54H69.24V41H71.6211Z"/><path fill="#333" d="M87.6333 41V54H85.2522L77.5743 44.6383V54H75.1931V41H77.5743L85.2522 50.1579V41H87.6333Z"/><path fill="#333" d="M112.433 46.5032V48.5892C112.433 50.4966 112.267 54 105.882 54C100.958 54 99.3308 52.3823 99.3308 47.4923C99.3308 42.6023 100.958 41 105.882 41C108.921 41 110.696 41.7919 111.793 43.2124L109.814 44.6267C109.084 43.6376 107.948 43.086 105.973 43.086C102.752 43.086 101.689 43.841 101.689 47.4923C101.689 51.1436 102.733 51.917 105.882 51.917C109.413 51.917 109.959 50.8355 110.053 48.5892H105.132V46.5032H112.433Z"/><path fill="#333" d="M121.69 49.339H118.611V53.9777H116.228V41H118.611V41.0223H123.976C126.544 41.0223 127.755 42.2949 127.755 44.4202V45.9442C127.755 47.8913 126.755 49.1258 124.598 49.3231L128.095 54H125.149L121.69 49.339ZM118.611 47.185H123.792C125.155 47.185 125.382 46.8859 125.382 45.941V44.417C125.382 43.4626 125.155 43.173 123.792 43.173H118.611V47.185Z"/><path fill="#333" d="M133.599 43.155V46.4623H141.027V48.6173H133.599V51.845H142.786V54H131.218V41H142.786V43.155H133.599Z"/><path fill="#333" d="M152.622 47.7625V54H150.242V47.7625L144.703 41H147.654L151.434 45.6081L155.155 41H158.106L152.622 47.7625Z"/></g><defs><filter id="filter0_d" width="80" height="90" x="37.003" y="1" color-interpolation-filters="sRGB" filterUnits="userSpaceOnUse"><feFlood flood-opacity="0" result="BackgroundImageFix"/><feColorMatrix in="SourceAlpha" type="matrix" values="0 0 0 0 0 0 0 0 0 0 0 0 0 0 0 0 0 0 127 0"/><feOffset dx="-5" dy="5"/><feGaussianBlur stdDeviation="5"/><feColorMatrix type="matrix" values="0 0 0 0 0.529412 0 0 0 0 0.686275 0 0 0 0 0.698039 0 0 0 1 0"/><feBlend in2="BackgroundImageFix" mode="normal" result="effect1_dropShadow"/><feBlend in="SourceGraphic" in2="effect1_dropShadow" mode="normal" result="shape"/></filter><filter id="filter1_d" width="160.103" height="21.5" x=".003" y="41" color-interpolation-filters="sRGB" filterUnits="userSpaceOnUse"><feFlood flood-opacity="0" result="BackgroundImageFix"/><feColorMatrix in="SourceAlpha" type="matrix" values="0 0 0 0 0 0 0 0 0 0 0 0 0 0 0 0 0 0 127 0"/><feOffset dx="-2" dy="4"/><feGaussianBlur stdDeviation="2"/><feColorMatrix type="matrix" values="0 0 0 0 0.529412 0 0 0 0 0.686275 0 0 0 0 0.698039 0 0 0 1 0"/><feBlend in2="BackgroundImageFix" mode="normal" result="effect1_dropShadow"/><feBlend in="SourceGraphic" in2="effect1_dropShadow" mode="normal" result="shape"/></filter><linearGradient id="paint0_linear" x1="55.879" x2="88.841" y1="29.121" y2="88.793" gradientUnits="userSpaceOnUse"><stop stop-color="#288B93"/><stop offset=".5" stop-color="#51C3CA"/><stop offset="1" stop-color="#007485"/></linearGradient><linearGradient id="paint1_linear" x1="38.587" x2="85.584" y1="19.422" y2="66.418" gradientUnits="userSpaceOnUse"><stop stop-color="#288B93"/><stop offset=".5" stop-color="#51C3CA"/><stop offset="1" stop-color="#007485"/></linearGradient></defs></svg>