<svg xmlns="http://www.w3.org/2000/svg" width="374" height="235" fill="none" viewBox="0 0 374 235"><g filter="url(#filter0_ii)"><path fill="url(#paint0_linear)" d="M78.0944 227.033C78.0944 227.033 96.051 169.058 78.0944 151.011C62.4571 135.532 27.3873 166.806 11.7148 151.011C-3.95761 135.215 -3.85219 100.423 11.7148 84.7682C27.2819 69.1134 62.3868 100.423 78.0241 84.7682C95.8753 66.8971 78.0241 8.92171 78.0241 8.92171C78.0241 8.92171 135.935 -8.98453 153.786 8.92171C169.494 24.5413 138.219 59.5446 153.856 75.305C169.494 91.0653 204.563 90.9597 220.166 75.305C235.768 59.6502 204.563 24.5413 220.166 8.92171C238.052 -8.98453 295.963 8.92171 295.963 8.92171C295.963 8.92171 278.112 66.8971 295.963 84.7682C311.6 100.423 346.635 69.1486 362.272 84.7682C377.909 100.388 377.909 135.532 362.272 151.151C346.635 166.771 311.6 135.532 295.963 151.011C278.112 168.917 295.963 226.892 295.963 226.892C295.963 226.892 238.052 244.763 220.166 226.892C204.563 211.238 235.803 176.164 220.166 160.509C204.528 144.854 169.494 144.854 153.856 160.509C138.219 176.164 169.494 211.238 153.856 226.892C136.005 244.904 78.0944 227.033 78.0944 227.033Z"/></g><defs><filter id="filter0_ii" width="382" height="241.971" x="-4" y="-3.037" color-interpolation-filters="sRGB" filterUnits="userSpaceOnUse"><feFlood flood-opacity="0" result="BackgroundImageFix"/><feBlend in="SourceGraphic" in2="BackgroundImageFix" mode="normal" result="shape"/><feColorMatrix in="SourceAlpha" result="hardAlpha" type="matrix" values="0 0 0 0 0 0 0 0 0 0 0 0 0 0 0 0 0 0 127 0"/><feOffset dx="4" dy="4"/><feGaussianBlur stdDeviation="4"/><feComposite in2="hardAlpha" k2="-1" k3="1" operator="arithmetic"/><feColorMatrix type="matrix" values="0 0 0 0 0.0156863 0 0 0 0 0.0823529 0 0 0 0 0.345098 0 0 0 0.5 0"/><feBlend in2="shape" mode="normal" result="effect1_innerShadow"/><feColorMatrix in="SourceAlpha" result="hardAlpha" type="matrix" values="0 0 0 0 0 0 0 0 0 0 0 0 0 0 0 0 0 0 127 0"/><feOffset dx="-4" dy="-4"/><feGaussianBlur stdDeviation="4"/><feComposite in2="hardAlpha" k2="-1" k3="1" operator="arithmetic"/><feColorMatrix type="matrix" values="0 0 0 0 0.0156863 0 0 0 0 0.0823529 0 0 0 0 0.345098 0 0 0 0.5 0"/><feBlend in2="effect1_innerShadow" mode="normal" result="effect2_innerShadow"/></filter><linearGradient id="paint0_linear" x1="43.351" x2="282.147" y1="151.07" y2="-16.207" gradientUnits="userSpaceOnUse"><stop stop-color="#71AFD8"/><stop offset=".115" stop-color="#5869A7"/><stop offset=".245" stop-color="#735397"/><stop offset=".359" stop-color="#A9559D"/><stop offset=".479" stop-color="#CE5D86"/><stop offset=".599" stop-color="#D16961"/><stop offset=".729" stop-color="#E7AE71"/><stop offset=".875" stop-color="#F7E580"/><stop offset="1" stop-color="#7BC651"/></linearGradient></defs></svg>