<svg xmlns="http://www.w3.org/2000/svg" width="136" height="137" fill="none" viewBox="0 0 136 137"><g filter="url(#filter0_dii)"><path fill="url(#paint0_linear)" d="M127.59 71.7523L75.62 19.6111C75.62 19.6111 65.3407 38.373 56.604 38.5646C48.9509 38.7324 48.4316 22.519 40.7784 22.6868C33.1253 22.8546 24.3441 31.6236 24.1427 39.2678C23.9413 46.9119 40.1614 47.493 39.9683 55.1456C39.748 63.8816 20.9524 74.099 20.9524 74.099C20.9524 74.099 30.2877 92.4223 39.0244 92.2307C46.6776 92.0629 48.0157 75.8088 55.6601 75.6497C63.3044 75.4907 71.6703 83.8666 71.4949 91.5016C71.3196 99.1366 55.0523 100.43 54.8593 108.083C54.6473 116.827 72.9397 126.223 72.9397 126.223L127.59 71.7523Z"/></g><defs><filter id="filter0_dii" width="139.248" height="139.294" x="-3.658" y="-3.07" color-interpolation-filters="sRGB" filterUnits="userSpaceOnUse"><feFlood flood-opacity="0" result="BackgroundImageFix"/><feColorMatrix in="SourceAlpha" type="matrix" values="0 0 0 0 0 0 0 0 0 0 0 0 0 0 0 0 0 0 127 0"/><feOffset dx="4" dy="4"/><feGaussianBlur stdDeviation="2"/><feColorMatrix type="matrix" values="0 0 0 0 0 0 0 0 0 0 0 0 0 0 0 0 0 0 0.25 0"/><feBlend in2="BackgroundImageFix" mode="normal" result="effect1_dropShadow"/><feBlend in="SourceGraphic" in2="effect1_dropShadow" mode="normal" result="shape"/><feColorMatrix in="SourceAlpha" result="hardAlpha" type="matrix" values="0 0 0 0 0 0 0 0 0 0 0 0 0 0 0 0 0 0 127 0"/><feOffset dx="4" dy="4"/><feGaussianBlur stdDeviation="4"/><feComposite in2="hardAlpha" k2="-1" k3="1" operator="arithmetic"/><feColorMatrix type="matrix" values="0 0 0 0 0.0156863 0 0 0 0 0.0823529 0 0 0 0 0.345098 0 0 0 0.5 0"/><feBlend in2="shape" mode="normal" result="effect2_innerShadow"/><feColorMatrix in="SourceAlpha" result="hardAlpha" type="matrix" values="0 0 0 0 0 0 0 0 0 0 0 0 0 0 0 0 0 0 127 0"/><feOffset dx="-4" dy="-4"/><feGaussianBlur stdDeviation="4"/><feComposite in2="hardAlpha" k2="-1" k3="1" operator="arithmetic"/><feColorMatrix type="matrix" values="0 0 0 0 0.0156863 0 0 0 0 0.0823529 0 0 0 0 0.345098 0 0 0 0.5 0"/><feBlend in2="effect2_innerShadow" mode="normal" result="effect3_innerShadow"/></filter><linearGradient id="paint0_linear" x1="95.72" x2="30.915" y1="52.913" y2="83.943" gradientUnits="userSpaceOnUse"><stop stop-color="#71AFD8"/><stop offset=".115" stop-color="#5869A7"/><stop offset=".245" stop-color="#735397"/><stop offset=".359" stop-color="#A9559D"/><stop offset=".479" stop-color="#CE5D86"/><stop offset=".599" stop-color="#D16961"/><stop offset=".729" stop-color="#E7AE71"/><stop offset=".875" stop-color="#F7E580"/><stop offset="1" stop-color="#7BC651"/></linearGradient></defs></svg>