<svg width="158" height="147" viewBox="0 0 158 147" fill="none" xmlns="http://www.w3.org/2000/svg">
<g filter="url(#filter0_dii)">
<path d="M23.4067 77.6565C23.4067 77.6565 39.8919 65.3158 38.555 56.7806C37.3436 49.4129 21.4777 51.01 20.3196 43.5484C19.1616 36.0867 26.1233 26.5537 33.5192 25.358C40.9151 24.1623 44.3201 39.7579 51.7353 38.5762C60.2003 37.2273 66.8485 17.7486 66.8485 17.7486C66.8485 17.7486 86.3255 24.3756 87.6614 32.8512C88.8641 40.2716 73.2977 43.6492 74.4531 51.0942C75.6085 58.5392 85.2637 65.5011 92.6692 64.3124C100.075 63.1238 98.4983 47.2624 105.897 46.0834C114.378 44.7318 126.719 61.193 126.719 61.193C126.719 61.193 110.263 73.5547 111.606 82.0206C112.782 89.4366 128.639 87.8325 129.822 95.2388C131.006 102.645 124.003 112.296 116.595 113.468C109.186 114.64 105.787 99.0776 98.4065 100.211C89.9345 101.57 83.2863 121.048 83.2863 121.048C83.2863 121.048 63.8163 114.412 62.4637 105.939C61.297 98.5297 76.8677 95.1257 75.6913 87.7097C74.5149 80.2937 64.8904 73.3098 57.4752 74.4914C50.0601 75.6731 51.6628 91.5388 44.2476 92.7204C35.7546 94.108 23.4067 77.6565 23.4067 77.6565Z" fill="url(#paint0_linear)"/>
</g>
<defs>
<filter id="filter0_dii" x="-3.62128" y="-3.99023" width="161.364" height="150.803" filterUnits="userSpaceOnUse" color-interpolation-filters="sRGB">
<feFlood flood-opacity="0" result="BackgroundImageFix"/>
<feColorMatrix in="SourceAlpha" type="matrix" values="0 0 0 0 0 0 0 0 0 0 0 0 0 0 0 0 0 0 127 0"/>
<feOffset dx="4" dy="4"/>
<feGaussianBlur stdDeviation="2"/>
<feColorMatrix type="matrix" values="0 0 0 0 0 0 0 0 0 0 0 0 0 0 0 0 0 0 0.25 0"/>
<feBlend mode="normal" in2="BackgroundImageFix" result="effect1_dropShadow"/>
<feBlend mode="normal" in="SourceGraphic" in2="effect1_dropShadow" result="shape"/>
<feColorMatrix in="SourceAlpha" type="matrix" values="0 0 0 0 0 0 0 0 0 0 0 0 0 0 0 0 0 0 127 0" result="hardAlpha"/>
<feOffset dx="4" dy="4"/>
<feGaussianBlur stdDeviation="4"/>
<feComposite in2="hardAlpha" operator="arithmetic" k2="-1" k3="1"/>
<feColorMatrix type="matrix" values="0 0 0 0 0.0156863 0 0 0 0 0.0823529 0 0 0 0 0.345098 0 0 0 0.5 0"/>
<feBlend mode="normal" in2="shape" result="effect2_innerShadow"/>
<feColorMatrix in="SourceAlpha" type="matrix" values="0 0 0 0 0 0 0 0 0 0 0 0 0 0 0 0 0 0 127 0" result="hardAlpha"/>
<feOffset dx="-4" dy="-4"/>
<feGaussianBlur stdDeviation="4"/>
<feComposite in2="hardAlpha" operator="arithmetic" k2="-1" k3="1"/>
<feColorMatrix type="matrix" values="0 0 0 0 0.0156863 0 0 0 0 0.0823529 0 0 0 0 0.345098 0 0 0 0.5 0"/>
<feBlend mode="normal" in2="effect2_innerShadow" result="effect3_innerShadow"/>
</filter>
<linearGradient id="paint0_linear" x1="28.9986" y1="49.8711" x2="127.932" y2="51.5009" gradientUnits="userSpaceOnUse">
<stop stop-color="#71AFD8"/>
<stop offset="0.114583" stop-color="#5869A7"/>
<stop offset="0.244792" stop-color="#735397"/>
<stop offset="0.359375" stop-color="#A9559D"/>
<stop offset="0.479167" stop-color="#CE5D86"/>
<stop offset="0.598958" stop-color="#D16961"/>
<stop offset="0.729167" stop-color="#E7AE71"/>
<stop offset="0.875" stop-color="#F7E580"/>
<stop offset="1" stop-color="#7BC651"/>
</linearGradient>
</defs>
</svg>
