<svg xmlns="http://www.w3.org/2000/svg" width="132" height="124" fill="none" viewBox="0 0 132 124"><g filter="url(#filter0_dii)"><path fill="url(#paint0_linear)" d="M0.492743 48.2266L61.9726 12.7312C61.9726 12.7312 66.9463 32.9792 75.0677 35.4126C82.182 37.5442 86.6751 22.472 93.7893 24.6036C100.904 26.7353 106.946 37.2247 105.245 44.4459C103.544 51.6671 88.2347 48.0279 86.5236 55.2548C84.5703 63.5049 99.6187 77.9362 99.6187 77.9362C99.6187 77.9362 86.361 92.7128 78.2396 90.2794C71.1254 88.1478 73.8919 72.5583 66.7837 70.4372C59.6755 68.3161 49.7831 74.0134 48.0598 81.2193C46.3366 88.4253 61.2268 93.8347 59.5158 101.062C57.5525 109.317 38.1267 113.411 38.1267 113.411L0.492743 48.2266Z"/></g><defs><filter id="filter0_dii" width="134.524" height="127.792" x="-3.507" y="-3.986" color-interpolation-filters="sRGB" filterUnits="userSpaceOnUse"><feFlood flood-opacity="0" result="BackgroundImageFix"/><feColorMatrix in="SourceAlpha" type="matrix" values="0 0 0 0 0 0 0 0 0 0 0 0 0 0 0 0 0 0 127 0"/><feOffset dx="4" dy="4"/><feGaussianBlur stdDeviation="2"/><feColorMatrix type="matrix" values="0 0 0 0 0 0 0 0 0 0 0 0 0 0 0 0 0 0 0.25 0"/><feBlend in2="BackgroundImageFix" mode="normal" result="effect1_dropShadow"/><feBlend in="SourceGraphic" in2="effect1_dropShadow" mode="normal" result="shape"/><feColorMatrix in="SourceAlpha" result="hardAlpha" type="matrix" values="0 0 0 0 0 0 0 0 0 0 0 0 0 0 0 0 0 0 127 0"/><feOffset dx="4" dy="4"/><feGaussianBlur stdDeviation="4"/><feComposite in2="hardAlpha" k2="-1" k3="1" operator="arithmetic"/><feColorMatrix type="matrix" values="0 0 0 0 0.0156863 0 0 0 0 0.0823529 0 0 0 0 0.345098 0 0 0 0.5 0"/><feBlend in2="shape" mode="normal" result="effect2_innerShadow"/><feColorMatrix in="SourceAlpha" result="hardAlpha" type="matrix" values="0 0 0 0 0 0 0 0 0 0 0 0 0 0 0 0 0 0 127 0"/><feOffset dx="-4" dy="-4"/><feGaussianBlur stdDeviation="4"/><feComposite in2="hardAlpha" k2="-1" k3="1" operator="arithmetic"/><feColorMatrix type="matrix" values="0 0 0 0 0.0156863 0 0 0 0 0.0823529 0 0 0 0 0.345098 0 0 0 0.5 0"/><feBlend in2="effect2_innerShadow" mode="normal" result="effect3_innerShadow"/></filter><linearGradient id="paint0_linear" x1="34.947" x2="88.198" y1="38.778" y2="84.216" gradientUnits="userSpaceOnUse"><stop stop-color="#71AFD8"/><stop offset=".115" stop-color="#5869A7"/><stop offset=".245" stop-color="#735397"/><stop offset=".359" stop-color="#A9559D"/><stop offset=".479" stop-color="#CE5D86"/><stop offset=".599" stop-color="#D16961"/><stop offset=".729" stop-color="#E7AE71"/><stop offset=".875" stop-color="#F7E580"/><stop offset="1" stop-color="#7BC651"/></linearGradient></defs></svg>