<svg xmlns="http://www.w3.org/2000/svg" width="111" height="137" fill="none" viewBox="0 0 111 137"><g filter="url(#filter0_dii)"><path fill="url(#paint0_linear)" d="M102.696 86.3253C102.696 86.3253 80.8773 88.1682 77.3096 96.5646C74.1844 103.92 89.4019 111.437 86.2767 118.792C83.1515 126.147 71.4001 130.887 64.0573 127.754C56.7146 124.621 62.433 108.659 55.0902 105.526C46.6827 101.96 29.6915 115.771 29.6915 115.771C29.6915 115.771 15.8785 98.7712 19.4224 90.3159C22.5523 82.9726 38.5166 88.7092 41.6418 81.3541C44.767 73.999 40.0292 62.2552 32.6747 59.127C25.3201 55.9987 17.8098 71.2171 10.4553 68.0888C2.05953 64.5176 0.209854 42.6931 0.209854 42.6931C0.209854 42.6931 22.0291 40.8501 25.6085 32.4489C28.7219 25.0986 13.5114 17.5651 16.6414 10.2218C19.7714 2.87847 31.5063 -1.86831 38.8608 1.25998C46.2154 4.38826 40.4734 20.3588 47.8279 23.4871C56.2237 27.0583 73.2148 13.2478 73.2148 13.2478C73.2148 13.2478 87.0396 30.2423 83.4602 38.6435C80.3468 45.9938 64.3708 40.262 61.2408 47.6053C58.1108 54.9486 62.8771 66.7631 70.1844 69.8419C77.4916 72.9208 85.0658 57.7589 92.4038 60.8801C100.882 64.4864 102.696 86.3253 102.696 86.3253Z"/></g><defs><filter id="filter0_dii" width="114.487" height="140.453" x="-3.79" y="-3.718" color-interpolation-filters="sRGB" filterUnits="userSpaceOnUse"><feFlood flood-opacity="0" result="BackgroundImageFix"/><feColorMatrix in="SourceAlpha" type="matrix" values="0 0 0 0 0 0 0 0 0 0 0 0 0 0 0 0 0 0 127 0"/><feOffset dx="4" dy="4"/><feGaussianBlur stdDeviation="2"/><feColorMatrix type="matrix" values="0 0 0 0 0 0 0 0 0 0 0 0 0 0 0 0 0 0 0.25 0"/><feBlend in2="BackgroundImageFix" mode="normal" result="effect1_dropShadow"/><feBlend in="SourceGraphic" in2="effect1_dropShadow" mode="normal" result="shape"/><feColorMatrix in="SourceAlpha" result="hardAlpha" type="matrix" values="0 0 0 0 0 0 0 0 0 0 0 0 0 0 0 0 0 0 127 0"/><feOffset dx="4" dy="4"/><feGaussianBlur stdDeviation="4"/><feComposite in2="hardAlpha" k2="-1" k3="1" operator="arithmetic"/><feColorMatrix type="matrix" values="0 0 0 0 0.0156863 0 0 0 0 0.0823529 0 0 0 0 0.345098 0 0 0 0.5 0"/><feBlend in2="shape" mode="normal" result="effect2_innerShadow"/><feColorMatrix in="SourceAlpha" result="hardAlpha" type="matrix" values="0 0 0 0 0 0 0 0 0 0 0 0 0 0 0 0 0 0 127 0"/><feOffset dx="-4" dy="-4"/><feGaussianBlur stdDeviation="4"/><feComposite in2="hardAlpha" k2="-1" k3="1" operator="arithmetic"/><feColorMatrix type="matrix" values="0 0 0 0 0.0156863 0 0 0 0 0.0823529 0 0 0 0 0.345098 0 0 0 0.5 0"/><feBlend in2="effect2_innerShadow" mode="normal" result="effect3_innerShadow"/></filter><linearGradient id="paint0_linear" x1="28.534" x2="90.228" y1="94.395" y2="47.43" gradientUnits="userSpaceOnUse"><stop stop-color="#71AFD8"/><stop offset=".115" stop-color="#5869A7"/><stop offset=".245" stop-color="#735397"/><stop offset=".359" stop-color="#A9559D"/><stop offset=".479" stop-color="#CE5D86"/><stop offset=".599" stop-color="#D16961"/><stop offset=".729" stop-color="#E7AE71"/><stop offset=".875" stop-color="#F7E580"/><stop offset="1" stop-color="#7BC651"/></linearGradient></defs></svg>