<svg width="21" height="20" viewBox="0 0 21 20" fill="none" xmlns="http://www.w3.org/2000/svg">
<path fill-rule="evenodd" clip-rule="evenodd" d="M9.9745 4.25431C10.5605 4.90384 10.3747 5.63969 9.85657 6.3379C9.73374 6.50344 9.59215 6.66654 9.42114 6.84627C9.33906 6.93254 9.27506 6.99742 9.14118 7.13142L8.37441 7.89862C8.27396 7.99906 8.95978 9.36953 10.2908 10.7018C11.621 12.0334 12.9914 12.7197 13.0924 12.6187L13.8586 11.8521C14.2806 11.4297 14.504 11.2259 14.8111 11.0244C15.4495 10.6056 16.1457 10.4918 16.733 11.0169C18.6504 12.3885 19.7354 13.2301 20.267 13.7824C21.3038 14.8597 21.1679 16.518 20.2729 17.464C19.9625 17.792 19.569 18.1858 19.1042 18.6338C16.2926 21.4469 10.359 19.735 5.81145 15.183C1.26291 10.63 -0.448123 4.69577 2.35753 1.88861C2.86122 1.377 3.0273 1.21101 3.51785 0.727647C4.43118 -0.172285 6.16595 -0.313196 7.22051 0.728537C7.77521 1.27649 8.65955 2.41433 9.9745 4.25431ZM15.2722 13.2661L14.5058 14.0329C13.2031 15.3364 10.9845 14.2253 8.87703 12.1157C6.76808 10.0047 5.65827 7.787 6.96142 6.48396L7.72744 5.71751C7.85002 5.59481 7.90609 5.53798 7.97339 5.46724C8.06509 5.37087 8.14044 5.28623 8.20077 5.21133C7.0354 3.58799 6.2432 2.57364 5.81614 2.15176C5.59558 1.93389 5.10172 1.97401 4.92042 2.15265C4.43686 2.62912 4.27792 2.78798 3.77626 3.29748C1.97194 5.10279 3.35321 9.89332 7.22519 13.7691C11.096 17.6437 15.8858 19.0256 17.7038 17.2068C18.1614 16.7655 18.5342 16.3924 18.8212 16.089C19.0286 15.8699 19.0657 15.4176 18.8271 15.1697C18.4298 14.7568 17.457 13.9984 15.7774 12.7922C15.6549 12.8907 15.5044 13.0337 15.2722 13.2661ZM19 8.99993V6.99993H15.4142L20.7071 1.70703L19.2929 0.292821L14 5.58571V1.99993H12V8.99993H19Z" fill="url(#paint0_linear)"/>
<defs>
<linearGradient id="paint0_linear" x1="20.9952" y1="19.001" x2="-0.138002" y2="18.0804" gradientUnits="userSpaceOnUse">
<stop stop-color="#F5821F"/>
<stop offset="1" stop-color="#FF4D00"/>
</linearGradient>
</defs>
</svg>
