<svg width="940" height="925" viewBox="0 0 940 925" fill="none" xmlns="http://www.w3.org/2000/svg">
<path d="M255.676 688.1C38.9994 371.033 219.728 454.117 141.942 367.884C64.1567 281.65 248.739 317.901 316.053 183.458C383.368 49.0146 435.801 48.554 514.467 113.579C593.133 178.603 976.61 516.75 782.88 595.987C589.15 675.223 472.352 1005.17 255.676 688.1Z" fill="#6DD5F6"/>
<path d="M688.207 663.099C485.371 941.643 501.233 763.877 451.74 855.572C402.247 947.267 377.361 780.332 243.464 763.876C109.567 747.42 93.4041 703.237 124.704 617.178C156.005 531.119 326.479 105.234 451.74 245.159C577.001 385.083 891.043 384.554 688.207 663.099Z" fill="#1F86F8"/>
</svg>
