<svg width="8" height="5" viewBox="0 0 8 5" fill="none" xmlns="http://www.w3.org/2000/svg">
<path d="M0.221982 0.231029C0.079858 0.379578 0 0.581154 0 0.791351C0 1.00155 0.079858 1.20312 0.221982 1.35167L3.49026 4.77904C3.62511 4.9205 3.80821 5 3.99916 5C4.1901 5 4.3732 4.9205 4.50805 4.77904L7.77849 1.35092C8.07384 1.04188 8.07384 0.540823 7.77849 0.231781C7.48315 -0.0772605 7.0043 -0.0772605 6.70895 0.231781L3.99916 3.07175L1.2908 0.231781C1.14911 0.0833877 0.956864 9.91828e-06 0.756394 9.91828e-06C0.555923 9.91828e-06 0.363673 0.0833877 0.221982 0.231781V0.231029Z" fill="#93A9C3"/>
</svg>
