<svg height="512pt" viewBox="0 -16 512 512" width="512pt" xmlns="http://www.w3.org/2000/svg"><path d="m437 180h-60c-8.289062 0-15-6.710938-15-15v-30c0-24.8125 20.1875-45 45-45s45 20.1875 45 45v30c0 8.289062-6.710938 15-15 15zm0 0" fill="#ff7816"/><g fill="#fdbf00"><path d="m407 60c-8.289062 0-15-6.710938-15-15v-30c0-8.289062 6.710938-15 15-15s15 6.710938 15 15v30c0 8.289062-6.710938 15-15 15zm0 0"/><path d="m470.632812 86.367188c-3.835937 0-7.675781-1.464844-10.605468-4.394532-5.859375-5.859375-5.859375-15.351562 0-21.210937l21.226562-21.226563c5.859375-5.859375 15.351563-5.859375 21.210938 0s5.859375 15.351563 0 21.210938l-21.226563 21.226562c-2.929687 2.929688-6.765625 4.394532-10.605469 4.394532zm0 0"/><path d="m343.367188 86.367188c-3.839844 0-7.675782-1.464844-10.605469-4.394532l-21.226563-21.226562c-5.859375-5.859375-5.859375-15.351563 0-21.210938s15.351563-5.859375 21.210938 0l21.226562 21.226563c5.859375 5.859375 5.859375 15.351562 0 21.210937-2.929687 2.929688-6.769531 4.394532-10.605468 4.394532zm0 0"/></g><path d="m491.300781 180-10.800781-21.601562c-2.699219-5.097657-7.800781-8.398438-13.5-8.398438h-150c-8.402344 0-15 6.597656-15 15v90c0 8.398438 6.597656 15 15 15h83.699219l25.800781 25.5c2.699219 3 6.601562 4.5 10.5 4.5h36.300781l38.699219-30-51.09375-46.40625zm0 0" fill="#ae2538"/><path d="m512 225v45h-68.699219l-21.300781-21.300781v-68.699219h69.300781l19.199219 38.398438c.898438 2.101562 1.5 4.199218 1.5 6.601562zm0 0" fill="#76e2f8"/><path d="m362 180h30v60h-30zm0 0" fill="#76e2f8"/><path d="m512 270h-68.699219l-21.300781-30h-105c-8.402344 0-15 6.597656-15 15v134.097656l30 30.902344h135c24.902344 0 45-20.101562 45-45v-15l-15-14.0625 15-15.9375zm0 0" fill="#cc2e43"/><path d="m317 90h-302c-8.402344 0-15 6.597656-15 15v300c0 8.398438 6.597656 15 15 15h317v-315c0-8.402344-6.597656-15-15-15zm0 0" fill="#deecf1"/><path d="m332 105v315h-166v-330h151c8.402344 0 15 6.597656 15 15zm0 0" fill="#c6e2e7"/><path d="m256 240v30c0 8.398438-6.597656 15-15 15h-45v45c0 8.398438-6.597656 15-15 15h-30c-8.402344 0-15-6.601562-15-15v-45h-45c-8.402344 0-15-6.601562-15-15v-30c0-8.402344 6.597656-15 15-15h45v-45c0-8.402344 6.597656-15 15-15h30c8.402344 0 15 6.597656 15 15v45h45c8.402344 0 15 6.597656 15 15zm0 0" fill="#ec5569"/><path d="m512 330v30h-45c-8.402344 0-15-6.601562-15-15 0-8.402344 6.597656-15 15-15zm0 0" fill="#c6e2e7"/><path d="m392 480c-33.089844 0-60-26.910156-60-60s26.910156-60 60-60 60 26.910156 60 60-26.910156 60-60 60zm0 0" fill="#384949"/><path d="m392 450c-16.539062 0-30-13.460938-30-30s13.460938-30 30-30 30 13.460938 30 30-13.460938 30-30 30zm0 0" fill="#c6e2e7"/><path d="m166 380.699219c-10.800781-12.601563-27-20.699219-45-20.699219-33 0-60 27-60 60s27 60 60 60c18 0 34.199219-8.101562 45-20.699219 9.601562-10.5 15-24.300781 15-39.300781s-5.398438-28.800781-15-39.300781zm0 0" fill="#4a696f"/><path d="m121 450c-16.539062 0-30-13.460938-30-30s13.460938-30 30-30 30 13.460938 30 30-13.460938 30-30 30zm0 0" fill="#deecf1"/><path d="m166 380.699219c9.601562 10.5 15 24.300781 15 39.300781s-5.398438 28.800781-15 39.300781zm0 0" fill="#3e5959"/><path d="m256 240v30c0 8.398438-6.597656 15-15 15h-45v45c0 8.398438-6.597656 15-15 15h-15v-180h15c8.402344 0 15 6.597656 15 15v45h45c8.402344 0 15 6.597656 15 15zm0 0" fill="#e63950"/></svg>