<svg height="512pt" viewBox="0 0 512.001 512" width="512pt" xmlns="http://www.w3.org/2000/svg"><path d="m316 15v46l-33.898438 30h-47.101562l-39-30v-46c0-8.402344 6.601562-15 15-15h90c8.402344 0 15 6.597656 15 15zm0 0" fill="#3e5959"/><path d="m282.101562 91h-26.101562v-91h45c8.402344 0 15 6.597656 15 15v46zm0 0" fill="#293939"/><path d="m196 61v75c0 8.402344 6.601562 15 15 15h90c8.402344 0 15-6.597656 15-15v-75zm0 0" fill="#e63950"/><path d="m301 151h-45v-90h60v75c0 8.402344-6.597656 15-15 15zm0 0" fill="#ae2538"/><path d="m346 121h-180c-24.898438 0-45 20.097656-45 45v69.902344c0 8.398437 6.601562 15 15 15h240c8.402344 0 15-6.601563 15-15v-69.902344c0-24.902344-20.097656-45-45-45zm0 0" fill="#c6e2e7"/><path d="m376 250.902344h-120v-129.902344h90c24.902344 0 45 20.097656 45 45v69.902344c0 8.398437-6.597656 15-15 15zm0 0" fill="#8ebac5"/><path d="m449.800781 262-17.398437 40.199219-51.601563 14.402343-124.800781-41.402343-114.898438 38.101562-61.5-11.101562-17.402343-40.199219c-1.5-3.898438-1.5-8.402344 0-12 1.800781-3.902344 5.101562-6.898438 9-8.097656l180-60c1.5-.601563 3-.902344 4.800781-.902344s3.300781.300781 4.800781.902344l180 60c3.898438 1.199218 7.203125 4.199218 9 8.097656 1.5 3.597656 1.5 8.101562 0 12zm0 0" fill="#4a696f"/><path d="m449.800781 262-17.398437 40.199219-51.601563 14.402343-124.800781-41.402343v-94.199219c1.800781 0 3.300781.300781 4.800781.902344l180 60c3.898438 1.199218 7.203125 4.199218 9 8.097656 1.5 3.597656 1.5 8.101562 0 12zm0 0" fill="#3e5959"/><path d="m432.402344 302.199219-46.199219 111.925781c-14.101563-3.300781-29.402344-.296875-40.203125 10.5-16.5 16.5-43.5 16.5-60 0-8.398438-8.402344-19.199219-12.296875-30-12.296875s-21.597656 3.894531-30 12.296875c-16.5 16.5-43.5 16.5-60 0-10.800781-10.800781-26.097656-13.800781-40.199219-10.5l-46.199219-111.925781 171.601563-57c1.5-.601563 2.996094-.898438 4.796875-.898438s3.300781.296875 4.800781.898438zm0 0" fill="#3e5959"/><path d="m432.402344 302.199219-46.199219 111.925781c-14.101563-3.300781-29.402344-.296875-40.203125 10.5-16.5 16.5-43.5 16.5-60 0-8.398438-8.402344-19.199219-12.296875-30-12.296875v-168.027344c1.800781 0 3.300781.300781 4.800781.902344zm0 0" fill="#293939"/><path d="m512 412.328125c0 8.097656-6.597656 15-15 15-7.199219 0-15.097656 2.699219-20.5 7.796875-11.101562 11.402344-25.800781 16.800781-40.5 16.800781s-29.398438-5.398437-40.496094-16.800781c-10.804687-10.5-28.203125-10.5-39.003906 0-22.199219 22.5-58.796875 22.5-80.996094 0-5.402344-5.097656-12.304687-7.796875-19.503906-7.796875s-14.097656 2.699219-19.5 7.796875c-22.199219 22.5-58.800781 22.5-81 0-10.800781-10.5-28.199219-10.5-39 0-22.199219 22.5-58.800781 22.5-81 0-5.402344-5.097656-13.300781-7.796875-20.5-7.796875-8.402344 0-15-6.902344-15-15 0-8.402344 6.597656-15 15-15 15.300781 0 30.699219 6 41.5 16.800781 10.800781 10.496094 28.199219 10.496094 39 0 22.199219-22.5 58.800781-22.5 81 0 10.5 10.199219 28.5 10.199219 39 0 11.101562-11.101562 25.800781-16.800781 40.5-16.800781s29.398438 5.699219 40.496094 16.800781c10.503906 10.199219 28.5 10.199219 39.003906 0 22.199219-22.5 58.796875-22.5 80.996094 0 10.804687 10.496094 28.203125 10.496094 39.003906 0 10.800781-10.800781 26.199219-16.800781 41.496094-16.800781 8.40625 0 15.003906 6.597656 15.003906 15zm0 0" fill="#a8ebfa"/><path d="m512 472.328125c0 8.097656-6.597656 15-15 15-7.199219 0-15.097656 2.699219-20.5 7.796875-11.101562 11.402344-25.800781 16.800781-40.5 16.800781s-29.398438-5.398437-40.496094-16.800781c-10.804687-10.5-28.203125-10.5-39.003906 0-22.199219 22.5-58.796875 22.5-80.996094 0-5.402344-5.097656-12.304687-7.796875-19.503906-7.796875s-14.097656 2.699219-19.5 7.796875c-22.199219 22.5-58.800781 22.5-81 0-10.800781-10.5-28.199219-10.5-39 0-22.199219 22.5-58.800781 22.5-81 0-5.402344-5.097656-13.300781-7.796875-20.5-7.796875-8.402344 0-15-6.902344-15-15 0-8.402344 6.597656-15 15-15 15.300781 0 30.699219 6 41.5 16.800781 10.800781 10.496094 28.199219 10.496094 39 0 22.199219-22.5 58.800781-22.5 81 0 10.5 10.199219 28.5 10.199219 39 0 11.101562-11.101562 25.800781-16.800781 40.5-16.800781s29.398438 5.699219 40.496094 16.800781c10.503906 10.199219 28.5 10.199219 39.003906 0 22.199219-22.5 58.796875-22.5 80.996094 0 10.804687 10.496094 28.203125 10.496094 39.003906 0 10.800781-10.800781 26.199219-16.800781 41.496094-16.800781 8.40625 0 15.003906 6.597656 15.003906 15zm0 0" fill="#a8ebfa"/><g fill="#76e2f8"><path d="m512 472.328125c0 8.097656-6.597656 15-15 15-7.199219 0-15.097656 2.699219-20.5 7.796875-11.101562 11.402344-25.800781 16.800781-40.5 16.800781s-29.398438-5.398437-40.496094-16.800781c-10.804687-10.5-28.203125-10.5-39.003906 0-22.199219 22.5-58.796875 22.5-80.996094 0-5.402344-5.097656-12.304687-7.796875-19.503906-7.796875v-30c14.699219 0 29.398438 5.699219 40.5 16.800781 10.5 10.199219 28.5 10.199219 39 0 22.199219-22.5 58.800781-22.5 81 0 10.800781 10.496094 28.199219 10.496094 39 0 10.800781-10.800781 26.199219-16.800781 41.5-16.800781 8.402344 0 15 6.597656 15 15zm0 0"/><path d="m275.503906 435.125c-5.402344-5.097656-12.304687-7.796875-19.503906-7.796875v-30c14.699219 0 29.398438 5.699219 40.5 16.800781 10.5 10.199219 28.5 10.199219 39 0 22.199219-22.5 58.800781-22.5 81 0 10.800781 10.496094 28.199219 10.496094 39 0 10.800781-10.800781 26.199219-16.800781 41.5-16.800781 8.402344 0 15 6.597656 15 15 0 8.097656-6.597656 15-15 15-7.199219 0-15.097656 2.699219-20.5 7.796875-11.101562 11.402344-25.800781 16.800781-40.5 16.800781s-29.398438-5.398437-40.5-16.800781c-10.800781-10.5-28.199219-10.5-39 0-22.199219 22.5-58.800781 22.5-80.996094 0zm0 0"/></g></svg>