<svg height="512pt" viewBox="0 0 512 512" width="512pt" xmlns="http://www.w3.org/2000/svg"><path d="m136 245.292969c-8.289062 0-15-6.710938-15-15v-64.292969c0-8.289062 6.710938-15 15-15s15 6.710938 15 15v64.292969c0 8.289062-6.710938 15-15 15zm0 0" fill="#3e5959"/><path d="m76 288.140625c-8.289062 0-15-6.710937-15-15v-77.140625c0-8.289062 6.710938-15 15-15s15 6.710938 15 15v77.140625c0 8.289063-6.710938 15-15 15zm0 0" fill="#3e5959"/><path d="m436 288.140625c-8.289062 0-15-6.710937-15-15v-77.140625c0-8.289062 6.710938-15 15-15s15 6.710938 15 15v77.140625c0 8.289063-6.710938 15-15 15zm0 0" fill="#384949"/><path d="m376 245.292969c-8.289062 0-15-6.710938-15-15v-64.292969c0-8.289062 6.710938-15 15-15s15 6.710938 15 15v64.292969c0 8.289062-6.710938 15-15 15zm0 0" fill="#384949"/><path d="m384.699219 423.699219-80.699219-58.199219c-2.699219-1.800781-5.699219-3-9-3h-78c-3.300781 0-6.300781 1.199219-9 3l-80.699219 58.199219c-3.902343 3-6.300781 7.5-6.300781 12.300781v61c0 10.199219 10.199219 17.398438 19.796875 14.097656l115.203125-39.296875 115.199219 39.296875c9.601562 3.300782 19.800781-3.898437 19.800781-14.097656v-61c0-4.800781-2.402344-9.300781-6.300781-12.300781zm0 0" fill="#3aaaff"/><path d="m505.699219 303.699219-196-139.199219c-2.398438-1.800781-5.699219-2.699219-8.699219-2.699219h-90c-3 0-6.300781.898438-8.699219 2.699219l-196 139.199219c-3.898437 3-6.300781 7.5-6.300781 12.300781v30c0 9.898438 9.300781 17.101562 19.199219 14.398438l236.800781-67.5 236.800781 67.5c9.898438 2.703124 19.199219-4.5 19.199219-14.398438v-30c0-4.800781-2.402344-9.300781-6.300781-12.300781zm0 0" fill="#3aaaff"/><path d="m384.699219 423.699219c3.898437 3 6.300781 7.5 6.300781 12.300781v61c0 10.199219-10.199219 17.398438-19.800781 14.097656l-115.199219-39.296875v-109.300781h39c3.300781 0 6.300781 1.199219 9 3zm0 0" fill="#0095ff"/><path d="m512 316v30c0 9.898438-9.300781 17.101562-19.199219 14.398438l-236.800781-67.5v-131.097657h45c3 0 6.300781.898438 8.699219 2.699219l196 139.199219c3.898437 3 6.300781 7.5 6.300781 12.300781zm0 0" fill="#0095ff"/><path d="m256 0c-33 0-60 27-60 60v242.199219l15 196c.601562 7.800781 7.199219 13.800781 15 13.800781h60c7.800781 0 14.398438-6 15-13.800781l15-197.199219v-241c0-33-27-60-60-60zm0 0" fill="#c6e2e7"/><path d="m316 60v241l-15 197.199219c-.601562 7.800781-7.199219 13.800781-15 13.800781h-30v-512c33 0 60 27 60 60zm0 0" fill="#a8d3d8"/></svg>