<svg height="512pt" viewBox="0 -91 512 512" width="512pt" xmlns="http://www.w3.org/2000/svg"><path d="m241 75c0 8.402344-6.597656 15-15 15h-105v45c0 8.402344-6.597656 15-15 15s-15-6.597656-15-15v-45h-61v45c0 1.5-.300781 3-.902344 4.199219-14.398437-9.597657-26.996094-18.296875-29.097656-19.199219v-45c0-8.402344 6.597656-15 15-15h211c8.402344 0 15 6.597656 15 15zm0 0" fill="#a8d3d8"/><path d="m241 75c0 8.402344-6.597656 15-15 15h-105v-30h105c8.402344 0 15 6.597656 15 15zm0 0" fill="#8ebac5"/><path d="m447.699219 120-46.074219-33.75 23.574219-56.25-4.800781-18.601562c-1.5-6.597657-7.5-11.398438-14.398438-11.398438h-180c-8.402344 0-15 6.597656-15 15v105l52.5 30h172.5c4.5 0 9-2.101562 11.699219-5.699219 3-3.601562 3.902343-8.398437 2.699219-12.902343zm0 0" fill="#ae2538"/><path d="m241 135v106.800781l-30 28.199219h-196c-8.402344 0-15-6.597656-15-15v-135h226c8.402344 0 15 6.597656 15 15zm0 0" fill="#cc2e43"/><path d="m241 135v106.800781l-30 28.199219h-90v-150h105c8.402344 0 15 6.597656 15 15zm0 0" fill="#ae2538"/><path d="m447.699219 120h-146.699219v-90h124.199219zm0 0" fill="#76e2f8"/><path d="m512 180v-15c0-5.699219-3.300781-10.800781-8.402344-13.5l-55.898437-31.5h-236.699219v150h286c8.402344 0 15-6.597656 15-15v-45l-16.25-14.375zm0 0" fill="#cc2e43"/><path d="m241 30h30v90h-30zm0 0" fill="#76e2f8"/><path d="m512 180v30h-46c-8.402344 0-15-6.597656-15-15s6.597656-15 15-15zm0 0" fill="#c6e2e7"/><path d="m121 210c-33 0-60 27-60 60s27 60 60 60 60-27 60-60-27-60-60-60zm0 0" fill="#4a696f"/><path d="m391 330c-33.089844 0-60-26.910156-60-60s26.910156-60 60-60 60 26.910156 60 60-26.910156 60-60 60zm0 0" fill="#384949"/><path d="m391 300c-16.539062 0-30-13.460938-30-30s13.460938-30 30-30 30 13.460938 30 30-13.460938 30-30 30zm0 0" fill="#c6e2e7"/><path d="m181 270c0 33-27 60-60 60v-120c33 0 60 27 60 60zm0 0" fill="#384949"/><path d="m151 270c0 16.5-13.5 30-30 30s-30-13.5-30-30 13.5-30 30-30 30 13.5 30 30zm0 0" fill="#deecf1"/><path d="m151 270c0 16.5-13.5 30-30 30v-60c16.5 0 30 13.5 30 30zm0 0" fill="#c6e2e7"/></svg>