<svg xmlns="http://www.w3.org/2000/svg" width="36" height="36" fill="none" viewBox="0 0 36 36"><path stroke="#FFF543" stroke-miterlimit="10" stroke-width="5" d="M33 18C33 20.968 32.1195 23.8692 30.47 26.3366C28.8205 28.8039 26.4761 30.7265 23.7336 31.8609C20.991 32.9954 17.9735 33.2908 15.063 32.7097C12.1525 32.1285 9.47985 30.6971 7.38322 28.5964C5.28658 26.4957 3.86025 23.8203 3.28473 20.9087C2.7092 17.9971 3.01036 14.9802 4.15009 12.2398C5.28982 9.49941 7.21689 7.15873 9.68741 5.51397C12.1579 3.86922 15.0608 2.99433 18.0288 3.00003C19.9973 3.00002 21.9464 3.38822 23.7647 4.14239C25.5829 4.89656 27.2346 6.00191 28.6252 7.39517C30.0158 8.78842 31.118 10.4422 31.8686 12.2619C32.6193 14.0817 33.0038 16.0316 33 18V18Z"/></svg>