<svg xmlns="http://www.w3.org/2000/svg" xmlns:xlink="http://www.w3.org/1999/xlink" id="Layer_1" data-name="Layer 1" viewBox="0 0 152 82"><defs><linearGradient id="linear-gradient" x1="60.36" x2="104.43" y1="32.53" y2="57.97" gradientUnits="userSpaceOnUse"><stop offset="0" stop-color="#6dcc95"/><stop offset="1" stop-color="#50a6a4"/></linearGradient><linearGradient id="linear-gradient-2" x1="45.14" x2="69.83" y1="39.5" y2="39.5" xlink:href="#linear-gradient"/></defs><title>logo мартингрей 2</title><path fill="url(#linear-gradient)" d="M85.23,16.85c-.84-.18-2.16-.44-3.77-.63a61.79,61.79,0,0,0-6.92-.31H70a64,64,0,0,0,11.29,40V27.2a19.62,19.62,0,0,1,10.38,6.88,18.91,18.91,0,0,1,0,23.29,19.57,19.57,0,0,1-10.38,6.88V75.56A31,31,0,0,0,98.94,66a29.83,29.83,0,0,0,2.55-37.39A30.76,30.76,0,0,0,85.23,16.84Z"/><path fill="url(#linear-gradient-2)" d="M56.27,45.43c0-.31,0-.6,0-.86v-8a66,66,0,0,0-3.85-18.78A65.9,65.9,0,0,0,45.14,3.5v42a30.64,30.64,0,0,0,24.69,30V63.9C61.24,60.91,56.52,51.68,56.27,45.43Z"/><g><path fill="#333" d="M14.54,38V51H12.15V42.42L7.29,51.5,2.38,42.43v8.62H0V38H2.38l4.91,8.65L12.15,38Z"/><path fill="#333" d="M26.87,48.46H21.08L19.74,51H17.21L24,38l6.76,13H28.22Zm-1.12-2.12L24,42.94,22.2,46.36Z"/><path fill="#333" d="M39.14,46.33H36.06V51H33.69V38h2.37v0h5.37c2.57,0,3.78,1.27,3.78,3.39V43a3.1,3.1,0,0,1-3.16,3.38L45.55,51H42.6Zm-3.08-2.15h5.18c1.36,0,1.59-.3,1.59-1.24V41.41c0-.95-.23-1.24-1.59-1.24H36.06Z"/><path fill="#333" d="M60.21,40.16H55.12V51H52.74V40.16H47.66V38H60.21Z"/><path fill="#333" d="M65.62,38V51H63.24V38Z"/><path fill="#333" d="M81.63,38V51H79.25l-7.68-9.36V51H69.19V38h2.38l7.68,9.16V38Z"/><path fill="#333" d="M106.43,43.5v2.09c0,1.91-.17,5.41-6.55,5.41-4.92,0-6.55-1.62-6.55-6.51S95,38,99.88,38c3,0,4.81.79,5.91,2.21l-2,1.42c-.73-1-1.87-1.54-3.84-1.54-3.22,0-4.28.75-4.28,4.4s1,4.43,4.19,4.43c3.53,0,4.08-1.08,4.17-3.33H99.13V43.5Z"/><path fill="#333" d="M115.69,46.34h-3.08V51h-2.39V38h2.39v0H118c2.57,0,3.78,1.27,3.78,3.4v1.52a3.08,3.08,0,0,1-3.15,3.38L122.09,51h-3Zm-3.08-2.15h5.18c1.36,0,1.59-.3,1.59-1.25V41.42c0-1-.23-1.25-1.59-1.25h-5.18Z"/><path fill="#333" d="M127.6,40.16v3.3H135v2.16H127.6v3.23h9.18V51H125.21V38h11.57v2.16Z"/><path fill="#333" d="M146.62,44.76V51h-2.38V44.76L138.7,38h3l3.78,4.61L149.15,38h2.95Z"/></g></svg>