<svg width="152" height="82" viewBox="0 0 152 82" fill="none" xmlns="http://www.w3.org/2000/svg">
<g clip-path="url(#clip0)">
<g filter="url(#filter0_ii)">
<path d="M84.9478 18.9188C84.1221 18.7392 82.8474 18.4937 81.2741 18.3089C79.2033 18.0634 77.6193 18.0449 74.5507 18H70.0917C69.6282 26.5521 70.9252 35.1083 73.9052 43.1574C75.7104 47.9975 78.1138 52.6019 81.0616 56.8673V28.9854C85.0812 30.0678 88.6273 32.4163 91.1548 35.6699C93.6823 38.9234 95.0513 42.9018 95.0513 46.9934C95.0513 51.085 93.6823 55.0634 91.1548 58.317C88.6273 61.5705 85.0812 63.919 81.0616 65.0014V76C87.699 74.8903 93.7623 71.6189 98.2744 66.7131C102.786 61.8073 105.484 55.553 105.933 48.9581C106.382 42.3633 104.556 35.8122 100.749 30.3607C96.9418 24.9092 91.3757 20.875 84.9478 18.9082V18.9188Z" fill="#6FCF97"/>
</g>
<g filter="url(#filter1_ii)">
<path d="M56.817 46.7672C56.8037 46.4655 56.8037 46.185 56.817 45.926V38.1224C56.4644 31.8867 55.2033 25.7366 53.074 19.8686C51.2891 14.9727 48.9133 10.3151 46 6V46.8607C46.0308 53.7562 48.4389 60.4279 52.8146 65.7406C57.1903 71.0533 63.2632 74.6788 70 76V64.7192C61.6473 61.8162 57.0642 52.8376 56.817 46.7672Z" fill="#6FCF97"/>
</g>
<path d="M14.5385 41V54.034H12.1538V45.417L7.28708 54.5L2.38468 45.4298V54.0468H0V41H2.38468L7.28708 49.6489L12.1538 41H14.5385Z" fill="#333333"/>
<path d="M26.8651 51.462H21.0778L19.7401 54H17.2144L23.9794 41L30.7445 54H28.2155L26.8651 51.462ZM25.7503 49.3433L23.9794 45.9447L22.1958 49.359L25.7503 49.3433Z" fill="#333333"/>
<path d="M39.1427 49.3317H36.0648V53.9714H33.686V41H36.0648V41.0318H41.4277C43.9974 41.0318 45.2079 42.3039 45.2079 44.4249V45.9482C45.2079 47.8975 44.2046 49.1282 42.0523 49.3254L45.5477 54H42.5993L39.1427 49.3317ZM36.0648 47.1788H41.2432C42.6025 47.1788 42.8291 46.8831 42.8291 45.9355V44.4122C42.8291 43.4582 42.6025 43.1688 41.2432 43.1688H36.0648V47.1788Z" fill="#333333"/>
<path d="M60.2057 43.155H55.1227V54H52.7383V43.155H47.6553V41H60.2057V43.155Z" fill="#333333"/>
<path d="M65.618 41V54H63.2368V41H65.618Z" fill="#333333"/>
<path d="M81.6302 41V54H79.249L71.5711 44.6384V54H69.1899V41H71.5711L79.249 50.158V41H81.6302Z" fill="#333333"/>
<path d="M106.43 46.5032V48.5892C106.43 50.4966 106.264 54 99.8787 54C94.9552 54 93.3276 52.3823 93.3276 47.4923C93.3276 42.6023 94.9552 41 99.8787 41C102.917 41 104.692 41.7919 105.79 43.2124L103.811 44.6267C103.081 43.6376 101.945 43.086 99.9696 43.086C96.749 43.086 95.6859 43.841 95.6859 47.4923C95.6859 51.1436 96.7302 51.917 99.8787 51.917C103.41 51.917 103.955 50.8355 104.05 48.5892H99.1292V46.5032H106.43Z" fill="#333333"/>
<path d="M115.687 49.339H112.608V53.9777H110.225V41H112.608V41.0223H117.973C120.541 41.0223 121.752 42.2949 121.752 44.4202V45.9442C121.752 47.8913 120.752 49.1258 118.595 49.3231L122.092 54H119.145L115.687 49.339ZM112.608 47.185H117.789C119.152 47.185 119.379 46.8859 119.379 45.941V44.417C119.379 43.4626 119.152 43.173 117.789 43.173H112.608V47.185Z" fill="#333333"/>
<path d="M127.595 43.155V46.4623H135.024V48.6173H127.595V51.845H136.783V54H125.214V41H136.783V43.155H127.595Z" fill="#333333"/>
<path d="M146.619 47.7625V54H144.239V47.7625L138.7 41H141.651L145.431 45.6081L149.152 41H152.103L146.619 47.7625Z" fill="#333333"/>
</g>
<defs>
<filter id="filter0_ii" x="66" y="14" width="44" height="66" filterUnits="userSpaceOnUse" color-interpolation-filters="sRGB">
<feFlood flood-opacity="0" result="BackgroundImageFix"/>
<feBlend mode="normal" in="SourceGraphic" in2="BackgroundImageFix" result="shape"/>
<feColorMatrix in="SourceAlpha" type="matrix" values="0 0 0 0 0 0 0 0 0 0 0 0 0 0 0 0 0 0 127 0" result="hardAlpha"/>
<feOffset dx="4" dy="4"/>
<feGaussianBlur stdDeviation="3"/>
<feComposite in2="hardAlpha" operator="arithmetic" k2="-1" k3="1"/>
<feColorMatrix type="matrix" values="0 0 0 0 0 0 0 0 0 0 0 0 0 0 0 0 0 0 0.25 0"/>
<feBlend mode="normal" in2="shape" result="effect1_innerShadow"/>
<feColorMatrix in="SourceAlpha" type="matrix" values="0 0 0 0 0 0 0 0 0 0 0 0 0 0 0 0 0 0 127 0" result="hardAlpha"/>
<feOffset dx="-4" dy="-4"/>
<feGaussianBlur stdDeviation="3"/>
<feComposite in2="hardAlpha" operator="arithmetic" k2="-1" k3="1"/>
<feColorMatrix type="matrix" values="0 0 0 0 0 0 0 0 0 0 0 0 0 0 0 0 0 0 0.25 0"/>
<feBlend mode="normal" in2="effect1_innerShadow" result="effect2_innerShadow"/>
</filter>
<filter id="filter1_ii" x="42" y="2" width="32" height="78" filterUnits="userSpaceOnUse" color-interpolation-filters="sRGB">
<feFlood flood-opacity="0" result="BackgroundImageFix"/>
<feBlend mode="normal" in="SourceGraphic" in2="BackgroundImageFix" result="shape"/>
<feColorMatrix in="SourceAlpha" type="matrix" values="0 0 0 0 0 0 0 0 0 0 0 0 0 0 0 0 0 0 127 0" result="hardAlpha"/>
<feOffset dx="4" dy="4"/>
<feGaussianBlur stdDeviation="3"/>
<feComposite in2="hardAlpha" operator="arithmetic" k2="-1" k3="1"/>
<feColorMatrix type="matrix" values="0 0 0 0 0 0 0 0 0 0 0 0 0 0 0 0 0 0 0.25 0"/>
<feBlend mode="normal" in2="shape" result="effect1_innerShadow"/>
<feColorMatrix in="SourceAlpha" type="matrix" values="0 0 0 0 0 0 0 0 0 0 0 0 0 0 0 0 0 0 127 0" result="hardAlpha"/>
<feOffset dx="-4" dy="-4"/>
<feGaussianBlur stdDeviation="3"/>
<feComposite in2="hardAlpha" operator="arithmetic" k2="-1" k3="1"/>
<feColorMatrix type="matrix" values="0 0 0 0 0 0 0 0 0 0 0 0 0 0 0 0 0 0 0.25 0"/>
<feBlend mode="normal" in2="effect1_innerShadow" result="effect2_innerShadow"/>
</filter>
<clipPath id="clip0">
<rect width="152" height="82" fill="white"/>
</clipPath>
</defs>
</svg>
