<svg width="30" height="30" viewBox="0 0 30 30" fill="none" xmlns="http://www.w3.org/2000/svg">
<circle cx="15" cy="15" r="15" transform="rotate(-90 15 15)" fill="#193231"/>
<path d="M14.8074 17.4202C15.0642 17.1691 15.0642 16.7619 14.8074 16.5108C14.5506 16.2597 14.1342 16.2597 13.8773 16.5108L11.7117 18.6284L11.7117 10.467C11.7117 10.1118 11.4173 9.82391 11.0541 9.82391C10.6908 9.82391 10.3964 10.1118 10.3964 10.467L10.3964 18.6284L8.23077 16.5108C7.97397 16.2597 7.55754 16.2597 7.3007 16.5108C7.17233 16.6364 7.1081 16.801 7.1081 16.9655C7.1081 17.1301 7.17233 17.2947 7.30075 17.4202L10.589 20.6356C10.8458 20.8867 11.2623 20.8867 11.5191 20.6356L14.8074 17.4202Z" fill="white"/>
<path fill-rule="evenodd" clip-rule="evenodd" d="M14.9474 16.3678C15.2844 16.6974 15.2845 17.2337 14.9474 17.5632L11.6591 20.7785C11.3246 21.1057 10.7839 21.1057 10.4494 20.7785L7.16114 17.5632C6.99316 17.399 6.90829 17.1824 6.90829 16.9655C6.90829 16.7486 6.99316 16.532 7.16107 16.3678C7.49563 16.0407 8.03627 16.0407 8.3708 16.3678L10.1966 18.1531L10.1966 10.467C10.1966 9.99716 10.5848 9.6239 11.0542 9.6239C11.5237 9.6239 11.9119 9.99716 11.9119 10.467L11.9119 18.1531L13.7377 16.3678C14.0723 16.0407 14.6129 16.0406 14.9474 16.3678ZM13.8775 16.5108C14.1344 16.2597 14.5508 16.2597 14.8076 16.5108C15.0644 16.7619 15.0644 17.1691 14.8076 17.4202L11.5193 20.6355C11.2625 20.8867 10.846 20.8867 10.5892 20.6355L7.30094 17.4202C7.17253 17.2947 7.10829 17.1301 7.10829 16.9655C7.10829 16.8009 7.17252 16.6364 7.3009 16.5108C7.55774 16.2597 7.97417 16.2597 8.23096 16.5108L10.3966 18.6284L10.3966 10.467C10.3966 10.1118 10.691 9.8239 11.0542 9.8239C11.4175 9.8239 11.7119 10.1118 11.7119 10.467L11.7119 18.6284L13.8775 16.5108Z" fill="white"/>
<path d="M15.301 12.2276C15.0442 12.4787 15.0442 12.8859 15.301 13.137C15.5578 13.3882 15.9742 13.3882 16.2311 13.137L18.3967 11.0194L18.3967 19.1808C18.3967 19.536 18.6911 19.8239 19.0543 19.8239C19.4175 19.8239 19.712 19.536 19.712 19.1808L19.712 11.0194L21.8776 13.137C22.1344 13.3881 22.5509 13.3881 22.8077 13.137C22.9361 13.0115 23.0003 12.8469 23.0003 12.6823C23.0003 12.5177 22.9361 12.3531 22.8077 12.2276L19.5194 9.01227C19.2626 8.76113 18.8461 8.76113 18.5893 9.01227L15.301 12.2276Z" fill="white"/>
<path fill-rule="evenodd" clip-rule="evenodd" d="M15.161 13.28C14.824 12.9504 14.8239 12.4142 15.161 12.0846L18.4493 8.86928C18.7838 8.54215 19.3245 8.54213 19.659 8.86929L22.9473 12.0846C23.1152 12.2488 23.2001 12.4654 23.2001 12.6823C23.2001 12.8992 23.1152 13.1158 22.9473 13.28C22.6128 13.6071 22.0721 13.6071 21.7376 13.28L19.9118 11.4947L19.9118 19.1809C19.9118 19.6507 19.5236 20.0239 19.0542 20.0239C18.5847 20.0239 18.1965 19.6507 18.1965 19.1809L18.1965 11.4947L16.3707 13.28C16.0361 13.6072 15.4955 13.6072 15.161 13.28ZM16.2309 13.137C15.974 13.3882 15.5576 13.3882 15.3008 13.137C15.044 12.8859 15.044 12.4787 15.3008 12.2276L18.5891 9.01228C18.8459 8.76114 19.2624 8.76114 19.5192 9.01228L22.8075 12.2276C22.9359 12.3531 23.0001 12.5177 23.0001 12.6823C23.0001 12.8469 22.9359 13.0115 22.8075 13.137C22.5507 13.3881 22.1342 13.3881 21.8774 13.137L19.7118 11.0195L19.7118 19.1809C19.7118 19.536 19.4174 19.8239 19.0542 19.8239C18.6909 19.8239 18.3965 19.536 18.3965 19.1809L18.3965 11.0195L16.2309 13.137Z" fill="white"/>
</svg>
