<svg width="16" height="16" viewBox="0 0 16 16" fill="none" xmlns="http://www.w3.org/2000/svg">
<g clip-path="url(#clip0)">
<path d="M7.97348 14.6667H1.99336C1.62657 14.6667 1.32891 14.368 1.32891 14V2.00002C1.32891 1.63202 1.6266 1.33337 1.99336 1.33337H7.97348C8.34092 1.33337 8.63792 1.03538 8.63792 0.666715C8.63792 0.298053 8.34092 0 7.97348 0H1.99336C0.894349 0 0 0.897356 0 2.00002V14C0 15.1027 0.894349 16 1.99336 16H7.97348C8.34092 16 8.63792 15.702 8.63792 15.3333C8.63792 14.9647 8.34092 14.6667 7.97348 14.6667Z" fill="#FD2A47"/>
<path d="M15.8009 7.52494L11.761 3.52494C11.5005 3.26627 11.0793 3.26962 10.8214 3.53162C10.5636 3.79361 10.5663 4.21561 10.8281 4.47428L13.7151 7.33293H5.97889C5.61145 7.33293 5.31445 7.63092 5.31445 7.99958C5.31445 8.36825 5.61145 8.66627 5.97889 8.66627H13.7151L10.8281 11.5249C10.5663 11.7836 10.5643 12.2056 10.8214 12.4676C10.9517 12.5996 11.1231 12.6662 11.2945 12.6662C11.4633 12.6662 11.6321 12.6022 11.761 12.4742L15.8009 8.47422C15.9271 8.3489 15.9989 8.17821 15.9989 7.99955C15.9989 7.82096 15.9278 7.65096 15.8009 7.52494Z" fill="#FD2A47"/>
</g>
<defs>
<clipPath id="clip0">
<rect width="16" height="16" fill="white"/>
</clipPath>
</defs>
</svg>
