<svg width="16" height="16" viewBox="0 0 16 16" fill="none" xmlns="http://www.w3.org/2000/svg">
<g clip-path="url(#clip0)">
<path d="M8.50304 16H7.49888C6.68673 16 6.02595 15.3393 6.02595 14.5271V14.1874C5.68066 14.0771 5.3452 13.9378 5.02291 13.771L4.78216 14.0118C4.19907 14.5956 3.26504 14.5785 2.69888 14.0116L1.98916 13.3019C1.42201 12.7353 1.4057 11.8016 1.98935 11.2186L2.22991 10.978C2.06313 10.6558 1.92391 10.3203 1.81357 9.975H1.47388C0.661758 9.975 0.000976562 9.31425 0.000976562 8.50209V7.49791C0.000976562 6.68575 0.661758 6.025 1.47391 6.025H1.8136C1.92395 5.67969 2.06316 5.34425 2.22995 5.02197L1.9892 4.78125C1.40588 4.19856 1.42198 3.26475 1.98938 2.69797L2.69916 1.98822C3.26663 1.41997 4.20045 1.40578 4.78241 1.98841L5.02295 2.22894C5.34523 2.06219 5.6807 1.92294 6.02598 1.81259V1.47291C6.02598 0.66075 6.68673 0 7.49891 0H8.50307C9.31523 0 9.97598 0.66075 9.97598 1.47291V1.81263C10.3213 1.92294 10.6567 2.06219 10.979 2.22897L11.2198 1.98822C11.8029 1.40441 12.7369 1.42153 13.303 1.98844L14.0128 2.69812C14.5799 3.26466 14.5962 4.19838 14.0126 4.78141L13.772 5.02197C13.9388 5.34425 14.078 5.67966 14.1884 6.025H14.528C15.3402 6.025 16.001 6.68575 16.001 7.49791V8.50209C16.001 9.31425 15.3402 9.975 14.528 9.975H14.1884C14.078 10.3203 13.9388 10.6558 13.772 10.978L14.0128 11.2188C14.5961 11.8015 14.58 12.7353 14.0126 13.3021L13.3028 14.0118C12.7353 14.5801 11.8015 14.5943 11.2195 14.0116L10.979 13.7711C10.6567 13.9378 10.3213 14.0771 9.97598 14.1874V14.5272C9.97598 15.3392 9.31523 16 8.50304 16ZM5.17963 12.7866C5.62735 13.0513 6.10923 13.2514 6.61185 13.3811C6.81885 13.4345 6.96348 13.6212 6.96348 13.835V14.5271C6.96348 14.8223 7.2037 15.0625 7.49891 15.0625H8.50307C8.79829 15.0625 9.03851 14.8223 9.03851 14.5271V13.835C9.03851 13.6212 9.18313 13.4345 9.39013 13.3811C9.89276 13.2514 10.3746 13.0513 10.8224 12.7866C11.0066 12.6776 11.2411 12.7073 11.3924 12.8586L11.8827 13.3489C12.0941 13.5605 12.4335 13.5556 12.6397 13.3491L13.3499 12.6389C13.5556 12.4335 13.5625 12.094 13.3501 11.8819L12.8596 11.3914C12.7083 11.2401 12.6787 11.0055 12.7876 10.8213C13.0524 10.3737 13.2524 9.89178 13.3821 9.38912C13.4355 9.18213 13.6222 9.03753 13.836 9.03753H14.5281C14.8233 9.03753 15.0635 8.79734 15.0635 8.50212V7.49794C15.0635 7.20272 14.8233 6.96253 14.5281 6.96253H13.836C13.6222 6.96253 13.4355 6.81791 13.3821 6.61094C13.2524 6.10828 13.0524 5.62641 12.7876 5.17872C12.6787 4.99453 12.7083 4.75997 12.8596 4.60866L13.3499 4.11837C13.5619 3.90669 13.5563 3.56731 13.3501 3.36134L12.6399 2.65119C12.4341 2.44506 12.0946 2.43903 11.8829 2.651L11.3925 3.14147C11.2412 3.29281 11.0065 3.32244 10.8224 3.2135C10.3747 2.94872 9.89279 2.74869 9.39016 2.61897C9.18316 2.56556 9.03854 2.37888 9.03854 2.16509V1.47291C9.03854 1.17769 8.79832 0.9375 8.5031 0.9375H7.49895C7.20373 0.9375 6.96351 1.17769 6.96351 1.47291V2.16503C6.96351 2.37881 6.81888 2.5655 6.61188 2.61891C6.10926 2.74863 5.62738 2.94866 5.17966 3.21344C4.99541 3.32234 4.76088 3.29272 4.60957 3.14141L4.11932 2.65112C3.90795 2.4395 3.56848 2.44441 3.36232 2.65091L2.6521 3.36109C2.44641 3.56653 2.43954 3.906 2.65191 4.11812L3.14238 4.60859C3.2937 4.75991 3.32332 4.99447 3.21441 5.17866C2.94963 5.62634 2.74963 6.10822 2.61991 6.61088C2.56648 6.81787 2.37979 6.96247 2.16604 6.96247H1.47391C1.1787 6.9625 0.938477 7.20269 0.938477 7.49791V8.50209C0.938477 8.79731 1.1787 9.0375 1.47391 9.0375H2.16601C2.37979 9.0375 2.56645 9.18213 2.61988 9.38909C2.7496 9.89175 2.94963 10.3736 3.21438 10.8213C3.32329 11.0055 3.29366 11.2401 3.14235 11.3914L2.65207 11.8817C2.44013 12.0933 2.44566 12.4327 2.65188 12.6387L3.36204 13.3488C3.56788 13.555 3.90738 13.561 4.11907 13.349L4.60951 12.8586C4.72101 12.7471 4.95298 12.6525 5.17963 12.7866Z" fill="#262929"/>
<path d="M8.00176 11.482C6.08216 11.482 4.52051 9.92034 4.52051 8.00078C4.52051 6.08122 6.08216 4.51953 8.00176 4.51953C9.92135 4.51953 11.483 6.08122 11.483 8.00078C11.483 9.92034 9.92135 11.482 8.00176 11.482ZM8.00176 5.45703C6.5991 5.45703 5.45801 6.59816 5.45801 8.00078C5.45801 9.40341 6.59913 10.5445 8.00176 10.5445C9.40438 10.5445 10.5455 9.40341 10.5455 8.00078C10.5455 6.59816 9.40441 5.45703 8.00176 5.45703Z" fill="#262929"/>
</g>
<defs>
<clipPath id="clip0">
<rect x="0.000976562" width="16" height="16" fill="white"/>
</clipPath>
</defs>
</svg>
