<svg width="24" height="24" viewBox="0 0 24 24" fill="none" xmlns="http://www.w3.org/2000/svg">
<circle cx="12" cy="12" r="12" fill="#0D0D3F"/>
<path d="M12.0002 12.2024C13.4365 12.2024 14.6107 10.9762 14.6107 9.47619C14.6107 7.97618 13.4365 6.75 12.0002 6.75C10.5638 6.75 9.38965 7.97618 9.38965 9.47619C9.38965 10.9762 10.5638 12.2024 12.0002 12.2024Z" fill="white"/>
<path d="M16.4808 14.3809C16.4124 14.2023 16.3212 14.0357 16.2186 13.8809C15.6942 13.0714 14.8848 12.5356 13.9729 12.4047C13.8589 12.3928 13.7335 12.4166 13.6423 12.488C13.1635 12.8571 12.5935 13.0475 12.0007 13.0475C11.4079 13.0475 10.8379 12.8571 10.3591 12.488C10.2679 12.4166 10.1425 12.3809 10.0286 12.4047C9.11658 12.5356 8.29581 13.0714 7.78283 13.8809C7.68024 14.0357 7.58903 14.2142 7.52065 14.3809C7.48646 14.4523 7.49785 14.5357 7.53204 14.6071C7.62324 14.7737 7.73723 14.9404 7.83983 15.0833C7.99941 15.3095 8.17042 15.5118 8.36422 15.7023C8.52381 15.869 8.7062 16.0237 8.88861 16.1785C9.78917 16.8809 10.8721 17.2499 11.9893 17.2499C13.1065 17.2499 14.1895 16.8809 15.09 16.1785C15.2724 16.0357 15.4548 15.869 15.6144 15.7023C15.7968 15.5118 15.9792 15.3095 16.1388 15.0833C16.2528 14.9285 16.3554 14.7737 16.4466 14.6071C16.5036 14.5357 16.515 14.4523 16.4808 14.3809Z" fill="white"/>
</svg>
