<svg width="48" height="48" viewBox="0 0 48 48" fill="none" xmlns="http://www.w3.org/2000/svg">
<path d="M24 48C47.815 48 48 37.255 48 24C48 10.745 47.815 0 24 0C0.184999 0 0 10.745 0 24C0 37.255 0.184999 48 24 48Z" fill="#430063"/>
<path d="M21.5517 23.3143V15.4286H27.2414C29.4828 15.4286 31.2069 17.1429 31.2069 19.3714C31.2069 21.6 29.4828 23.3143 27.2414 23.3143H21.5517ZM17.7586 36H21.5517V32.0571H29.4828V28.9714H21.5517V26.7429H27.2414C31.7241 26.7429 35 23.4857 35 19.3714C35 15.2571 31.7241 12 27.2414 12H17.7586V23.3143H15V26.7429H17.7586V28.9714H15V32.0571H17.7586V36Z" fill="white"/>
</svg>
