<svg xmlns="http://www.w3.org/2000/svg" xmlns:xlink="http://www.w3.org/1999/xlink" width="0" height="0" class="hidden"><symbol xmlns="http://www.w3.org/2000/svg" id="arrow" fill="none" viewBox="0 0 23 14"><path fill="#000" d="M12.56.94a1.5 1.5 0 00-2.12 0L.892 10.484a1.5 1.5 0 102.122 2.122L11.5 4.12l8.485 8.486a1.5 1.5 0 102.122-2.122L12.56.94zM13 3V2h-3v1h3z"/></symbol><symbol xmlns="http://www.w3.org/2000/svg" id="icon-1" viewBox="0 0 512 512"><path fill="#ffb357" d="M110.885 315.364h198.037v126.561H110.885z"/><path fill="#ffce71" d="M408.063 418.983L269.154 48.561h-82.338V227.92l23.087 23.087 79.656 212.416c9.527 25.405 33.639 41.08 59.261 41.077a63.172 63.172 0 0022.211-4.045c32.723-12.273 49.303-48.748 37.032-81.472z"/><path fill="#ffb357" d="M269.154 48.561C259.892 23.863 236.281 7.5 209.902 7.5s-49.99 16.363-59.252 41.061L11.743 418.984c-12.271 32.723 4.309 69.198 37.032 81.47 32.721 12.268 69.2-4.308 81.472-37.033l79.656-212.416.001.002v-58.121a205.396 205.396 0 0159.25-144.325z"/><g fill="#ff8e9e"><ellipse cx="130.346" cy="226.92" rx="29.355" ry="23.377"/><ellipse cx="289.46" cy="226.92" rx="29.355" ry="23.377"/></g><path fill="#c77464" d="M399.792 176.657h-18.734c-7.76 0-14.051 6.291-14.051 14.051V397.23a16.344 16.344 0 0016.344 16.344h14.147c9.021 0 16.344-7.319 16.344-16.344V190.707c0-7.76-6.29-14.05-14.05-14.05z"/><path fill="#d4d4ff" d="M484.193 237.719l19.892 19.892a149.418 149.418 0 01-1.336 19.997 149.148 149.148 0 01-8.767 34.005c-3.649 9.393-13.816 14.505-23.552 11.909-9.084-2.422-17.077-4.605-25.738-6.499v-79.306h39.501z"/><path fill="#9ea2e3" d="M444.692 244.599v-43.36c7.892-2.131 16.631-5.518 24.956-8.293 11.754-3.358 21.427 2.862 24.823 11.847a149.188 149.188 0 019.615 52.819 92.704 92.704 0 00-59.394-13.013z"/><path fill="#ff8e9e" d="M370.874 309.086h-3.76c-11.64 0-21.076-9.436-21.076-21.076v-30.443l-28.846-28.846c-6.639-6.639-1.937-17.989 7.451-17.989h42.47c28.476 0 51.968-2.577 77.578-9.493 8.381 13.196 14.152 27.485 16.311 42.868a96.72 96.72 0 01.955 13.46c0 8.792-.934 17.422-2.837 25.747-2.748 12.018-7.518 23.4-14.429 33.711-22.741-4.973-45.863-7.94-73.817-7.939z"/><path fill="#ea5b70" d="M423.024 249.866a92.711 92.711 0 00-55.91 59.22c-11.64 0-21.076-9.436-21.076-21.076v-30.443l-28.846-28.846c-6.639-6.639-1.937-17.989 7.451-17.989h42.47c28.476 0 51.968-2.577 77.578-9.493 8.381 13.196 14.152 27.485 16.311 42.868a92.642 92.642 0 00-37.978 5.759z"/><path d="M154.955 204.417v-12a7.5 7.5 0 00-15 0v12a7.5 7.5 0 0015 0zm124.897 0v-12a7.5 7.5 0 00-15 0v12a7.5 7.5 0 0015 0zm-47.831 4.569a7.5 7.5 0 00-11.309-9.855c-5.727 6.571-15.899 6.564-21.62 0a7.5 7.5 0 00-11.309 9.855c11.706 13.431 32.547 13.418 44.238 0zm-52.119 98.878a7.5 7.5 0 000 15h60a7.5 7.5 0 000-15h-.668l-22.31-59.492a7.5 7.5 0 00-14.044 0l-22.309 59.492zm30.001-35.498l13.312 35.498H196.59z"/><path d="M501.486 202.141c-5.242-13.865-20.401-20.87-34.211-16.31-10.309 3.438-24.004 9.131-45.933 13.058v-8.182c0-11.883-9.668-21.55-21.551-21.55h-18.734c-11.883 0-21.551 9.667-21.551 21.55v12.524h-24.341l-58.99-157.305C265.875 18.457 239.241 0 209.902 0s-55.972 18.457-66.274 45.927l-36.267 96.713a7.5 7.5 0 0014.045 5.267l36.267-96.712C165.792 29.545 186.781 15 209.902 15c23.122 0 44.111 14.545 52.229 36.194l57.301 152.803c-12.936 3.882-17.254 20.317-7.544 30.027l26.648 26.649v27.337c0 13.085 8.89 24.174 20.969 27.528v81.692c0 13.147 10.696 23.844 23.845 23.844h14.146c1.104 0 2.189-.082 3.253-.228 14.34 38.233-13.876 76.154-51.93 76.154h-.006c-23.118 0-44.109-14.552-52.231-36.21l-4.395-11.721a7.5 7.5 0 00-2.284-14.643h-160a7.5 7.5 0 00-2.284 14.643l-4.395 11.719c-10.798 28.796-43.01 43.439-71.812 32.646a.008.008 0 01-.004-.002c-21.659-8.123-36.211-29.116-36.211-52.239a55.588 55.588 0 013.568-19.575l92.106-245.621a7.5 7.5 0 00-14.045-5.267L4.721 416.351C1.719 424.355 0 432.713 0 441.193c0 38.549 31.975 70.793 70.917 70.793 28.669 0 55.709-17.548 66.353-45.931l6.236-16.629h132.796l6.237 16.631C292.843 493.539 319.476 512 348.813 512h.008c47.18 0 84.65-46.62 65.445-97.836 4.367-4.324 7.077-10.318 7.077-16.934v-26.339c0-4.142-3.357-7.5-7.5-7.5s-7.5 3.358-7.5 7.5v26.339c0 4.876-3.968 8.844-8.845 8.844h-14.146c-4.877 0-8.845-3.967-8.845-8.844v-80.594c11.771.163 22.098.729 31.836 1.723v22.532c0 4.142 3.357 7.5 7.5 7.5s7.5-3.358 7.5-7.5v-20.604c14.934 2.321 29.5 5.774 47.155 10.483 13.482 3.596 27.44-3.479 32.476-16.44 7.033-18.105 11.019-37.187 11.026-56.714.009-19.061-3.805-37.725-10.514-55.475zm-120.428-17.984h18.734a6.558 6.558 0 016.551 6.55v10.388c-9.302 1.093-19.835 1.842-31.836 2.063v-12.451a6.557 6.557 0 016.551-6.55zm-27.52 103.853v-30.443a7.5 7.5 0 00-2.196-5.303l-28.846-28.846c-1.926-1.926-.578-5.186 2.148-5.186h42.47c33.166 0 56.794-3.919 74.043-8.335 19.218 33.547 16.033 71.617-.068 98.76-22.909-4.828-43.792-7.063-73.806-7.071a6.866 6.866 0 00-.238-.005c-7.448-.039-13.507-6.126-13.507-13.571zm133.453 20.887c-2.264 5.827-8.553 8.998-14.628 7.378a833.09 833.09 0 00-16.033-4.124c16.349-30.644 18.929-70.509-.406-106.557 6.464-2.103 11.609-4.033 15.928-5.479 8.019-2.221 13.611 2.065 15.602 7.328 6.065 16.047 9.138 32.925 9.13 50.164-.006 17.666-3.234 34.922-9.593 51.29z"/></symbol><symbol xmlns="http://www.w3.org/2000/svg" id="logo" fill="none" viewBox="0 0 55 55"><path fill="#E2AE83" d="M43.677 47.486H11.324a1.075 1.075 0 01-1.075-1.075V16.143c0-.593.481-1.074 1.074-1.074h32.354c.593 0 1.074.481 1.074 1.074v30.268c0 .594-.481 1.075-1.074 1.075z"/><path fill="#D39C72" d="M44.75 16.143c0-.593-.48-1.074-1.074-1.074H32.562v4.342a3.22 3.22 0 005.347 2.423l2.436-2.134a.317.317 0 01.208-.08h4.198v-3.477zM13.237 46.411V16.143c0-.593.48-1.074 1.074-1.074h-2.988c-.593 0-1.074.481-1.074 1.074v30.268c0 .594.481 1.075 1.074 1.075h2.988a1.074 1.074 0 01-1.074-1.075z"/><path fill="#F1F6F7" d="M17.7 36.498h1.98c.297 0 .538-.24.538-.537v-3.362h1.317a.537.537 0 00.37-.927l-2.71-2.568a.537.537 0 00-.726-.012l-2.907 2.568a.537.537 0 00.355.94h1.246v3.36c0 .297.24.538.537.538z"/><path fill="#701E4C" fill-opacity=".9" d="M51.186 16.935H40.553c-.728 0-1.43.265-1.979.745l-2.435 2.135a.537.537 0 01-.891-.404V3.825a3.013 3.013 0 013.008-3.02h12.93a3.014 3.014 0 013.008 3.02v10.09a3.014 3.014 0 01-3.008 3.02z"/><path fill="#701E4C" d="M37.888 3.825a3.014 3.014 0 013.008-3.02h-2.64a3.013 3.013 0 00-3.008 3.02v15.587c0 .461.544.708.891.404l1.75-1.534V3.825z"/><path fill="#F1F6F7" d="M50.974 8.65l-2.567-2.908a.537.537 0 00-.94.355v1.246h-5.491V6.026a.537.537 0 00-.928-.37l-2.567 2.71a.537.537 0 00-.013.725L41.036 12c.327.37.94.139.94-.356v-1.245h5.49v1.317c0 .485.594.722.928.37l2.568-2.71a.537.537 0 00.012-.726z"/><path fill="#FFCEBF" d="M53.657 54.194c.297 0 .537-.24.537-.537v-11.8a.537.537 0 00-.537-.536h-1.95a4.626 4.626 0 01-3.27-1.355l-4.62-4.62a1.912 1.912 0 10-2.704 2.705l1.894 1.893h-9.302c-.968 0-1.794.753-1.826 1.72a1.781 1.781 0 001.78 1.843h-1.781a1.781 1.781 0 100 3.562h1.78a1.781 1.781 0 000 3.563h1.686a1.78 1.78 0 00-1.78 1.842c.032.968.858 1.72 1.827 1.72h18.266z"/><path fill="#FFB09E" d="M43.007 39.944h1.856L42.97 38.05a1.912 1.912 0 01.424-3.022 1.912 1.912 0 00-2.28 3.023l1.894 1.893zm-7.587 12.53a1.781 1.781 0 011.78-1.842h-1.685a1.781 1.781 0 110-3.563h-1.781a1.781 1.781 0 110-3.562h1.781a1.781 1.781 0 01-1.78-1.842c.032-.968.859-1.72 1.827-1.72h-1.856c-.969 0-1.795.752-1.828 1.72a1.781 1.781 0 001.78 1.842h-1.78a1.781 1.781 0 100 3.562h1.78a1.781 1.781 0 000 3.563h1.686a1.78 1.78 0 00-1.78 1.842c.032.968.858 1.72 1.827 1.72h1.856c-.968 0-1.795-.752-1.827-1.72z"/><path fill="#FFCEBF" d="M1.343 54.194a.537.537 0 01-.537-.537v-11.8c0-.296.24-.536.537-.536h1.95a4.626 4.626 0 003.27-1.355l4.62-4.62a1.912 1.912 0 012.704 2.705l-1.894 1.893h9.302c.968 0 1.794.753 1.826 1.72a1.781 1.781 0 01-1.78 1.843h1.782a1.781 1.781 0 010 3.562H21.34a1.781 1.781 0 110 3.563h-1.685a1.78 1.78 0 011.78 1.842c-.032.968-.858 1.72-1.826 1.72H1.343z"/><path fill="#FFB09E" d="M3.242 53.657v-11.8c0-.296.24-.536.537-.536h1.95A4.626 4.626 0 009 39.966l4.62-4.62c.042-.042.087-.082.133-.12a1.912 1.912 0 00-2.57.12l-4.62 4.62a4.626 4.626 0 01-3.27 1.355h-1.95a.537.537 0 00-.537.537v11.8c0 .296.24.536.537.536h2.436a.537.537 0 01-.537-.537z"/><path fill="#000" d="M17.7 37.303h1.98c.741 0 1.343-.602 1.343-1.342v-2.556h.512c.553 0 1.043-.332 1.247-.846a1.336 1.336 0 00-.323-1.471l-2.71-2.569a1.336 1.336 0 00-1.813-.031l-2.908 2.568a1.332 1.332 0 00-.367 1.481c.2.528.693.868 1.256.868h.44v2.556c0 .74.602 1.342 1.343 1.342zm1.118-7.445l2.043 1.936h-.643a.806.806 0 00-.806.805v3.093H17.97v-3.093a.806.806 0 00-.806-.805h-.536l2.191-1.936zM51.187 0H38.256a3.824 3.824 0 00-3.814 3.825v10.438H11.323c-1.036 0-1.88.844-1.88 1.88v3.807a.806.806 0 101.612 0v-3.807c0-.148.12-.268.268-.268h11.758v8.154c0 .52.29.983.758 1.209h7.321c.468-.226.758-.69.758-1.21v-8.153h2.523v3.537c0 .534.302 1.002.789 1.223a1.33 1.33 0 001.44-.214l2.435-2.135a2.195 2.195 0 011.447-.546h10.634A3.823 3.823 0 0055 13.916V3.825A3.823 3.823 0 0051.187 0zM30.308 23.474L28.5 23.5c-.5-.026-1-.026-2 0l-1.808-.026v-7.6h5.616v7.6zm23.08-9.558a2.21 2.21 0 01-2.201 2.213H40.553c-.923 0-1.814.336-2.51.945l-1.99 1.745V3.825a2.21 2.21 0 012.203-2.214h12.93a2.21 2.21 0 012.203 2.214v10.09z"/><path fill="#000" d="M49.01 5.208a1.333 1.333 0 00-1.481-.367c-.527.2-.868.693-.868 1.256v.44h-3.88v-.512c0-.553-.332-1.042-.846-1.247a1.336 1.336 0 00-1.471.324l-2.568 2.71a1.336 1.336 0 00-.032 1.813l2.568 2.907c.373.422.955.566 1.481.367.528-.2.868-.692.868-1.256v-.44h3.88v.512c0 .553.332 1.042.846 1.247a1.337 1.337 0 001.472-.324l2.567-2.71a1.336 1.336 0 00.032-1.812L49.01 5.208zm-.738 5.833v-.643a.806.806 0 00-.805-.806h-5.492a.806.806 0 00-.805.806v.536l-1.936-2.192L41.17 6.7v.643c0 .445.36.805.805.805h5.492c.445 0 .805-.36.805-.805v-.536l1.936 2.191-1.936 2.043zm5.385 29.474h-1.95c-1.02 0-1.98-.398-2.701-1.12l-3.45-3.449V20.81a.806.806 0 00-1.61 0v13.609a2.699 2.699 0 00-1.48-.438 2.7 2.7 0 00-1.922.796 2.72 2.72 0 000 3.843l.518.519h-7.356c-1.406 0-2.587 1.12-2.633 2.499-.013.396.062.78.217 1.13a2.591 2.591 0 00-2 2.52c0 .513.152.99.41 1.392h-4.4c.258-.402.41-.88.41-1.392a2.591 2.591 0 00-2-2.52c.155-.35.23-.734.217-1.13-.046-1.378-1.227-2.5-2.632-2.5h-7.357l.519-.518a2.721 2.721 0 000-3.843 2.7 2.7 0 00-1.922-.796c-.534 0-1.043.153-1.48.438V23.852a.806.806 0 00-1.611 0v12.095l-3.45 3.449a3.795 3.795 0 01-2.701 1.119h-1.95c-.74 0-1.343.602-1.343 1.343v11.8C0 54.397.602 55 1.343 55H19.61c1.405 0 2.586-1.121 2.632-2.499a2.58 2.58 0 00-.226-1.153 2.591 2.591 0 001.85-3.057h7.267a2.591 2.591 0 001.851 3.057 2.58 2.58 0 00-.226 1.153C32.804 53.879 33.985 55 35.39 55h18.267c.74 0 1.343-.602 1.343-1.343v-11.8c0-.74-.602-1.342-1.343-1.342zm-32.316 9.311h-5.705a.806.806 0 000 1.611h4.02a.97.97 0 01.702.298.97.97 0 01.273.712c-.017.52-.476.942-1.022.942H1.611V42.126h1.682c1.45 0 2.815-.565 3.84-1.59l4.62-4.62a1.1 1.1 0 01.782-.324 1.108 1.108 0 01.782 1.889l-1.894 1.894a.806.806 0 00.57 1.375h9.301c.546 0 1.005.422 1.022.941a.97.97 0 01-.273.713.968.968 0 01-.702.297h-5.705a.806.806 0 000 1.611h7.486a.977.977 0 010 1.951h-7.486a.806.806 0 000 1.612h5.705a.977.977 0 010 1.951zM53.39 53.39h-18c-.547 0-1.005-.423-1.022-.942a.97.97 0 01.273-.712.968.968 0 01.702-.297h4.02a.806.806 0 000-1.612h-5.705a.977.977 0 010-1.951h5.705a.806.806 0 000-1.611h-7.487a.977.977 0 010-1.952h7.487a.806.806 0 000-1.61h-5.705a.968.968 0 01-.702-.298.969.969 0 01-.273-.713c.017-.519.475-.941 1.021-.941h9.302a.806.806 0 00.57-1.375l-1.894-1.894a1.108 1.108 0 011.565-1.565l4.619 4.62a5.397 5.397 0 003.84 1.59h1.682V53.39z"/></symbol><symbol xmlns="http://www.w3.org/2000/svg" id="telegram" fill="none" viewBox="0 0 50 42"><path fill="#039BE5" d="M19.619 27.627l-.827 11.633c1.183 0 1.695-.508 2.31-1.118l5.548-5.303 11.496 8.42c2.108 1.174 3.593.556 4.162-1.94L49.854 3.96l.002-.002C50.525.842 48.73-.377 46.675.388L2.32 17.367c-3.027 1.176-2.982 2.863-.515 3.628l11.34 3.527 26.34-16.481c1.239-.821 2.366-.367 1.439.454L19.619 27.627z"/></symbol><symbol xmlns="http://www.w3.org/2000/svg" id="viber" fill="none" viewBox="0 0 50 50"><g fill="#8E24AA" clip-path="url(#clip0)"><path d="M48.24 28.944c1.491-12.557-.717-20.484-4.7-24.07l.002-.001c-6.43-6.123-28.142-7.03-35.834.275-3.454 3.573-4.67 8.816-4.804 15.308-.133 6.494-.292 18.659 11.044 21.958h.01l-.01 5.04s-.077 2.042 1.227 2.452c1.492.483 2.167-.464 6.806-6.006 7.758.673 13.717-.869 14.394-1.094 1.567-.525 10.431-1.698 11.864-13.862zm-25.494 11.41s-4.91 6.123-6.438 7.713c-.5.516-1.048.468-1.04-.557 0-.673.038-8.366.038-8.366-9.61-2.755-9.044-13.113-8.94-18.532.105-5.42 1.096-9.86 4.021-12.85 6.748-6.327 25.784-4.912 30.634-.354 5.929 5.256 3.819 20.107 3.831 20.613-1.219 10.154-8.402 10.798-9.723 11.237-.564.188-5.804 1.536-12.383 1.096z"/><path d="M25.462 8.952c-.802 0-.802 1.25 0 1.26 6.223.049 11.348 4.386 11.405 12.342 0 .84 1.229.83 1.218-.01h-.002C38.017 13.97 32.421 9 25.463 8.952z"/><path d="M33.648 21.235c-.019.83 1.208.869 1.219.03.102-4.728-2.813-8.621-8.29-9.032-.802-.058-.885 1.202-.085 1.26 4.75.361 7.252 3.603 7.156 7.742zm-1.313 5.378c-1.029-.596-2.077-.225-2.51.36l-.906 1.173c-.46.596-1.321.517-1.321.517-6.28-1.66-7.958-8.232-7.958-8.232s-.078-.89.497-1.366l1.134-.938c.566-.45.925-1.533.348-2.598-1.542-2.785-2.578-3.745-3.104-4.483-.555-.694-1.388-.85-2.255-.381h-.019c-1.801 1.054-3.774 3.027-3.143 5.058 1.077 2.142 3.056 8.969 9.364 14.127 2.965 2.44 7.657 4.94 9.648 5.517l.019.029c1.963.654 3.87-1.396 4.89-3.252v-.015c.452-.898.302-1.748-.359-2.304-1.17-1.142-2.937-2.402-4.325-3.212z"/><path d="M27.436 16.883c2.002.117 2.973 1.163 3.077 3.31.037.84 1.256.782 1.218-.058-.133-2.804-1.595-4.366-4.229-4.512-.802-.048-.877 1.212-.066 1.26z"/></g><defs><clipPath id="clip0"><path fill="#fff" d="M0 0h50v50H0z"/></clipPath></defs></symbol><symbol xmlns="http://www.w3.org/2000/svg" id="article" fill="none" viewBox="0 0 100 100"><circle cx="50" cy="50" r="50" fill="#701E4C" fill-opacity=".25"/><path fill="#000" d="M38.964 61.042h3.24a2.2 2.2 0 002.198-2.198v-4.181h.837c.905 0 1.706-.543 2.041-1.384a2.187 2.187 0 00-.53-2.409l-4.435-4.202a2.186 2.186 0 00-2.966-.051l-4.757 4.202a2.18 2.18 0 00-.6 2.424 2.18 2.18 0 002.055 1.42h.72v4.181a2.2 2.2 0 002.197 2.198zm1.83-12.183l3.342 3.167h-1.052c-.728 0-1.319.59-1.319 1.318v5.061h-2.362v-5.06c0-.729-.59-1.319-1.318-1.319h-.877l3.586-3.167zM93.76 0H72.6c-3.44 0-6.24 2.808-6.24 6.259V23.34H28.53a3.08 3.08 0 00-3.077 3.076v6.229a1.318 1.318 0 002.637 0v-6.229a.44.44 0 01.44-.439h19.238V39.32c0 .85.476 1.608 1.24 1.978.766.37 1.655.272 2.322-.256L55 38.136l3.67 2.906a2.186 2.186 0 002.321.256 2.181 2.181 0 001.24-1.978V25.977h4.129v5.787c0 .874.494 1.641 1.29 2.002a2.178 2.178 0 002.355-.35l3.986-3.494a3.593 3.593 0 012.368-.892h17.4c3.442 0 6.241-2.808 6.241-6.26V6.26C100 2.808 97.2 0 93.76 0zM59.595 38.411l-3.231-2.558a2.19 2.19 0 00-2.728 0l-3.231 2.558V25.977h9.19v12.434zm37.768-15.64c0 1.997-1.616 3.622-3.603 3.622h-17.4c-1.511 0-2.97.55-4.107 1.547l-3.256 2.855V6.259c0-1.997 1.616-3.622 3.603-3.622h21.16c1.987 0 3.603 1.625 3.603 3.622V22.77z"/><path fill="#000" d="M90.198 8.523a2.18 2.18 0 00-2.424-.6 2.18 2.18 0 00-1.42 2.054v.72h-6.349V9.86c0-.905-.543-1.706-1.383-2.041a2.186 2.186 0 00-2.409.53l-4.202 4.434a2.186 2.186 0 00-.052 2.966l4.202 4.758a2.18 2.18 0 002.425.6 2.18 2.18 0 001.42-2.055v-.72h6.348v.837c0 .905.543 1.707 1.384 2.042a2.187 2.187 0 002.409-.53l4.201-4.435c.789-.832.81-2.107.052-2.966l-4.202-4.757zm-1.207 9.544v-1.053c0-.728-.59-1.318-1.318-1.318h-8.986c-.728 0-1.318.59-1.318 1.318v.877l-3.167-3.585 3.167-3.343v1.053c0 .728.59 1.318 1.318 1.318h8.986c.728 0 1.318-.59 1.318-1.319v-.876l3.167 3.586-3.167 3.342zm8.812 48.23h-3.191a6.21 6.21 0 01-4.42-1.831l-5.645-5.645V34.052a1.318 1.318 0 00-2.637 0v22.27a4.417 4.417 0 00-2.422-.717 4.418 4.418 0 00-3.144 1.303 4.452 4.452 0 000 6.289l.848.848H65.155c-2.3 0-4.232 1.835-4.308 4.09a4.234 4.234 0 00.354 1.85 4.24 4.24 0 00-3.27 4.123c0 .838.247 1.619.67 2.277h-7.2c.421-.658.67-1.439.67-2.277a4.24 4.24 0 00-3.272-4.123 4.223 4.223 0 00.354-1.85c-.075-2.255-2.007-4.09-4.307-4.09H32.808l.848-.848a4.452 4.452 0 000-6.29 4.418 4.418 0 00-3.144-1.302 4.41 4.41 0 00-2.422.717V39.03a1.318 1.318 0 00-2.637 0v19.79l-5.644 5.645a6.21 6.21 0 01-4.421 1.831h-3.19A2.2 2.2 0 0010 68.494v19.309A2.2 2.2 0 0012.197 90h29.891c2.3 0 4.232-1.834 4.307-4.09a4.22 4.22 0 00-.37-1.885 4.24 4.24 0 003.03-5.003h11.89a4.24 4.24 0 003.03 5.002 4.222 4.222 0 00-.37 1.887C63.678 88.166 65.611 90 67.91 90h29.892A2.2 2.2 0 00100 87.803V68.494a2.2 2.2 0 00-2.197-2.197zM44.922 81.534h-9.335a1.318 1.318 0 000 2.636h6.578c.436 0 .844.173 1.147.487.304.314.463.728.448 1.166-.029.85-.778 1.54-1.672 1.54H12.637v-18.43h2.751a8.83 8.83 0 006.285-2.603l7.558-7.558c.342-.342.797-.53 1.28-.53a1.812 1.812 0 011.28 3.09l-3.098 3.1a1.318 1.318 0 00.932 2.25h15.22c.894 0 1.644.69 1.672 1.54.015.438-.144.852-.447 1.166a1.583 1.583 0 01-1.148.486h-9.335a1.318 1.318 0 100 2.637h12.25c.88 0 1.596.716 1.596 1.597 0 .88-.716 1.596-1.596 1.596h-12.25a1.318 1.318 0 000 2.637h9.335c.88 0 1.596.716 1.596 1.596 0 .88-.716 1.597-1.596 1.597zm52.441 5.83H67.912c-.894 0-1.644-.692-1.672-1.541a1.586 1.586 0 01.448-1.166 1.584 1.584 0 011.147-.487h6.578a1.318 1.318 0 000-2.636h-9.335c-.88 0-1.597-.716-1.597-1.597 0-.88.717-1.596 1.597-1.596h9.335a1.318 1.318 0 000-2.637h-12.25c-.88 0-1.596-.716-1.596-1.596 0-.88.716-1.597 1.596-1.597h12.25a1.318 1.318 0 000-2.636h-9.335c-.437 0-.844-.173-1.148-.487a1.586 1.586 0 01-.447-1.166c.028-.85.778-1.54 1.671-1.54h15.221a1.318 1.318 0 00.932-2.25l-3.099-3.1a1.812 1.812 0 011.28-3.09c.484 0 .939.188 1.28.53l7.56 7.558a8.83 8.83 0 006.284 2.604h2.751v18.43z"/></symbol></svg>