<svg width="162" height="168" viewBox="0 0 162 168" fill="none" xmlns="http://www.w3.org/2000/svg">
<g filter="url(#filter0_d)">
<path d="M146.308 82.208H93.44V93.5458L146.353 93.5694L146.327 148.683C146.327 148.683 146.321 148.683 146.308 148.683L93.4374 148.662C93.4354 152.81 92.2304 156.649 90.272 160H146.308C152.575 160 157.67 154.905 157.67 148.639V93.5694C157.67 87.3086 152.575 82.208 146.308 82.208Z" fill="#333333"/>
<path d="M70.7632 32.9668H15.6915C9.42808 32.9668 4.33008 38.0648 4.33008 44.3282V148.639C4.33008 154.905 9.42808 160 15.6915 160H41.9978H70.7632C77.0246 160 82.1226 154.905 82.1226 148.639V44.3282C82.1226 38.0648 77.0246 32.9668 70.7632 32.9668ZM15.6915 44.2813L70.8051 44.3282L70.7815 137.313H15.6525L15.6915 44.2813ZM37.2262 148.339C37.2262 145.027 39.9119 142.341 43.2211 142.341C46.5434 142.341 49.2294 145.027 49.2294 148.339C49.2294 151.653 46.5437 154.344 43.2211 154.344C39.9119 154.344 37.2262 151.653 37.2262 148.339Z" fill="#333333"/>
<path d="M119.454 42.0803H111.905C111.357 42.0803 110.867 42.4088 110.656 42.9179C110.45 43.4183 110.565 44.0024 110.95 44.3859L124.195 57.6327C124.724 58.1573 125.577 58.1573 126.106 57.6327L139.351 44.3859C139.734 44.0024 139.852 43.4183 139.645 42.9179C139.436 42.4088 138.944 42.0803 138.396 42.0803H130.769C130.341 18.8094 111.307 0 87.9377 0C84.8135 0 82.2817 2.53181 82.2817 5.65597C82.2817 8.78307 84.8135 11.3175 87.9377 11.3175C105.07 11.3175 119.029 25.047 119.454 42.0803Z" fill="#333333"/>
</g>
<defs>
<filter id="filter0_d" x="-3" y="0" width="168" height="168" filterUnits="userSpaceOnUse" color-interpolation-filters="sRGB">
<feFlood flood-opacity="0" result="BackgroundImageFix"/>
<feColorMatrix in="SourceAlpha" type="matrix" values="0 0 0 0 0 0 0 0 0 0 0 0 0 0 0 0 0 0 127 0"/>
<feOffset dy="4"/>
<feGaussianBlur stdDeviation="2"/>
<feColorMatrix type="matrix" values="0 0 0 0 0 0 0 0 0 0 0 0 0 0 0 0 0 0 0.25 0"/>
<feBlend mode="normal" in2="BackgroundImageFix" result="effect1_dropShadow"/>
<feBlend mode="normal" in="SourceGraphic" in2="effect1_dropShadow" result="shape"/>
</filter>
</defs>
</svg>
