<svg width="21" height="15" viewBox="0 0 21 15" fill="none" xmlns="http://www.w3.org/2000/svg">
<path d="M18.7499 0H2.49999C1.46445 0 0.625 0.79748 0.625 1.78125V12.4688C0.625 13.4525 1.46445 14.25 2.49999 14.25H18.7499C19.7854 14.25 20.6249 13.4525 20.6249 12.4688V1.78125C20.6249 0.79748 19.7854 0 18.7499 0ZM18.7499 1.78125V3.2955C17.874 3.97308 16.4777 5.02669 13.4926 7.24728C12.8348 7.73886 11.5317 8.91987 10.6249 8.9061C9.71838 8.92002 8.41484 7.73868 7.75726 7.24728C4.77263 5.02702 3.37596 3.97319 2.49999 3.2955V1.78125H18.7499ZM2.49999 12.4688V5.58118C3.39506 6.25846 4.66439 7.20887 6.5991 8.64812C7.45289 9.28658 8.94807 10.696 10.6249 10.6875C12.2936 10.696 13.7698 9.30703 14.6504 8.64841C16.5851 7.2092 17.8548 6.25853 18.7499 5.58121V12.4688H2.49999Z" fill="#404040"/>
</svg>
