<svg width="14" height="15" viewBox="0 0 14 15" fill="none" xmlns="http://www.w3.org/2000/svg">
<path d="M0.172967 14.2407C0.288344 14.356 0.425111 14.4139 0.583139 14.4139C0.741104 14.4139 0.877678 14.356 0.993278 14.2407L2.17811 13.0648C2.82826 13.6786 3.57272 14.1542 4.41119 14.4913C5.2496 14.8285 6.11269 14.9971 6.99989 14.9971C8.67096 14.9971 10.1292 14.4913 11.3749 13.4795C12.6207 12.4678 13.441 11.1479 13.8359 9.51927V9.45551C13.8359 9.37653 13.8071 9.30811 13.7494 9.25046C13.6916 9.19271 13.6233 9.16388 13.5443 9.16388H11.7305C11.5968 9.16388 11.5057 9.23379 11.4571 9.37346C11.2019 9.98106 11.0409 10.3365 10.974 10.4399C10.5487 11.1326 9.98359 11.6764 9.27869 12.0714C8.57372 12.4664 7.8142 12.6639 7.00002 12.6639C5.77854 12.6639 4.71825 12.2476 3.81886 11.4152L5.07689 10.1574C5.19204 10.0419 5.24996 9.90514 5.24996 9.74715C5.24996 9.58918 5.19207 9.45245 5.07689 9.33701C4.96129 9.22153 4.82452 9.16385 4.66653 9.16385H0.583139C0.425143 9.16385 0.288376 9.22153 0.172967 9.33701C0.0576228 9.45245 -6.50202e-05 9.58915 -6.50202e-05 9.74715V13.8306C-6.50202e-05 13.9886 0.0572716 14.1252 0.172967 14.2407Z" fill="white"/>
<path d="M0.519609 6.83018H2.2696C2.40331 6.83018 2.49445 6.76036 2.54295 6.62056C2.79803 6.01291 2.95918 5.65761 3.02594 5.55427C3.45137 4.86173 4.0165 4.31766 4.72121 3.92272C5.42621 3.52765 6.18574 3.33032 6.99995 3.33032C7.58932 3.33032 8.15752 3.4396 8.70433 3.65828C9.2512 3.87722 9.74042 4.18718 10.1718 4.58826L8.92304 5.8369C8.80764 5.95225 8.74988 6.08914 8.74988 6.24704C8.74988 6.40501 8.80764 6.5419 8.92304 6.65718C9.03852 6.77275 9.17519 6.83057 9.33318 6.83057H13.4166C13.5747 6.83057 13.7114 6.77275 13.8269 6.65718C13.9423 6.54187 14 6.40498 14 6.24701V2.16359C14 2.00572 13.9423 1.86886 13.8268 1.75345C13.7113 1.6382 13.5746 1.58016 13.4166 1.58016C13.2586 1.58016 13.1219 1.63817 13.0064 1.75345L11.8307 2.92934C11.1805 2.30968 10.4406 1.83256 9.61115 1.49837C8.78171 1.16405 7.92341 0.997118 7.03631 0.997118C5.37127 0.997118 3.91907 1.50297 2.67949 2.51464C1.43991 3.52627 0.625663 4.8465 0.236594 6.47492C0.230497 6.48705 0.227624 6.50835 0.227624 6.53861C0.227624 6.61772 0.25658 6.68585 0.3143 6.74379C0.372084 6.80123 0.440499 6.83018 0.519609 6.83018Z" fill="white"/>
</svg>
