<svg xmlns="http://www.w3.org/2000/svg" width="16" height="13" fill="none" viewBox="0 0 16 13"><path fill="#404040" d="M13.7159 0.266113H1.52844C0.751782 0.266113 0.122192 0.937676 0.122192 1.76611V10.7661C0.122192 11.5946 0.751782 12.2661 1.52844 12.2661H13.7159C14.4926 12.2661 15.1222 11.5946 15.1222 10.7661V1.76611C15.1222 0.937676 14.4926 0.266113 13.7159 0.266113ZM13.7159 1.76611V3.04127C13.059 3.61186 12.0118 4.49911 9.77296 6.36908C9.27958 6.78305 8.30223 7.77758 7.62219 7.76599C6.94227 7.77771 5.9646 6.7829 5.47142 6.36908C3.23293 4.49939 2.18542 3.61196 1.52844 3.04127V1.76611H13.7159ZM1.52844 10.7661V4.96605C2.19975 5.53639 3.15175 6.33674 4.6028 7.54874C5.24314 8.08639 6.36454 9.2733 7.62219 9.26608C8.87367 9.2733 9.98085 8.10361 10.6413 7.54899C12.0923 6.33702 13.0446 5.53646 13.7159 4.96608V10.7661H1.52844Z"/></svg>