<svg xmlns="http://www.w3.org/2000/svg" width="32" height="32" fill="none" viewBox="0 0 32 32"><g filter="url(#filter0_d)"><path stroke="#FBFDFF" d="M27.5 16C27.5 22.3513 22.3513 27.5 16 27.5C9.64872 27.5 4.5 22.3513 4.5 16C4.5 9.64872 9.64872 4.5 16 4.5C22.3513 4.5 27.5 9.64873 27.5 16Z"/></g><path fill="#FBFDFF" stroke="#FBFDFF" d="M17.022 14.6528H18.5107L18.3783 15.9049H17.022H16.522V16.4049V22.1952H14.8425V16.4049V15.9049H14.3425H13.5723V14.6723H14.3425H14.8425V14.1723V12.7356C14.8425 12.2875 14.9527 11.7464 15.2657 11.3299C15.56 10.9384 16.0788 10.5952 17.0419 10.5952H18.5267V11.7502H17.5976C17.4095 11.7502 17.1423 11.7944 16.9113 11.9762C16.6586 12.175 16.522 12.4807 16.522 12.8521V14.1528V14.6528H17.022Z"/><defs><filter id="filter0_d" width="32" height="32" x="0" y="0" color-interpolation-filters="sRGB" filterUnits="userSpaceOnUse"><feFlood flood-opacity="0" result="BackgroundImageFix"/><feColorMatrix in="SourceAlpha" type="matrix" values="0 0 0 0 0 0 0 0 0 0 0 0 0 0 0 0 0 0 127 0"/><feOffset/><feGaussianBlur stdDeviation="2"/><feColorMatrix type="matrix" values="0 0 0 0 1 0 0 0 0 1 0 0 0 0 1 0 0 0 1 0"/><feBlend in2="BackgroundImageFix" mode="normal" result="effect1_dropShadow"/><feBlend in="SourceGraphic" in2="effect1_dropShadow" mode="normal" result="shape"/></filter></defs></svg>