<svg width="984" height="1052" viewBox="0 0 984 1052" fill="none" xmlns="http://www.w3.org/2000/svg">
<g style="mix-blend-mode:multiply" opacity="0.4">
<g style="mix-blend-mode:luminosity" opacity="0.2" filter="url(#filter0_ii)">
<path d="M865.63 515.236C863.544 504.795 859.953 488.838 854.137 469.752C846.51 444.619 838.694 426.265 823.661 390.663L801.052 339.266C698.659 377.929 605.146 436.906 526.099 512.675C478.631 558.388 436.955 609.785 402.006 665.712L728.167 522.241C735.885 574.143 726.393 627.102 701.149 672.978C675.905 718.853 636.307 755.105 588.443 776.159C540.579 797.213 487.099 801.905 436.224 789.512C385.349 777.12 339.897 748.33 306.854 707.567L178.193 764.162C224.828 834.959 293.841 888.017 374.106 914.783C454.371 941.549 541.214 940.464 620.636 911.704C700.058 882.943 767.433 828.182 811.901 756.247C856.368 684.313 875.339 599.395 865.754 515.181L865.63 515.236Z" fill="#61B484"/>
</g>
<g style="mix-blend-mode:luminosity" opacity="0.2" filter="url(#filter1_ii)">
<path d="M397.667 334.747C401.132 333.04 404.414 331.596 407.514 330.415L498.852 290.237C570.058 254.082 635.671 207.935 693.597 153.268C741.885 107.561 784.399 56.2965 820.188 0.621094L341.927 210.998C261.373 246.853 195.449 308.86 155.371 386.467C115.293 464.074 103.538 552.486 122.106 636.658L254.144 578.577C245.926 467.703 327.865 368.84 397.667 334.747Z" fill="#61B484"/>
</g>
</g>
<defs>
<filter id="filter0_ii" x="174.193" y="335.266" width="697.989" height="602.829" filterUnits="userSpaceOnUse" color-interpolation-filters="sRGB">
<feFlood flood-opacity="0" result="BackgroundImageFix"/>
<feBlend mode="normal" in="SourceGraphic" in2="BackgroundImageFix" result="shape"/>
<feColorMatrix in="SourceAlpha" type="matrix" values="0 0 0 0 0 0 0 0 0 0 0 0 0 0 0 0 0 0 127 0" result="hardAlpha"/>
<feOffset dx="4" dy="4"/>
<feGaussianBlur stdDeviation="3"/>
<feComposite in2="hardAlpha" operator="arithmetic" k2="-1" k3="1"/>
<feColorMatrix type="matrix" values="0 0 0 0 0 0 0 0 0 0 0 0 0 0 0 0 0 0 0.25 0"/>
<feBlend mode="normal" in2="shape" result="effect1_innerShadow"/>
<feColorMatrix in="SourceAlpha" type="matrix" values="0 0 0 0 0 0 0 0 0 0 0 0 0 0 0 0 0 0 127 0" result="hardAlpha"/>
<feOffset dx="-4" dy="-4"/>
<feGaussianBlur stdDeviation="3"/>
<feComposite in2="hardAlpha" operator="arithmetic" k2="-1" k3="1"/>
<feColorMatrix type="matrix" values="0 0 0 0 0 0 0 0 0 0 0 0 0 0 0 0 0 0 0.25 0"/>
<feBlend mode="normal" in2="effect1_innerShadow" result="effect2_innerShadow"/>
</filter>
<filter id="filter1_ii" x="109.52" y="-3.37891" width="714.667" height="644.037" filterUnits="userSpaceOnUse" color-interpolation-filters="sRGB">
<feFlood flood-opacity="0" result="BackgroundImageFix"/>
<feBlend mode="normal" in="SourceGraphic" in2="BackgroundImageFix" result="shape"/>
<feColorMatrix in="SourceAlpha" type="matrix" values="0 0 0 0 0 0 0 0 0 0 0 0 0 0 0 0 0 0 127 0" result="hardAlpha"/>
<feOffset dx="4" dy="4"/>
<feGaussianBlur stdDeviation="3"/>
<feComposite in2="hardAlpha" operator="arithmetic" k2="-1" k3="1"/>
<feColorMatrix type="matrix" values="0 0 0 0 0 0 0 0 0 0 0 0 0 0 0 0 0 0 0.25 0"/>
<feBlend mode="normal" in2="shape" result="effect1_innerShadow"/>
<feColorMatrix in="SourceAlpha" type="matrix" values="0 0 0 0 0 0 0 0 0 0 0 0 0 0 0 0 0 0 127 0" result="hardAlpha"/>
<feOffset dx="-4" dy="-4"/>
<feGaussianBlur stdDeviation="3"/>
<feComposite in2="hardAlpha" operator="arithmetic" k2="-1" k3="1"/>
<feColorMatrix type="matrix" values="0 0 0 0 0 0 0 0 0 0 0 0 0 0 0 0 0 0 0.25 0"/>
<feBlend mode="normal" in2="effect1_innerShadow" result="effect2_innerShadow"/>
</filter>
</defs>
</svg>
