<svg xmlns="http://www.w3.org/2000/svg" width="32" height="32" fill="none" viewBox="0 0 32 32"><g filter="url(#filter0_d)"><path stroke="#FBFDFF" d="M27.5 16C27.5 22.3513 22.3513 27.5 16 27.5C9.64872 27.5 4.5 22.3513 4.5 16C4.5 9.64872 9.64872 4.5 16 4.5C22.3513 4.5 27.5 9.64873 27.5 16Z"/></g><path fill="#FBFDFF" stroke="#FBFDFF" d="M11.1387 14.887H10.6387V15.387V20.5549C10.6387 21.0062 10.9939 21.3615 11.4452 21.3615H20.5547C21.006 21.3615 21.3613 21.0062 21.3613 20.5549V15.387V14.887H20.8613H19.5912H18.8975L19.1168 15.5451C19.1523 15.6513 19.1569 15.8072 19.1569 16.0001C19.1569 17.7386 17.7384 19.1571 16 19.1571C14.2615 19.1571 12.843 17.7386 12.843 16.0001C12.843 15.9104 12.8433 15.819 12.8499 15.7309C12.8569 15.6372 12.869 15.5836 12.8769 15.5625L13.1302 14.887H12.4087H11.1387ZM11.1168 10.4125H20.8613C21.2639 10.4125 21.5875 10.7361 21.5875 11.1388V20.8834C21.5875 21.2861 21.2639 21.6096 20.8613 21.6096H11.1168C10.7141 21.6096 10.3905 21.2861 10.3905 20.8834V11.1388C10.3905 10.7361 10.7141 10.4125 11.1168 10.4125ZM18.9306 16.0001C18.9306 14.3882 17.6119 13.0694 16 13.0694C14.3881 13.0694 13.0693 14.3882 13.0693 16.0001C13.0693 17.612 14.3881 18.9308 16 18.9308C17.6119 18.9308 18.9306 17.612 18.9306 16.0001ZM20.5547 13.4563C21.006 13.4563 21.3613 13.101 21.3613 12.6497V11.4234C21.3613 10.9721 21.006 10.6169 20.5547 10.6169H19.3284C18.8771 10.6169 18.5218 10.9721 18.5218 11.4234V12.6497C18.5218 13.101 18.8771 13.4563 19.3284 13.4563H20.5547Z"/><defs><filter id="filter0_d" width="32" height="32" x="0" y="0" color-interpolation-filters="sRGB" filterUnits="userSpaceOnUse"><feFlood flood-opacity="0" result="BackgroundImageFix"/><feColorMatrix in="SourceAlpha" type="matrix" values="0 0 0 0 0 0 0 0 0 0 0 0 0 0 0 0 0 0 127 0"/><feOffset/><feGaussianBlur stdDeviation="2"/><feColorMatrix type="matrix" values="0 0 0 0 1 0 0 0 0 1 0 0 0 0 1 0 0 0 1 0"/><feBlend in2="BackgroundImageFix" mode="normal" result="effect1_dropShadow"/><feBlend in="SourceGraphic" in2="effect1_dropShadow" mode="normal" result="shape"/></filter></defs></svg>