<svg xmlns="http://www.w3.org/2000/svg" width="542" height="807" fill="none" viewBox="0 0 542 807"><g filter="url(#filter0_d)"><path fill="url(#paint0_linear)" d="M1.12476 721.295C1.12476 721.295 57.7501 180.78 449.534 -0.00585938C449.534 -0.00585938 435.211 3.24092 454.587 35.0446C466.865 56.8865 498.476 116.435 498.476 116.435C501.228 123.253 502.388 130.493 501.886 137.718C501.383 144.943 499.229 152.003 495.552 158.472C491.876 164.94 486.754 170.684 480.495 175.355C474.237 180.027 466.972 183.529 459.139 185.651C337.996 218.045 75.1637 332.309 1.12476 721.295Z"/></g><g filter="url(#filter1_d)"><path fill="#FBFDFF" d="M1.19857 727C1.19857 727 57.242 182.496 445 0.375201L0 -1C0 -1 1.03325 474.261 1.19857 727Z"/></g><g filter="url(#filter2_df)"><path stroke="#D4D5D7" stroke-opacity=".4" stroke-width="2" d="M1.20877 722.578C1.20877 722.578 57.7283 181.381 448.78 0.366699"/></g><defs><filter id="filter0_d" width="580.875" height="801.301" x="-38.875" y="-10.006" color-interpolation-filters="sRGB" filterUnits="userSpaceOnUse"><feFlood flood-opacity="0" result="BackgroundImageFix"/><feColorMatrix in="SourceAlpha" type="matrix" values="0 0 0 0 0 0 0 0 0 0 0 0 0 0 0 0 0 0 127 0"/><feOffset dy="30"/><feGaussianBlur stdDeviation="20"/><feColorMatrix type="matrix" values="0 0 0 0 0 0 0 0 0 0 0 0 0 0 0 0 0 0 0.2 0"/><feBlend in2="BackgroundImageFix" mode="normal" result="effect1_dropShadow"/><feBlend in="SourceGraphic" in2="effect1_dropShadow" mode="normal" result="shape"/></filter><filter id="filter1_d" width="525" height="808" x="-40" y="-1" color-interpolation-filters="sRGB" filterUnits="userSpaceOnUse"><feFlood flood-opacity="0" result="BackgroundImageFix"/><feColorMatrix in="SourceAlpha" type="matrix" values="0 0 0 0 0 0 0 0 0 0 0 0 0 0 0 0 0 0 127 0"/><feOffset dy="40"/><feGaussianBlur stdDeviation="20"/><feColorMatrix type="matrix" values="0 0 0 0 0 0 0 0 0 0 0 0 0 0 0 0 0 0 0.2 0"/><feBlend in2="BackgroundImageFix" mode="normal" result="effect1_dropShadow"/><feBlend in="SourceGraphic" in2="effect1_dropShadow" mode="normal" result="shape"/></filter><filter id="filter2_df" width="468.986" height="743.219" x="-9.785" y="-10.541" color-interpolation-filters="sRGB" filterUnits="userSpaceOnUse"><feFlood flood-opacity="0" result="BackgroundImageFix"/><feColorMatrix in="SourceAlpha" type="matrix" values="0 0 0 0 0 0 0 0 0 0 0 0 0 0 0 0 0 0 127 0"/><feOffset/><feGaussianBlur stdDeviation="5"/><feColorMatrix type="matrix" values="0 0 0 0 0 0 0 0 0 0 0 0 0 0 0 0 0 0 0.5 0"/><feBlend in2="BackgroundImageFix" mode="normal" result="effect1_dropShadow"/><feBlend in="SourceGraphic" in2="effect1_dropShadow" mode="normal" result="shape"/><feGaussianBlur result="effect2_foregroundBlur" stdDeviation="5"/></filter><linearGradient id="paint0_linear" x1="665.86" x2="848.914" y1="-237.057" y2="287.71" gradientUnits="userSpaceOnUse"><stop stop-color="#5B86E5"/><stop offset="1" stop-color="#36D1DC"/></linearGradient></defs></svg>