<svg width="2934" height="1810" viewBox="0 0 2934 1810" fill="none" xmlns="http://www.w3.org/2000/svg">
<g filter="url(#filter0_ii)">
<path d="M439.09 1808.78C351.062 1819.49 238.027 1724.77 238.027 1724.77H218.521C218.521 1724.77 -273.151 473.517 218.521 465.606C280.614 464.607 316.722 499.721 376.57 483.145C498.192 449.461 290.543 372.83 515.614 191.432C740.685 10.0351 766.498 221 716.677 315.134C688.169 369 634.081 444.37 688.169 483.145C738.599 519.299 836.215 425.449 836.215 425.449C836.215 425.449 898.946 373.482 946.75 372.83C995.969 372.158 1034.65 422.688 1061.29 425.449C1100.36 429.5 1133.31 403.755 1166.82 315.134C1200.33 226.512 1313.86 234 1382.39 270.823C1450.91 307.646 1489.41 378.842 1573.95 372.83C1660.19 366.696 1665 248.814 1751 239.897C1829.14 231.796 1842.03 315.134 1937.56 315.134C2033.09 315.134 2019.09 147.122 2091.11 58.9617C2163.13 -29.1984 2272.67 -25.0442 2320.68 116.197C2368.7 257.437 2491.36 358.694 2627.28 315.134C2722.82 284.514 2694.3 182.663 2789.83 116.197C2866.26 63.0235 2885.86 270.823 2885.86 270.823C2885.86 270.823 2992.9 1561.07 2885.86 1649.54C2778.83 1738 2560.96 1876.91 2545.75 1724.77C2530.55 1572.64 2408.71 1558.3 2349.69 1570.14C2333.69 1603.99 2273.87 1674.37 2162.63 1685.08C2051.4 1695.78 2045.18 1575.23 2019.09 1481.52C1997.36 1403.5 1929.96 1298.74 1899.55 1379.98C1861.54 1481.52 1794.36 1500.5 1751 1455.21C1737.44 1441.05 1736.5 1397.98 1712.49 1335.67C1693.29 1285.82 1657.36 1278.43 1611.96 1278.43C1544.63 1278.43 1520.13 1340.1 1458.91 1357.82C1397.69 1375.55 1365.86 1326.5 1315.37 1335.67C1254.09 1346.79 1215.91 1393.43 1209.83 1455.21C1200.36 1551.5 1100.36 1560 1080.36 1521.5C1060.36 1483 1039.86 1445 1002.36 1455.21C964.861 1465.43 950.861 1497.5 946.75 1570.14C943.737 1623.38 944.252 1677.31 903.236 1724.77C872.361 1760.5 827.039 1762.12 788.7 1724.77C750.361 1687.43 742.361 1665.5 688.169 1649.54C633.976 1633.57 598.64 1687.85 592.138 1724.77C577.8 1748.31 527.118 1798.07 439.09 1808.78Z" fill="url(#paint0_linear)"/>
</g>
<defs>
<filter id="filter0_ii" x="0" y="-4" width="2933.43" height="1817.62" filterUnits="userSpaceOnUse" color-interpolation-filters="sRGB">
<feFlood flood-opacity="0" result="BackgroundImageFix"/>
<feBlend mode="normal" in="SourceGraphic" in2="BackgroundImageFix" result="shape"/>
<feColorMatrix in="SourceAlpha" type="matrix" values="0 0 0 0 0 0 0 0 0 0 0 0 0 0 0 0 0 0 127 0" result="hardAlpha"/>
<feOffset dy="4"/>
<feGaussianBlur stdDeviation="10"/>
<feComposite in2="hardAlpha" operator="arithmetic" k2="-1" k3="1"/>
<feColorMatrix type="matrix" values="0 0 0 0 0 0 0 0 0 0 0 0 0 0 0 0 0 0 0.25 0"/>
<feBlend mode="normal" in2="shape" result="effect1_innerShadow"/>
<feColorMatrix in="SourceAlpha" type="matrix" values="0 0 0 0 0 0 0 0 0 0 0 0 0 0 0 0 0 0 127 0" result="hardAlpha"/>
<feOffset dy="-4"/>
<feGaussianBlur stdDeviation="10"/>
<feComposite in2="hardAlpha" operator="arithmetic" k2="-1" k3="1"/>
<feColorMatrix type="matrix" values="0 0 0 0 0 0 0 0 0 0 0 0 0 0 0 0 0 0 0.25 0"/>
<feBlend mode="normal" in2="effect1_innerShadow" result="effect2_innerShadow"/>
</filter>
<linearGradient id="paint0_linear" x1="1894.36" y1="1634" x2="1152.4" y2="179.638" gradientUnits="userSpaceOnUse">
<stop stop-color="#5B86E5"/>
<stop offset="1" stop-color="#36D1DC"/>
</linearGradient>
</defs>
</svg>
