<svg width="509" height="46" viewBox="0 0 509 46" fill="none" xmlns="http://www.w3.org/2000/svg">
<g filter="url(#filter0_i)">
<path d="M48.6519 0V43.6175H40.6717V14.7812L24.3857 45.1768L7.98017 14.824V43.6602H0V0H7.98017L24.3857 28.943L40.6717 0H48.6519Z" fill="#FBFDFF"/>
<path d="M89.9021 35.0102H70.5355L66.0589 43.5036H57.6066L80.2454 0L102.884 43.5036H94.4213L89.9021 35.0102ZM86.1716 27.9202L80.2454 16.5468L74.2766 27.9726L86.1716 27.9202Z" fill="#FBFDFF"/>
<path d="M130.988 27.8814H120.688V43.4078H112.728V0H120.688V0.106424H138.635C147.234 0.106424 151.285 4.36315 151.285 11.4612V16.5586C151.285 23.082 147.927 27.2004 140.725 27.8601L152.422 43.5036H142.555L130.988 27.8814ZM120.688 20.677H138.017C142.566 20.677 143.324 19.6873 143.324 16.516V11.4186C143.324 8.2261 142.566 7.25769 138.017 7.25769H120.688V20.677Z" fill="#FBFDFF"/>
<path d="M201.474 7.21156H184.464V43.5036H176.485V7.21156H159.475V0H201.474V7.21156Z" fill="#FBFDFF"/>
<path d="M219.586 0V43.5036H211.617V0H219.586Z" fill="#FBFDFF"/>
<path d="M273.169 0V43.5036H265.201L239.507 12.1755V43.5036H231.539V0H239.507L265.201 30.6464V0H273.169Z" fill="#FBFDFF"/>
<path d="M356.159 18.416V25.3968C356.159 31.7795 355.603 43.5036 334.237 43.5036C317.761 43.5036 312.314 38.0901 312.314 21.726C312.314 5.36188 317.761 0 334.237 0C344.406 0 350.346 2.65001 354.019 7.40354L347.397 12.1364C344.952 8.8265 341.153 6.98077 334.541 6.98077C323.763 6.98077 320.206 9.50703 320.206 21.726C320.206 33.9449 323.701 36.5331 334.237 36.5331C346.053 36.5331 347.879 32.9138 348.194 25.3968H331.729V18.416H356.159Z" fill="#FBFDFF"/>
<path d="M387.139 27.9057H376.834V43.429H368.859V0H376.834V0.0745366H394.789C403.382 0.0745366 407.435 4.33332 407.435 11.4455V16.5454C407.435 23.0614 404.086 27.1924 396.87 27.8525L408.572 43.5036H398.712L387.139 27.9057ZM376.834 20.6977H394.172C398.733 20.6977 399.492 19.6969 399.492 16.5347V11.4349C399.492 8.24078 398.733 7.2719 394.172 7.2719H376.834V20.6977Z" fill="#FBFDFF"/>
<path d="M426.989 7.21156V18.2792H451.848V25.4907H426.989V36.292H457.735V43.5036H419.021V0H457.735V7.21156H426.989Z" fill="#FBFDFF"/>
<path d="M490.65 22.6304V43.5036H482.684V22.6304L464.15 0H474.024L486.673 15.4206L499.126 0H509L490.65 22.6304Z" fill="#FBFDFF"/>
</g>
<defs>
<filter id="filter0_i" x="0" y="0" width="510" height="47.1768" filterUnits="userSpaceOnUse" color-interpolation-filters="sRGB">
<feFlood flood-opacity="0" result="BackgroundImageFix"/>
<feBlend mode="normal" in="SourceGraphic" in2="BackgroundImageFix" result="shape"/>
<feColorMatrix in="SourceAlpha" type="matrix" values="0 0 0 0 0 0 0 0 0 0 0 0 0 0 0 0 0 0 127 0" result="hardAlpha"/>
<feOffset dx="1" dy="3"/>
<feGaussianBlur stdDeviation="1"/>
<feComposite in2="hardAlpha" operator="arithmetic" k2="-1" k3="1"/>
<feColorMatrix type="matrix" values="0 0 0 0 0 0 0 0 0 0 0 0 0 0 0 0 0 0 0.25 0"/>
<feBlend mode="normal" in2="shape" result="effect1_innerShadow"/>
</filter>
</defs>
</svg>
