<svg xmlns="http://www.w3.org/2000/svg" width="168" height="71" fill="none" viewBox="0 0 168 71"><g filter="url(#filter0_i)"><path fill="#FBFDFF" d="M29.7802 0V26.6986H24.8955V9.04771L14.9267 27.6531L4.88473 9.07387V26.7248H0V0H4.88473L14.9267 17.7163L24.8955 0H29.7802Z"/><path fill="#FBFDFF" d="M55.0295 21.43H43.1751L40.4349 26.6289H35.2612L49.1186 0L62.976 26.6289H57.7958L55.0295 21.43ZM52.7461 17.0902L49.1186 10.1285L45.4651 17.1222L52.7461 17.0902Z"/><path fill="#FBFDFF" d="M80.1791 17.0665H73.8744V26.5703H69.0017V0H73.8744V0.0651431H84.8595C90.1234 0.0651431 92.6028 2.67072 92.6028 7.0155V10.1357C92.6028 14.1287 90.5476 16.6496 86.139 17.0534L93.2989 26.6289H87.2594L80.1791 17.0665ZM73.8744 12.6565H84.4816C87.266 12.6565 87.7301 12.0508 87.7301 10.1096V6.98944C87.7301 5.03526 87.266 4.44249 84.4816 4.44249H73.8744V12.6565Z"/><path fill="#FBFDFF" d="M123.324 4.41425H112.912V26.6289H108.028V4.41425H97.616V0H123.324V4.41425Z"/><path fill="#FBFDFF" d="M134.41 0V26.6289H129.533V0H134.41Z"/><path fill="#FBFDFF" d="M167.209 0V26.6289H162.332L146.605 7.45269V26.6289H141.727V0H146.605L162.332 18.7589V0H167.209Z"/><path fill="#FBFDFF" d="M49.838 55.2726V59.5456C49.838 63.4525 49.4976 70.6289 36.419 70.6289C26.3339 70.6289 23 67.3153 23 57.2986C23 47.282 26.3339 44 36.419 44C42.6435 44 46.2793 45.6221 48.5276 48.5318L44.4743 51.4288C42.9776 49.4028 40.6522 48.273 36.6053 48.273C30.0082 48.273 27.8306 49.8193 27.8306 57.2986C27.8306 64.778 29.9697 66.3622 36.419 66.3622C43.652 66.3622 44.7698 64.1468 44.9625 59.5456H34.8838V55.2726H49.838Z"/><path fill="#FBFDFF" d="M68.8011 61.0813H62.4934V70.5833H57.6117V44H62.4934V44.0456H73.4838C78.7436 44.0456 81.2243 46.6525 81.2243 51.0059V54.1276C81.2243 58.116 79.1747 60.6447 74.7573 61.0487L81.9207 70.6289H75.8849L68.8011 61.0813ZM62.4934 56.6692H73.1058C75.8982 56.6692 76.3624 56.0566 76.3624 54.1211V50.9994C76.3624 49.0443 75.8982 48.4512 73.1058 48.4512H62.4934V56.6692Z"/><path fill="#FBFDFF" d="M93.1937 48.4143V55.1888H108.41V59.6031H93.1937V66.2147H112.013V70.6289H88.3163V44H112.013V48.4143H93.1937Z"/><path fill="#FBFDFF" d="M132.161 57.8522V70.6289H127.285V57.8522L115.94 44H121.984L129.726 53.4391L137.349 44H143.393L132.161 57.8522Z"/></g><defs><filter id="filter0_i" width="168.209" height="72.629" x="0" y="0" color-interpolation-filters="sRGB" filterUnits="userSpaceOnUse"><feFlood flood-opacity="0" result="BackgroundImageFix"/><feBlend in="SourceGraphic" in2="BackgroundImageFix" mode="normal" result="shape"/><feColorMatrix in="SourceAlpha" result="hardAlpha" type="matrix" values="0 0 0 0 0 0 0 0 0 0 0 0 0 0 0 0 0 0 127 0"/><feOffset dx="1" dy="2"/><feGaussianBlur stdDeviation="1"/><feComposite in2="hardAlpha" k2="-1" k3="1" operator="arithmetic"/><feColorMatrix type="matrix" values="0 0 0 0 0 0 0 0 0 0 0 0 0 0 0 0 0 0 0.25 0"/><feBlend in2="shape" mode="normal" result="effect1_innerShadow"/></filter></defs></svg>