<svg width="18" height="17" viewBox="0 0 18 17" fill="none" xmlns="http://www.w3.org/2000/svg">
<path d="M15.8343 0.019043H2.61757C1.69686 0.019043 0.954346 0.761562 0.954346 1.68229V14.8991C0.954346 15.8199 1.69686 16.5624 2.61757 16.5624H15.8343C16.755 16.5624 17.4975 15.8199 17.4975 14.8991V1.68229C17.4975 0.761562 16.755 0.019043 15.8343 0.019043ZM9.24076 4.97908C11.0525 4.97908 12.5375 6.46412 12.5375 8.27586C12.5375 10.0876 11.0525 11.5727 9.24076 11.5727C7.42904 11.5727 5.94402 10.0876 5.94402 8.27586C5.94402 6.46412 7.42904 4.97908 9.24076 4.97908ZM3.06308 14.8694C2.82547 14.8694 2.64727 14.6912 2.64727 14.4536V7.44424H4.3699C4.28079 7.68185 4.28079 8.03826 4.28079 8.27586C4.28079 11.0083 6.50833 13.2359 9.24076 13.2359C11.9732 13.2359 14.2007 11.0083 14.2007 8.27586C14.2007 8.03826 14.2007 7.71155 14.1116 7.44424H15.8343V14.4536C15.8343 14.6912 15.6561 14.8694 15.4185 14.8694H3.06308ZM15.8343 3.73164C15.8343 3.96925 15.6561 4.14745 15.4185 4.14745H13.7552C13.5176 4.14745 13.3394 3.96925 13.3394 3.73164V2.0684C13.3394 1.83079 13.5176 1.65259 13.7552 1.65259H15.4185C15.6561 1.65259 15.8343 1.83079 15.8343 2.0684V3.73164Z" fill="#333333"/>
</svg>
