<svg xmlns="http://www.w3.org/2000/svg" width="168" height="168" fill="none" viewBox="0 0 168 168"><g clip-path="url(#clip0)" filter="url(#filter0_d)"><path fill="#333" d="M162.304 75.8812L138.49 52.0609C136.221 49.7954 136.929 47.373 140.055 46.669C140.055 46.669 142.637 46.0866 145.818 42.9059C152.647 36.0804 152.64 24.9991 145.818 18.1832C138.986 11.3545 127.921 11.3545 121.089 18.1832C117.908 21.3639 117.329 23.9431 117.329 23.9431C116.625 27.0758 114.196 27.7766 111.934 25.5046L88.1199 1.70352C85.8544 -0.565236 82.1424 -0.565236 79.8769 1.70352L56.0662 25.511C53.8038 27.783 54.5046 30.2117 57.6309 30.9125C57.6309 30.9125 60.2165 31.4949 63.394 34.6693C70.2131 41.4947 70.2227 52.5697 63.394 59.4016C56.5685 66.227 45.4872 66.2206 38.6681 59.4016C35.4906 56.2176 34.9082 53.6353 34.9082 53.6353C34.2074 50.5057 31.7754 49.805 29.5099 52.0705L5.69917 75.8844C3.43361 78.15 3.43361 81.8587 5.69917 84.1211L29.5099 107.935C31.7754 110.201 31.0715 112.629 27.9451 113.333C27.9451 113.333 25.3628 113.919 22.182 117.096C15.3534 123.928 15.3534 134.997 22.182 141.822C29.0075 148.648 40.0793 148.654 46.9079 141.822C50.0919 138.642 50.6679 136.062 50.6679 136.062C51.3718 132.93 53.8006 132.229 56.063 134.504L79.8769 158.305C82.1424 160.574 85.8544 160.574 88.1199 158.305L111.937 134.498C114.203 132.232 113.495 129.797 110.372 129.099C110.372 129.099 107.784 128.517 104.606 125.343C97.7741 118.511 97.7773 107.442 104.606 100.61C111.431 93.7849 122.503 93.7753 129.332 100.61C132.513 103.791 133.089 106.377 133.089 106.377C133.796 109.509 136.221 110.213 138.49 107.948L162.304 84.1275C164.566 81.8555 164.566 78.1468 162.304 75.8812Z"/></g><defs><filter id="filter0_d" width="168" height="168" x="0" y="0" color-interpolation-filters="sRGB" filterUnits="userSpaceOnUse"><feFlood flood-opacity="0" result="BackgroundImageFix"/><feColorMatrix in="SourceAlpha" type="matrix" values="0 0 0 0 0 0 0 0 0 0 0 0 0 0 0 0 0 0 127 0"/><feOffset dy="4"/><feGaussianBlur stdDeviation="2"/><feColorMatrix type="matrix" values="0 0 0 0 0 0 0 0 0 0 0 0 0 0 0 0 0 0 0.25 0"/><feBlend in2="BackgroundImageFix" mode="normal" result="effect1_dropShadow"/><feBlend in="SourceGraphic" in2="effect1_dropShadow" mode="normal" result="shape"/></filter><clipPath id="clip0"><rect width="160" height="160" fill="#fff" transform="translate(4)"/></clipPath></defs></svg>