<svg width="16" height="15" viewBox="0 0 16 15" fill="none" xmlns="http://www.w3.org/2000/svg">
<path d="M16 1.77474C15.4111 2.0759 14.7792 2.28015 14.1153 2.37133C14.7932 1.90282 15.3121 1.1597 15.5581 0.276936C14.9222 0.710806 14.2203 1.02585 13.4724 1.19663C12.8736 0.459276 12.0217 5.70917e-08 11.0769 5.70917e-08C9.26422 5.70917e-08 7.7945 1.69628 7.7945 3.78721C7.7945 4.08376 7.82349 4.3734 7.87949 4.65037C5.15201 4.49225 2.73347 2.98407 1.11477 0.692339C0.831818 1.25086 0.670851 1.90165 0.670851 2.59634C0.670851 3.91068 1.25075 5.07039 2.13059 5.74888C1.59268 5.72812 1.08677 5.55733 0.64387 5.27346V5.32077C0.64387 7.15552 1.77566 8.68678 3.27637 9.03529C3.00142 9.12068 2.71148 9.168 2.41153 9.168C2.19959 9.168 1.99462 9.14377 1.79365 9.0976C2.21156 10.6035 3.42335 11.6986 4.85909 11.7286C3.73629 12.7441 2.32055 13.3476 0.782851 13.3476C0.517909 13.3476 0.256942 13.3291 0 13.2956C1.45273 14.3723 3.17742 15 5.03107 15C11.0689 15 14.3693 9.22801 14.3693 4.22226L14.3583 3.73184C15.0032 3.20099 15.5611 2.53403 16 1.77474Z" fill="url(#paint0_linear)"/>
<defs>
<linearGradient id="paint0_linear" x1="1.19769" y1="0.568181" x2="9.88317" y2="19.9778" gradientUnits="userSpaceOnUse">
<stop stop-color="#47D3FF"/>
<stop offset="1" stop-color="#2195EA"/>
</linearGradient>
</defs>
</svg>
