<svg xmlns="http://www.w3.org/2000/svg" width="94" height="93" fill="none" viewBox="0 0 94 93"><g opacity=".85"><path fill="#fff" d="M30.3732 84.5649L28.6362 88.6388C34.2575 90.9938 40.2913 92.2228 46.3916 92.2551C52.4918 92.2874 58.5385 91.1225 64.1847 88.8271L62.5235 84.747C57.4174 86.8256 51.9479 87.8797 46.43 87.8485C40.9122 87.8172 35.4552 86.7013 30.3732 84.5649Z"/><path fill="#fff" d="M7.75361 61.8668L3.6543 63.524C5.95646 69.1366 9.34946 74.2432 13.6392 78.5516C17.929 82.8599 23.0313 86.2856 28.6544 88.6326L30.3598 84.5901C25.2737 82.4652 20.659 79.3645 16.78 75.4654C12.901 71.5663 9.83366 66.9453 7.75361 61.8668Z"/><path fill="#fff" d="M30.7581 7.49451L29.0843 3.42065C23.4336 5.70021 18.2923 9.06773 13.9563 13.3295C9.62024 17.5912 6.17501 22.663 3.81885 28.2529L7.89289 29.9603C10.025 24.9022 13.143 20.3131 17.0672 16.4574C20.9914 12.6018 25.6443 9.55566 30.7581 7.49451Z"/><path fill="#fff" d="M7.90562 29.9415L3.83158 28.2529C1.46756 33.8374 0.237721 39.8313 0.212789 45.8898C0.187857 51.9483 1.36832 57.9519 3.6863 63.5554L7.79193 61.8794C5.68351 56.8132 4.60788 51.3815 4.6274 45.8991C4.64691 40.4167 5.76118 34.9927 7.90562 29.9415Z"/><path fill="#fff" d="M85.376 62.2938L89.45 63.9949C91.8156 58.4119 93.0462 52.4189 93.0712 46.3612C93.0961 40.3034 91.9148 34.3007 89.5953 28.6986L85.4834 30.3558C87.5928 35.4216 88.6695 40.8531 88.651 46.3355C88.6326 51.8179 87.5194 57.2421 85.376 62.2938Z"/><path fill="#fff" d="M30.7641 7.48813C35.8687 5.40799 41.3374 4.35309 46.8544 4.38434C52.3714 4.41558 57.8276 5.53234 62.908 7.67017L64.6387 3.62775C59.0167 1.26771 52.9806 0.0355572 46.8777 0.00216237C40.7748 -0.0312325 34.7255 1.13479 29.0776 3.43316L30.7452 7.49441L30.7641 7.48813Z"/><path fill="#fff" d="M85.534 30.3746L89.6333 28.7112C87.3311 23.098 83.939 17.9905 79.6505 13.6802C75.3621 9.36989 70.2613 5.94126 64.6395 3.59009L62.9277 7.63884C68.0142 9.7666 72.6287 12.8698 76.5077 16.7709C80.3866 20.6721 83.4538 25.2947 85.534 30.3746Z"/><path fill="#fff" d="M62.5293 84.747L64.2031 88.8271C69.8511 86.5483 74.9906 83.1831 79.3264 78.9249C83.6621 74.6667 87.1088 69.5993 89.4685 64.0137L85.3882 62.3126C83.2533 67.3644 80.1348 71.9471 76.2118 75.7971C72.2889 79.6472 67.639 82.6888 62.5293 84.747Z"/><g opacity=".75"><path fill="#6CB380" d="M30.3732 84.5649L28.6362 88.6388C34.2575 90.9938 40.2913 92.2228 46.3916 92.2551C52.4918 92.2874 58.5385 91.1225 64.1847 88.8271L62.5235 84.747C57.4174 86.8256 51.9479 87.8797 46.43 87.8485C40.9122 87.8172 35.4552 86.7013 30.3732 84.5649Z" opacity=".75"/><path fill="#84CD89" d="M7.75361 61.8668L3.6543 63.524C5.95646 69.1366 9.34946 74.2432 13.6392 78.5516C17.929 82.8599 23.0313 86.2856 28.6544 88.6326L30.3598 84.5901C25.2737 82.4652 20.659 79.3645 16.78 75.4654C12.901 71.5663 9.83366 66.9453 7.75361 61.8668Z" opacity=".75"/><path fill="#93A074" d="M30.7581 7.49451L29.0843 3.42065C23.4336 5.70021 18.2923 9.06773 13.9563 13.3295C9.62024 17.5912 6.17501 22.663 3.81885 28.2529L7.89289 29.9603C10.025 24.9022 13.143 20.3131 17.0672 16.4574C20.9914 12.6018 25.6443 9.55566 30.7581 7.49451Z" opacity=".75"/><path fill="#DCDDD8" d="M7.90562 29.9415L3.83158 28.2529C1.46756 33.8374 0.237721 39.8313 0.212789 45.8898C0.187857 51.9483 1.36832 57.9519 3.6863 63.5554L7.79193 61.8794C5.68351 56.8132 4.60788 51.3815 4.6274 45.8991C4.64691 40.4167 5.76118 34.9927 7.90562 29.9415Z" opacity=".75"/><path fill="#CFDCB2" d="M85.376 62.2938L89.45 63.9949C91.8156 58.4119 93.0462 52.4189 93.0712 46.3612C93.0961 40.3034 91.9148 34.3007 89.5953 28.6986L85.4834 30.3558C87.5928 35.4216 88.6695 40.8531 88.651 46.3355C88.6326 51.8179 87.5194 57.2421 85.376 62.2938Z" opacity=".75"/><path fill="#C2C1C6" d="M30.7641 7.48813C35.8687 5.40799 41.3374 4.35309 46.8544 4.38434C52.3714 4.41558 57.8276 5.53234 62.908 7.67017L64.6387 3.62775C59.0167 1.26771 52.9806 0.0355572 46.8777 0.00216237C40.7748 -0.0312325 34.7255 1.13479 29.0776 3.43316L30.7452 7.49441L30.7641 7.48813Z" opacity=".75"/><path fill="#C6CECD" d="M85.534 30.3746L89.6333 28.7112C87.3311 23.098 83.939 17.9905 79.6505 13.6802C75.3621 9.36989 70.2613 5.94126 64.6395 3.59009L62.9277 7.63884C68.0142 9.7666 72.6287 12.8698 76.5077 16.7709C80.3866 20.6721 83.4538 25.2947 85.534 30.3746Z" opacity=".75"/><path fill="#9FC57C" d="M62.5293 84.747L64.2031 88.8271C69.8511 86.5483 74.9906 83.1831 79.3264 78.9249C83.6621 74.6667 87.1088 69.5993 89.4685 64.0137L85.3882 62.3126C83.2533 67.3644 80.1348 71.9471 76.2118 75.7971C72.2889 79.6472 67.639 82.6888 62.5293 84.747Z" opacity=".75"/></g><path fill="#84CD89" d="M30.9038 52.4889L7.75439 61.8606C9.83341 66.9419 12.9025 71.5648 16.7854 75.4633C20.6682 79.3619 25.2881 82.4593 30.3796 84.5775L40.2141 61.302C38.1455 60.5309 36.2548 59.3529 34.655 57.8386C33.0552 56.3243 31.7794 54.5047 30.9038 52.4889Z"/><path fill="#6CB380" d="M52.543 61.1324C48.603 62.7403 44.1951 62.7986 40.2135 61.2956L30.3789 84.565C35.4589 86.7039 40.9149 87.8217 46.4319 87.854C51.9489 87.8863 57.4178 86.8325 62.5228 84.7533L52.7704 61.0446L52.543 61.1324Z"/><path fill="#DCDDD8" d="M30.7963 52.2064C29.967 50.195 29.5521 48.0387 29.5759 45.8651C29.5998 43.6915 30.062 41.5447 30.9353 39.5517L7.90587 29.9226C5.76619 34.9773 4.65454 40.4029 4.63503 45.8866C4.61551 51.3703 5.68852 56.8036 7.79217 61.8732L30.9163 52.4951C30.8721 52.3947 30.8342 52.3068 30.7963 52.2064Z"/><path fill="#9FC57C" d="M52.7769 61.032L62.5293 84.7469C67.6399 82.6906 72.2897 79.6481 76.21 75.7952C80.1303 71.9424 83.2433 67.3556 85.3692 62.3L61.6134 52.3696C59.8982 56.2788 56.7336 59.3811 52.7769 61.032Z"/><path fill="#CFDCB2" d="M61.6196 52.3696L85.3754 62.3001C87.5125 57.2488 88.6253 51.8281 88.6503 46.3486C88.6752 40.8691 87.6117 35.4385 85.5207 30.3683L61.9039 39.9284C62.686 41.9179 63.0636 44.0418 63.0148 46.1773C62.9661 48.3127 62.4918 50.4174 61.6196 52.3696Z"/><path fill="#93A074" d="M30.922 39.5518C32.6631 35.5353 35.9264 32.3622 40.0049 30.7198L40.2323 30.6257L30.7262 7.48193C25.6157 9.53717 20.9662 12.5794 17.0468 16.4324C13.1274 20.2854 10.016 24.8728 7.89258 29.9289L30.922 39.5518Z"/><path fill="#C2C1C6" d="M53.1114 30.8453L62.9081 7.6702C57.8261 5.5391 52.3708 4.42549 46.855 4.39318C41.3392 4.36087 35.8711 5.41048 30.7642 7.48189L40.2766 30.6131C44.417 28.9985 49.0329 29.082 53.1114 30.8453Z"/><path fill="#C6CECD" d="M61.7968 39.6458C61.8347 39.7463 61.8726 39.8341 61.9168 39.9346L85.5274 30.3745C83.4514 25.2932 80.384 20.6704 76.5019 16.7726C72.6199 12.8748 68 9.77913 62.9085 7.66394L53.1118 30.839C57.0516 32.5369 60.1681 35.6971 61.7968 39.6458Z"/><path fill="#DAEFDC" d="M59.769 40.462C58.7124 37.7896 56.88 35.49 54.5047 33.8554C52.1295 32.2208 49.3187 31.3251 46.4298 31.2823C43.541 31.2394 40.7046 32.0513 38.2813 33.6148C35.858 35.1782 33.9573 37.4225 32.821 40.0623C31.6846 42.7021 31.3638 45.6181 31.8995 48.4396C32.4352 51.261 33.8032 53.8604 35.8294 55.9071C37.8556 57.9539 40.4485 59.3556 43.2784 59.934C46.1084 60.5124 49.0475 60.2413 51.722 59.1552C55.2729 57.7239 58.111 54.9562 59.6182 51.4551C61.1254 47.9539 61.1796 44.0027 59.769 40.462Z"/></g></svg>