<svg xmlns="http://www.w3.org/2000/svg" width="94" height="93" fill="none" viewBox="0 0 94 93"><g opacity=".85"><path fill="#fff" d="M30.5446 84.5649L28.8076 88.6388C34.4289 90.9938 40.4627 92.2228 46.563 92.2551C52.6632 92.2874 58.7099 91.1225 64.3561 88.8271L62.6949 84.747C57.5888 86.8256 52.1193 87.8797 46.6014 87.8485C41.0836 87.8172 35.6266 86.7013 30.5446 84.5649Z"/><path fill="#fff" d="M7.925 61.8668L3.82568 63.524C6.12785 69.1366 9.52084 74.2432 13.8106 78.5516C18.1004 82.8599 23.2027 86.2856 28.8258 88.6326L30.5312 84.5901C25.4451 82.4652 20.8304 79.3645 16.9514 75.4654C13.0724 71.5663 10.005 66.9453 7.925 61.8668Z"/><path fill="#fff" d="M30.9295 7.49451L29.2557 3.42065C23.605 5.70021 18.4637 9.06773 14.1277 13.3295C9.79162 17.5912 6.34639 22.663 3.99023 28.2529L8.06428 29.9603C10.1964 24.9022 13.3144 20.3131 17.2386 16.4574C21.1628 12.6018 25.8157 9.55566 30.9295 7.49451Z"/><path fill="#fff" d="M8.07701 29.9415L4.00296 28.2529C1.63894 33.8374 0.409108 39.8313 0.384176 45.8898C0.359244 51.9483 1.53971 57.9519 3.85769 63.5554L7.96332 61.8794C5.85489 56.8132 4.77927 51.3815 4.79878 45.8991C4.8183 40.4167 5.93257 34.9927 8.07701 29.9415Z"/><path fill="#fff" d="M85.5479 62.2938L89.6219 63.9949C91.9874 58.4119 93.2181 52.4189 93.243 46.3612C93.268 40.3034 92.0867 34.3007 89.7672 28.6986L85.6552 30.3558C87.7646 35.4216 88.8413 40.8531 88.8229 46.3355C88.8045 51.8179 87.6913 57.2421 85.5479 62.2938Z"/><path fill="#fff" d="M30.9355 7.48813C36.0401 5.40799 41.5087 4.35309 47.0258 4.38434C52.5428 4.41558 57.999 5.53234 63.0794 7.67017L64.8101 3.62775C59.1881 1.26771 53.152 0.0355572 47.0491 0.00216237C40.9462 -0.0312325 34.8968 1.13479 29.249 3.43316L30.9165 7.49441L30.9355 7.48813Z"/><path fill="#fff" d="M85.7049 30.3746L89.8042 28.7112C87.5021 23.098 84.1099 17.9905 79.8214 13.6802C75.533 9.36989 70.4322 5.94126 64.8104 3.59009L63.0986 7.63884C68.1851 9.7666 72.7996 12.8698 76.6786 16.7709C80.5575 20.6721 83.6247 25.2947 85.7049 30.3746Z"/><path fill="#fff" d="M62.7012 84.747L64.375 88.8271C70.023 86.5483 75.1625 83.1831 79.4982 78.9249C83.834 74.6667 87.2807 69.5993 89.6404 64.0137L85.5601 62.3126C83.4252 67.3644 80.3067 71.9471 76.3837 75.7971C72.4608 79.6472 67.8109 82.6888 62.7012 84.747Z"/><g opacity=".75"><path fill="#EEA834" d="M30.5446 84.5649L28.8076 88.6388C34.4289 90.9938 40.4627 92.2228 46.563 92.2551C52.6632 92.2874 58.7099 91.1225 64.3561 88.8271L62.6949 84.747C57.5888 86.8256 52.1193 87.8797 46.6014 87.8485C41.0836 87.8172 35.6266 86.7013 30.5446 84.5649Z" opacity=".75"/><path fill="#FF1D97" d="M7.925 61.8668L3.82568 63.524C6.12785 69.1366 9.52084 74.2432 13.8106 78.5516C18.1004 82.8599 23.2027 86.2856 28.8258 88.6326L30.5312 84.5901C25.4451 82.4652 20.8304 79.3645 16.9514 75.4654C13.0724 71.5663 10.005 66.9453 7.925 61.8668Z" opacity=".75"/><path fill="#770C2B" d="M30.9295 7.49451L29.2557 3.42065C23.605 5.70021 18.4637 9.06773 14.1277 13.3295C9.79162 17.5912 6.34639 22.663 3.99023 28.2529L8.06428 29.9603C10.1964 24.9022 13.3144 20.3131 17.2386 16.4574C21.1628 12.6018 25.8157 9.55566 30.9295 7.49451Z" opacity=".75"/><path fill="#FF9314" d="M8.07701 29.9415L4.00296 28.2529C1.63894 33.8374 0.409108 39.8313 0.384176 45.8898C0.359244 51.9483 1.53971 57.9519 3.85769 63.5554L7.96332 61.8794C5.85489 56.8132 4.77927 51.3815 4.79878 45.8991C4.8183 40.4167 5.93257 34.9927 8.07701 29.9415Z" opacity=".75"/><path fill="#464E6E" d="M85.5479 62.2938L89.6219 63.9949C91.9874 58.4119 93.2181 52.4189 93.243 46.3612C93.268 40.3034 92.0867 34.3007 89.7672 28.6986L85.6552 30.3558C87.7646 35.4216 88.8413 40.8531 88.8229 46.3355C88.8045 51.8179 87.6913 57.2421 85.5479 62.2938Z" opacity=".75"/><path fill="#291F43" d="M30.9355 7.48813C36.0401 5.40799 41.5087 4.35309 47.0258 4.38434C52.5428 4.41558 57.999 5.53234 63.0794 7.67017L64.8101 3.62775C59.1881 1.26771 53.152 0.0355572 47.0491 0.00216237C40.9462 -0.0312325 34.8968 1.13479 29.249 3.43316L30.9165 7.49441L30.9355 7.48813Z" opacity=".75"/><path fill="#E03259" d="M85.7049 30.3746L89.8042 28.7112C87.5021 23.098 84.1099 17.9905 79.8214 13.6802C75.533 9.36989 70.4322 5.94126 64.8104 3.59009L63.0986 7.63884C68.1851 9.7666 72.7996 12.8698 76.6786 16.7709C80.5575 20.6721 83.6247 25.2947 85.7049 30.3746Z" opacity=".75"/><path fill="#8C3BCA" d="M62.7012 84.747L64.375 88.8271C70.023 86.5483 75.1625 83.1831 79.4982 78.9249C83.834 74.6667 87.2807 69.5993 89.6404 64.0137L85.5601 62.3126C83.4252 67.3644 80.3067 71.9471 76.3837 75.7971C72.4608 79.6472 67.8109 82.6888 62.7012 84.747Z" opacity=".75"/></g><path fill="#FF1D97" d="M31.0752 52.4889L7.92578 61.8606C10.0048 66.9419 13.0739 71.5648 16.9568 75.4633C20.8396 79.3619 25.4595 82.4593 30.551 84.5775L40.3855 61.302C38.3169 60.5309 36.4261 59.3529 34.8264 57.8386C33.2266 56.3243 31.9508 54.5047 31.0752 52.4889Z"/><path fill="#EEA834" d="M52.7144 61.1324C48.7744 62.7403 44.3665 62.7986 40.3849 61.2956L30.5503 84.565C35.6303 86.7039 41.0863 87.8217 46.6033 87.854C52.1203 87.8863 57.5892 86.8325 62.6942 84.7533L52.9418 61.0446L52.7144 61.1324Z"/><path fill="#FF9314" d="M30.9672 52.2064C30.1379 50.195 29.723 48.0387 29.7468 45.8651C29.7707 43.6915 30.2329 41.5447 31.1062 39.5517L8.07677 29.9226C5.93709 34.9773 4.82544 40.4029 4.80593 45.8866C4.78641 51.3703 5.85942 56.8036 7.96307 61.8732L31.0873 52.4951C31.043 52.3947 31.0051 52.3068 30.9672 52.2064Z"/><path fill="#8C3BCA" d="M52.9482 61.032L62.7007 84.7469C67.8112 82.6906 72.461 79.6481 76.3813 75.7952C80.3016 71.9424 83.4147 67.3556 85.5406 62.3L61.7848 52.3696C60.0696 56.2788 56.9049 59.3811 52.9482 61.032Z"/><path fill="#464E6E" d="M61.791 52.3696L85.5468 62.3001C87.6838 57.2488 88.7967 51.8281 88.8216 46.3486C88.8466 40.8691 87.7831 35.4385 85.6921 30.3683L62.0752 39.9284C62.8574 41.9179 63.235 44.0418 63.1862 46.1773C63.1374 48.3127 62.6632 50.4174 61.791 52.3696Z"/><path fill="#770C2B" d="M31.0934 39.5518C32.8345 35.5353 36.0978 32.3622 40.1763 30.7198L40.4037 30.6257L30.8976 7.48193C25.7871 9.53717 21.1376 12.5794 17.2182 16.4324C13.2988 20.2854 10.1874 24.8728 8.06396 29.9289L31.0934 39.5518Z"/><path fill="#291F43" d="M53.2828 30.8453L63.0795 7.6702C57.9975 5.5391 52.5422 4.42549 47.0264 4.39318C41.5106 4.36087 36.0425 5.41048 30.9355 7.48189L40.448 30.6131C44.5884 28.9985 49.2043 29.082 53.2828 30.8453Z"/><path fill="#E03259" d="M61.9682 39.6458C62.0061 39.7463 62.044 39.8341 62.0882 39.9346L85.6987 30.3745C83.6227 25.2932 80.5553 20.6704 76.6733 16.7726C72.7913 12.8748 68.1714 9.77913 63.0799 7.66394L53.2832 30.839C57.223 32.5369 60.3394 35.6971 61.9682 39.6458Z"/><path fill="#DAEFDC" d="M59.9404 40.462C58.8838 37.7896 57.0514 35.49 54.6761 33.8554C52.3008 32.2208 49.4901 31.3251 46.6012 31.2823C43.7124 31.2394 40.876 32.0513 38.4527 33.6148C36.0294 35.1782 34.1287 37.4225 32.9923 40.0623C31.856 42.7021 31.5352 45.6181 32.0709 48.4396C32.6066 51.261 33.9745 53.8604 36.0007 55.9071C38.0269 57.9539 40.6199 59.3556 43.4498 59.934C46.2798 60.5124 49.2189 60.2413 51.8934 59.1552C55.4443 57.7239 58.2824 54.9562 59.7896 51.4551C61.2968 47.9539 61.351 44.0027 59.9404 40.462Z"/></g></svg>