<svg xmlns="http://www.w3.org/2000/svg" width="94" height="93" fill="none" viewBox="0 0 94 93"><g opacity=".85"><path fill="#fff" d="M30.7165 84.5651L28.9795 88.6389C34.6007 90.9939 40.6346 92.2228 46.7348 92.2551C52.8351 92.2874 58.8817 91.1225 64.5279 88.8272L62.8667 84.7471C57.7606 86.8257 52.2911 87.8798 46.7733 87.8486C41.2555 87.8173 35.7984 86.7014 30.7165 84.5651Z"/><path fill="#fff" d="M8.09736 61.8669L3.99805 63.5241C6.30021 69.1367 9.6932 74.2433 13.983 78.5516C18.2727 82.86 23.3751 86.2856 28.9982 88.6326L30.7036 84.5901C25.6174 82.4653 21.0028 79.3646 17.1237 75.4655C13.2447 71.5664 10.1774 66.9454 8.09736 61.8669Z"/><path fill="#fff" d="M31.1013 7.49451L29.4275 3.42065C23.7769 5.70021 18.6356 9.06773 14.2995 13.3295C9.9635 17.5912 6.51827 22.663 4.16211 28.2529L8.23616 29.9603C10.3683 24.9022 13.4862 20.3131 17.4105 16.4574C21.3347 12.6018 25.9876 9.55566 31.1013 7.49451Z"/><path fill="#fff" d="M8.2489 29.9415L4.17485 28.2529C1.81082 33.8374 0.580983 39.8313 0.556051 45.8898C0.531119 51.9483 1.71159 57.9519 4.02957 63.5554L8.13521 61.8794C6.02678 56.8132 4.95115 51.3815 4.97067 45.8991C4.99018 40.4167 6.10446 34.9927 8.2489 29.9415Z"/><path fill="#fff" d="M85.7197 62.2938L89.7937 63.9949C92.1593 58.4119 93.3899 52.4189 93.4149 46.3612C93.4398 40.3034 92.2585 34.3007 89.939 28.6986L85.8271 30.3558C87.9365 35.4216 89.0132 40.8531 88.9948 46.3355C88.9763 51.8179 87.8632 57.2421 85.7197 62.2938Z"/><path fill="#fff" d="M31.1074 7.48825C36.212 5.40807 41.6806 4.35316 47.1977 4.38441C52.7147 4.41565 58.1709 5.53243 63.2513 7.67029L64.982 3.62781C59.36 1.26773 53.3239 0.0355578 47.221 0.00216239C41.1181 -0.031233 35.0687 1.13481 29.4209 3.43321L31.0884 7.49453L31.1074 7.48825Z"/><path fill="#fff" d="M85.8767 30.3746L89.976 28.7112C87.6739 23.098 84.2817 17.9905 79.9933 13.6802C75.7048 9.36989 70.6041 5.94126 64.9822 3.59009L63.2705 7.63884C68.3569 9.7666 72.9715 12.8698 76.8504 16.7709C80.7294 20.6721 83.7966 25.2947 85.8767 30.3746Z"/><path fill="#fff" d="M62.873 84.747L64.5469 88.8271C70.1949 86.5483 75.3343 83.1831 79.6701 78.9249C84.0058 74.6667 87.4525 69.5993 89.8123 64.0137L85.7319 62.3126C83.597 67.3644 80.4785 71.9471 76.5556 75.7971C72.6327 79.6472 67.9827 82.6888 62.873 84.747Z"/><g opacity=".75"><path fill="#6CB4AF" d="M30.7165 84.5651L28.9795 88.6389C34.6007 90.9939 40.6346 92.2228 46.7348 92.2551C52.8351 92.2874 58.8817 91.1225 64.5279 88.8272L62.8667 84.7471C57.7606 86.8257 52.2911 87.8798 46.7733 87.8486C41.2555 87.8173 35.7984 86.7014 30.7165 84.5651Z" opacity=".75"/><path fill="#EED19D" d="M8.09736 61.8669L3.99805 63.5241C6.30021 69.1367 9.6932 74.2433 13.983 78.5516C18.2727 82.86 23.3751 86.2856 28.9982 88.6326L30.7036 84.5901C25.6174 82.4653 21.0028 79.3646 17.1237 75.4655C13.2447 71.5664 10.1774 66.9454 8.09736 61.8669Z" opacity=".75"/><path fill="#8495C0" d="M31.1013 7.49451L29.4275 3.42065C23.7769 5.70021 18.6356 9.06773 14.2995 13.3295C9.9635 17.5912 6.51827 22.663 4.16211 28.2529L8.23616 29.9603C10.3683 24.9022 13.4862 20.3131 17.4105 16.4574C21.3347 12.6018 25.9876 9.55566 31.1013 7.49451Z" opacity=".75"/><path fill="#FF9314" d="M8.2489 29.9415L4.17485 28.2529C1.81082 33.8374 0.580983 39.8313 0.556051 45.8898C0.531119 51.9483 1.71159 57.9519 4.02957 63.5554L8.13521 61.8794C6.02678 56.8132 4.95115 51.3815 4.97067 45.8991C4.99018 40.4167 6.10446 34.9927 8.2489 29.9415Z" opacity=".75"/><path fill="#383139" d="M85.7197 62.2938L89.7937 63.9949C92.1593 58.4119 93.3899 52.4189 93.4149 46.3612C93.4398 40.3034 92.2585 34.3007 89.939 28.6986L85.8271 30.3558C87.9365 35.4216 89.0132 40.8531 88.9948 46.3355C88.9763 51.8179 87.8632 57.2421 85.7197 62.2938Z" opacity=".75"/><path fill="#EA8F8F" d="M31.1074 7.48825C36.212 5.40807 41.6806 4.35316 47.1977 4.38441C52.7147 4.41565 58.1709 5.53243 63.2513 7.67029L64.982 3.62781C59.36 1.26773 53.3239 0.0355578 47.221 0.00216239C41.1181 -0.031233 35.0687 1.13481 29.4209 3.43321L31.0884 7.49453L31.1074 7.48825Z" opacity=".75"/><path fill="#837982" d="M85.8767 30.3746L89.976 28.7112C87.6739 23.098 84.2817 17.9905 79.9933 13.6802C75.7048 9.36989 70.6041 5.94126 64.9822 3.59009L63.2705 7.63884C68.3569 9.7666 72.9715 12.8698 76.8504 16.7709C80.7294 20.6721 83.7966 25.2947 85.8767 30.3746Z" opacity=".75"/><path fill="#386CA7" d="M62.873 84.747L64.5469 88.8271C70.1949 86.5483 75.3343 83.1831 79.6701 78.9249C84.0058 74.6667 87.4525 69.5993 89.8123 64.0137L85.7319 62.3126C83.597 67.3644 80.4785 71.9471 76.5556 75.7971C72.6327 79.6472 67.9827 82.6888 62.873 84.747Z" opacity=".75"/></g><path fill="#EED19D" d="M31.2471 52.4889L8.09766 61.8606C10.1767 66.9419 13.2458 71.5648 17.1286 75.4633C21.0115 79.3619 25.6314 82.4593 30.7228 84.5775L40.5574 61.302C38.4888 60.5309 36.598 59.3529 34.9983 57.8386C33.3985 56.3243 32.1227 54.5047 31.2471 52.4889Z"/><path fill="#6CB4AF" d="M52.8867 61.1326C48.9468 62.7404 44.5389 62.7987 40.5572 61.2958L30.7227 84.565C35.8027 86.7039 41.2586 87.8217 46.7757 87.854C52.2927 87.8863 57.7615 86.8325 62.8666 84.7533L53.1141 61.0447L52.8867 61.1326Z"/><path fill="#FF9314" d="M31.1391 52.2064C30.3098 50.195 29.8948 48.0387 29.9187 45.8651C29.9425 43.6915 30.4048 41.5447 31.278 39.5517L8.24864 29.9226C6.10896 34.9773 4.99731 40.4029 4.9778 45.8866C4.95829 51.3703 6.03129 56.8036 8.13494 61.8732L31.2591 52.4951C31.2149 52.3947 31.177 52.3068 31.1391 52.2064Z"/><path fill="#386CA7" d="M53.1201 61.0321L62.8726 84.7471C67.9831 82.6907 72.6329 79.6482 76.5532 75.7953C80.4735 71.9425 83.5866 67.3557 85.7125 62.3L61.9567 52.3696C60.2415 56.2788 57.0768 59.3811 53.1201 61.0321Z"/><path fill="#383139" d="M61.9629 52.3697L85.7187 62.3C87.8557 57.2488 88.9686 51.8281 88.9935 46.3486C89.0185 40.8691 87.955 35.4386 85.864 30.3684L62.2471 39.9284C63.0293 41.918 63.4069 44.0419 63.3581 46.1773C63.3093 48.3128 62.8351 50.4174 61.9629 52.3697Z"/><path fill="#8495C0" d="M31.2658 39.5518C33.0069 35.5353 36.2702 32.3622 40.3487 30.7198L40.5761 30.6257L31.07 7.48193C25.9595 9.53717 21.31 12.5794 17.3906 16.4324C13.4712 20.2854 10.3597 24.8728 8.23633 29.9289L31.2658 39.5518Z"/><path fill="#EA8F8F" d="M53.4547 30.8453L63.2513 7.6702C58.1693 5.5391 52.7141 4.42549 47.1982 4.39318C41.6824 4.36087 36.2144 5.41048 31.1074 7.48189L40.6198 30.6131C44.7603 28.9985 49.3761 29.082 53.4547 30.8453Z"/><path fill="#837982" d="M62.1401 39.6459C62.178 39.7464 62.2159 39.8343 62.2601 39.9347L85.8706 30.3746C83.7947 25.2933 80.7273 20.6705 76.8452 16.7727C72.9632 12.8749 68.3433 9.77914 63.2518 7.66394L53.4551 30.8391C57.3948 32.537 60.5113 35.6972 62.1401 39.6459Z"/><path fill="#DAEFDC" d="M60.1123 40.462C59.0557 37.7896 57.2232 35.49 54.848 33.8554C52.4727 32.2208 49.662 31.3251 46.7731 31.2823C43.8843 31.2394 41.0478 32.0513 38.6246 33.6148C36.2013 35.1782 34.3006 37.4225 33.1642 40.0623C32.0278 42.7021 31.7071 45.6181 32.2428 48.4396C32.7785 51.261 34.1464 53.8604 36.1726 55.9071C38.1988 57.9539 40.7918 59.3556 43.6217 59.934C46.4517 60.5124 49.3907 60.2413 52.0653 59.1552C55.6162 57.7239 58.4543 54.9562 59.9615 51.4551C61.4687 47.9539 61.5229 44.0027 60.1123 40.462Z"/></g></svg>