<svg xmlns="http://www.w3.org/2000/svg" width="94" height="93" fill="none" viewBox="0 0 94 93"><g opacity=".85"><path fill="#fff" d="M30.8884 84.5649L29.1514 88.6388C34.7726 90.9938 40.8064 92.2228 46.9067 92.2551C53.0069 92.2874 59.0536 91.1225 64.6998 88.8271L63.0386 84.747C57.9325 86.8256 52.463 87.8797 46.9452 87.8485C41.4274 87.8172 35.9703 86.7013 30.8884 84.5649Z"/><path fill="#fff" d="M8.26923 61.8668L4.16992 63.524C6.47208 69.1366 9.86508 74.2432 14.1548 78.5516C18.4446 82.8599 23.5469 86.2856 29.17 88.6326L30.8755 84.5901C25.7893 82.4652 21.1747 79.3645 17.2956 75.4654C13.4166 71.5663 10.3493 66.9453 8.26923 61.8668Z"/><path fill="#fff" d="M31.2733 7.49451L29.5994 3.42065C23.9488 5.70021 18.8075 9.06773 14.4714 13.3295C10.1354 17.5912 6.69014 22.663 4.33398 28.2529L8.40804 29.9603C10.5402 24.9022 13.6581 20.3131 17.5823 16.4574C21.5066 12.6018 26.1595 9.55566 31.2733 7.49451Z"/><path fill="#fff" d="M8.42075 29.9415L4.34671 28.2529C1.98269 33.8374 0.752858 39.8313 0.727926 45.8898C0.702994 51.9483 1.88346 57.9519 4.20143 63.5554L8.30705 61.8794C6.19863 56.8132 5.12301 51.3815 5.14252 45.8991C5.16204 40.4167 6.27631 34.9927 8.42075 29.9415Z"/><path fill="#fff" d="M85.8916 62.2938L89.9656 63.9949C92.3312 58.4119 93.5618 52.4189 93.5868 46.3612C93.6117 40.3034 92.4304 34.3007 90.1109 28.6986L85.999 30.3558C88.1084 35.4216 89.1851 40.8531 89.1667 46.3355C89.1482 51.8179 88.035 57.2421 85.8916 62.2938Z"/><path fill="#fff" d="M31.2792 7.48813C36.3839 5.40799 41.8525 4.35309 47.3695 4.38434C52.8865 4.41558 58.3427 5.53234 63.4231 7.67017L65.1538 3.62775C59.5318 1.26771 53.4958 0.0355572 47.3928 0.00216237C41.2899 -0.0312325 35.2406 1.13479 29.5928 3.43316L31.2603 7.49441L31.2792 7.48813Z"/><path fill="#fff" d="M86.0486 30.3746L90.1479 28.7112C87.8457 23.098 84.4536 17.9905 80.1652 13.6802C75.8767 9.36989 70.7759 5.94126 65.1541 3.59009L63.4424 7.63884C68.5288 9.7666 73.1434 12.8698 77.0223 16.7709C80.9012 20.6721 83.9684 25.2947 86.0486 30.3746Z"/><path fill="#fff" d="M63.0449 84.747L64.7188 88.8271C70.3668 86.5483 75.5062 83.1831 79.842 78.9249C84.1778 74.6667 87.6245 69.5993 89.9842 64.0137L85.9038 62.3126C83.769 67.3644 80.6504 71.9471 76.7275 75.7971C72.8046 79.6472 68.1546 82.6888 63.0449 84.747Z"/><g opacity=".75"><path fill="#383330" d="M30.8884 84.5649L29.1514 88.6388C34.7726 90.9938 40.8064 92.2228 46.9067 92.2551C53.0069 92.2874 59.0536 91.1225 64.6998 88.8271L63.0386 84.747C57.9325 86.8256 52.463 87.8797 46.9452 87.8485C41.4274 87.8172 35.9703 86.7013 30.8884 84.5649Z" opacity=".75"/><path fill="#DE9C32" d="M8.26923 61.8668L4.16992 63.524C6.47208 69.1366 9.86508 74.2432 14.1548 78.5516C18.4446 82.8599 23.5469 86.2856 29.17 88.6326L30.8755 84.5901C25.7893 82.4652 21.1747 79.3645 17.2956 75.4654C13.4166 71.5663 10.3493 66.9453 8.26923 61.8668Z" opacity=".75"/><path fill="#FCD62B" d="M31.2733 7.49451L29.5994 3.42065C23.9488 5.70021 18.8075 9.06773 14.4714 13.3295C10.1354 17.5912 6.69014 22.663 4.33398 28.2529L8.40804 29.9603C10.5402 24.9022 13.6581 20.3131 17.5823 16.4574C21.5066 12.6018 26.1595 9.55566 31.2733 7.49451Z" opacity=".75"/><path fill="#FF9314" d="M8.42075 29.9415L4.34671 28.2529C1.98269 33.8374 0.752858 39.8313 0.727926 45.8898C0.702994 51.9483 1.88346 57.9519 4.20143 63.5554L8.30705 61.8794C6.19863 56.8132 5.12301 51.3815 5.14252 45.8991C5.16204 40.4167 6.27631 34.9927 8.42075 29.9415Z" opacity=".75"/><path fill="#D9661B" d="M85.8916 62.2938L89.9656 63.9949C92.3312 58.4119 93.5618 52.4189 93.5868 46.3612C93.6117 40.3034 92.4304 34.3007 90.1109 28.6986L85.999 30.3558C88.1084 35.4216 89.1851 40.8531 89.1667 46.3355C89.1482 51.8179 88.035 57.2421 85.8916 62.2938Z" opacity=".75"/><path fill="#A99D7F" d="M31.2792 7.48813C36.3839 5.40799 41.8525 4.35309 47.3695 4.38434C52.8865 4.41558 58.3427 5.53234 63.4231 7.67017L65.1538 3.62775C59.5318 1.26771 53.4958 0.0355572 47.3928 0.00216237C41.2899 -0.0312325 35.2406 1.13479 29.5928 3.43316L31.2603 7.49441L31.2792 7.48813Z" opacity=".75"/><path fill="#B32104" d="M86.0486 30.3746L90.1479 28.7112C87.8457 23.098 84.4536 17.9905 80.1652 13.6802C75.8767 9.36989 70.7759 5.94126 65.1541 3.59009L63.4424 7.63884C68.5288 9.7666 73.1434 12.8698 77.0223 16.7709C80.9012 20.6721 83.9684 25.2947 86.0486 30.3746Z" opacity=".75"/><path fill="#DBBA63" d="M63.0449 84.747L64.7188 88.8271C70.3668 86.5483 75.5062 83.1831 79.842 78.9249C84.1778 74.6667 87.6245 69.5993 89.9842 64.0137L85.9038 62.3126C83.769 67.3644 80.6504 71.9471 76.7275 75.7971C72.8046 79.6472 68.1546 82.6888 63.0449 84.747Z" opacity=".75"/></g><path fill="#DE9C32" d="M31.419 52.4889L8.26953 61.8606C10.3485 66.9419 13.4177 71.5648 17.3005 75.4633C21.1833 79.3619 25.8033 82.4593 30.8947 84.5775L40.7293 61.302C38.6607 60.5309 36.7699 59.3529 35.1701 57.8386C33.5704 56.3243 32.2945 54.5047 31.419 52.4889Z"/><path fill="#383330" d="M53.0586 61.1324C49.1186 62.7403 44.7107 62.7986 40.7291 61.2956L30.8945 84.565C35.9745 86.7039 41.4305 87.8217 46.9475 87.854C52.4645 87.8863 57.9334 86.8325 63.0384 84.7533L53.286 61.0446L53.0586 61.1324Z"/><path fill="#FF9314" d="M31.311 52.2064C30.4817 50.195 30.0667 48.0387 30.0906 45.8651C30.1145 43.6915 30.5767 41.5447 31.45 39.5517L8.42052 29.9226C6.28084 34.9773 5.16919 40.4029 5.14968 45.8866C5.13016 51.3703 6.20317 56.8036 8.30682 61.8732L31.431 52.4951C31.3868 52.3947 31.3489 52.3068 31.311 52.2064Z"/><path fill="#DBBA63" d="M53.292 61.032L63.0444 84.7469C68.155 82.6906 72.8048 79.6481 76.7251 75.7952C80.6454 71.9424 83.7585 67.3556 85.8844 62.3L62.1286 52.3696C60.4134 56.2788 57.2487 59.3811 53.292 61.032Z"/><path fill="#D9661B" d="M62.1348 52.3696L85.8906 62.3001C88.0277 57.2488 89.1405 51.8281 89.1655 46.3486C89.1904 40.8691 88.1269 35.4385 86.0359 30.3683L62.419 39.9284C63.2012 41.9179 63.5788 44.0418 63.53 46.1773C63.4812 48.3127 63.007 50.4174 62.1348 52.3696Z"/><path fill="#FCD62B" d="M31.4376 39.5518C33.1788 35.5353 36.442 32.3622 40.5206 30.7198L40.748 30.6257L31.2418 7.48193C26.1314 9.53717 21.4819 12.5794 17.5625 16.4324C13.643 20.2854 10.5316 24.8728 8.4082 29.9289L31.4376 39.5518Z"/><path fill="#A99D7F" d="M53.6266 30.8453L63.4232 7.6702C58.3412 5.5391 52.886 4.42549 47.3701 4.39318C41.8543 4.36087 36.3863 5.41048 31.2793 7.48189L40.7917 30.6131C44.9322 28.9985 49.548 29.082 53.6266 30.8453Z"/><path fill="#B32104" d="M62.312 39.6458C62.3499 39.7463 62.3878 39.8341 62.432 39.9346L86.0425 30.3745C83.9666 25.2932 80.8992 20.6704 77.0171 16.7726C73.1351 12.8748 68.5151 9.77913 63.4236 7.66394L53.627 30.839C57.5667 32.5369 60.6832 35.6971 62.312 39.6458Z"/><path fill="#DAEFDC" d="M60.2841 40.462C59.2275 37.7896 57.3951 35.49 55.0198 33.8554C52.6446 32.2208 49.8338 31.3251 46.945 31.2823C44.0561 31.2394 41.2197 32.0513 38.7964 33.6148C36.3731 35.1782 34.4725 37.4225 33.3361 40.0623C32.1997 42.7021 31.879 45.6181 32.4147 48.4396C32.9504 51.261 34.3183 53.8604 36.3445 55.9071C38.3707 57.9539 40.9636 59.3556 43.7936 59.934C46.6235 60.5124 49.5626 60.2413 52.2371 59.1552C55.788 57.7239 58.6261 54.9562 60.1333 51.4551C61.6405 47.9539 61.6947 44.0027 60.2841 40.462Z"/></g></svg>