<svg xmlns="http://www.w3.org/2000/svg" width="94" height="93" fill="none" viewBox="0 0 94 93"><g opacity=".85"><path fill="#fff" d="M31.0593 84.5651L29.3223 88.6389C34.9435 90.9939 40.9773 92.2228 47.0776 92.2551C53.1779 92.2874 59.2245 91.1225 64.8707 88.8272L63.2095 84.7471C58.1034 86.8257 52.6339 87.8798 47.1161 87.8486C41.5983 87.8173 36.1412 86.7014 31.0593 84.5651Z"/><path fill="#fff" d="M8.44013 61.8669L4.34082 63.5241C6.64298 69.1367 10.036 74.2433 14.3257 78.5516C18.6155 82.86 23.7178 86.2856 29.3409 88.6326L31.0463 84.5901C25.9602 82.4653 21.3455 79.3646 17.4665 75.4655C13.5875 71.5664 10.5202 66.9454 8.44013 61.8669Z"/><path fill="#fff" d="M31.4442 7.49451L29.7704 3.42065C24.1197 5.70021 18.9784 9.06773 14.6424 13.3295C10.3063 17.5912 6.86105 22.663 4.50488 28.2529L8.57894 29.9603C10.7111 24.9022 13.8291 20.3131 17.7533 16.4574C21.6775 12.6018 26.3305 9.55566 31.4442 7.49451Z"/><path fill="#fff" d="M8.59161 29.9415L4.51759 28.2529C2.15359 33.8374 0.923756 39.8313 0.898824 45.8898C0.873893 51.9483 2.05435 57.9519 4.37231 63.5554L8.47792 61.8794C6.36951 56.8132 5.29389 51.3815 5.31341 45.8991C5.33292 40.4167 6.44719 34.9927 8.59161 29.9415Z"/><path fill="#fff" d="M86.0615 62.2938L90.1356 63.9949C92.5011 58.4119 93.7318 52.4189 93.7568 46.3612C93.7817 40.3034 92.6004 34.3007 90.2809 28.6986L86.1689 30.3558C88.2783 35.4216 89.355 40.8531 89.3366 46.3355C89.3182 51.8179 88.205 57.2421 86.0615 62.2938Z"/><path fill="#fff" d="M31.4501 7.48825C36.5548 5.40807 42.0234 4.35316 47.5404 4.38441C53.0575 4.41565 58.5136 5.53243 63.5941 7.67029L65.3248 3.62781C59.7028 1.26773 53.6667 0.0355578 47.5638 0.00216239C41.4608 -0.031233 35.4115 1.13481 29.7637 3.43321L31.4312 7.49453L31.4501 7.48825Z"/><path fill="#fff" d="M86.2195 30.3746L90.3188 28.7112C88.0167 23.098 84.6245 17.9905 80.3361 13.6802C76.0476 9.36989 70.9469 5.94126 65.325 3.59009L63.6133 7.63884C68.6997 9.7666 73.3143 12.8698 77.1932 16.7709C81.0721 20.6721 84.1394 25.2947 86.2195 30.3746Z"/><path fill="#fff" d="M63.2158 84.747L64.8897 88.8271C70.5377 86.5483 75.6771 83.1831 80.0129 78.9249C84.3487 74.6667 87.7954 69.5993 90.1551 64.0137L86.0747 62.3126C83.9399 67.3644 80.8213 71.9471 76.8984 75.7971C72.9755 79.6472 68.3255 82.6888 63.2158 84.747Z"/><g opacity=".75"><path fill="#399AB1" d="M31.0593 84.5651L29.3223 88.6389C34.9435 90.9939 40.9773 92.2228 47.0776 92.2551C53.1779 92.2874 59.2245 91.1225 64.8707 88.8272L63.2095 84.7471C58.1034 86.8257 52.6339 87.8798 47.1161 87.8486C41.5983 87.8173 36.1412 86.7014 31.0593 84.5651Z" opacity=".75"/><path fill="#2EC9D6" d="M8.44013 61.8669L4.34082 63.5241C6.64298 69.1367 10.036 74.2433 14.3257 78.5516C18.6155 82.86 23.7178 86.2856 29.3409 88.6326L31.0463 84.5901C25.9602 82.4653 21.3455 79.3646 17.4665 75.4655C13.5875 71.5664 10.5202 66.9454 8.44013 61.8669Z" opacity=".75"/><path fill="#C8F5E6" d="M31.4442 7.49451L29.7704 3.42065C24.1197 5.70021 18.9784 9.06773 14.6424 13.3295C10.3063 17.5912 6.86105 22.663 4.50488 28.2529L8.57894 29.9603C10.7111 24.9022 13.8291 20.3131 17.7533 16.4574C21.6775 12.6018 26.3305 9.55566 31.4442 7.49451Z" opacity=".75"/><path fill="#93EBE7" d="M8.59161 29.9415L4.51759 28.2529C2.15359 33.8374 0.923756 39.8313 0.898824 45.8898C0.873893 51.9483 2.05435 57.9519 4.37231 63.5554L8.47792 61.8794C6.36951 56.8132 5.29389 51.3815 5.31341 45.8991C5.33292 40.4167 6.44719 34.9927 8.59161 29.9415Z" opacity=".75"/><path fill="#0084DC" d="M86.0615 62.2938L90.1356 63.9949C92.5011 58.4119 93.7318 52.4189 93.7568 46.3612C93.7817 40.3034 92.6004 34.3007 90.2809 28.6986L86.1689 30.3558C88.2783 35.4216 89.355 40.8531 89.3366 46.3355C89.3182 51.8179 88.205 57.2421 86.0615 62.2938Z" opacity=".75"/><path fill="#ECEEE1" d="M31.4501 7.48825C36.5548 5.40807 42.0234 4.35316 47.5404 4.38441C53.0575 4.41565 58.5136 5.53243 63.5941 7.67029L65.3248 3.62781C59.7028 1.26773 53.6667 0.0355578 47.5638 0.00216239C41.4608 -0.031233 35.4115 1.13481 29.7637 3.43321L31.4312 7.49453L31.4501 7.48825Z" opacity=".75"/><path fill="#81D9FF" d="M86.2195 30.3746L90.3188 28.7112C88.0167 23.098 84.6245 17.9905 80.3361 13.6802C76.0476 9.36989 70.9469 5.94126 65.325 3.59009L63.6133 7.63884C68.6997 9.7666 73.3143 12.8698 77.1932 16.7709C81.0721 20.6721 84.1394 25.2947 86.2195 30.3746Z" opacity=".75"/><path fill="#77CDD5" d="M63.2158 84.747L64.8897 88.8271C70.5377 86.5483 75.6771 83.1831 80.0129 78.9249C84.3487 74.6667 87.7954 69.5993 90.1551 64.0137L86.0747 62.3126C83.9399 67.3644 80.8213 71.9471 76.8984 75.7971C72.9755 79.6472 68.3255 82.6888 63.2158 84.747Z" opacity=".75"/></g><path fill="#2EC9D6" d="M31.5898 52.4889L8.44043 61.8606C10.5194 66.9419 13.5886 71.5648 17.4714 75.4633C21.3542 79.3619 25.9742 82.4593 31.0656 84.5775L40.9001 61.302C38.8315 60.5309 36.9408 59.3529 35.341 57.8386C33.7413 56.3243 32.4654 54.5047 31.5898 52.4889Z"/><path fill="#399AB1" d="M53.2285 61.1326C49.2886 62.7404 44.8807 62.7987 40.899 61.2958L31.0645 84.565C36.1445 86.7039 41.6004 87.8217 47.1175 87.854C52.6345 87.8863 58.1033 86.8325 63.2084 84.7533L53.4559 61.0447L53.2285 61.1326Z"/><path fill="#93EBE7" d="M31.4818 52.2064C30.6525 50.195 30.2376 48.0387 30.2614 45.8651C30.2853 43.6915 30.7475 41.5447 31.6208 39.5517L8.59141 29.9226C6.45173 34.9773 5.34009 40.4029 5.32057 45.8866C5.30106 51.3703 6.37406 56.8036 8.47771 61.8732L31.6018 52.4951C31.5576 52.3947 31.5197 52.3068 31.4818 52.2064Z"/><path fill="#77CDD5" d="M53.4629 61.0321L63.2153 84.7471C68.3259 82.6907 72.9757 79.6482 76.896 75.7953C80.8163 71.9425 83.9294 67.3557 86.0553 62.3L62.2995 52.3696C60.5843 56.2788 57.4196 59.3811 53.4629 61.0321Z"/><path fill="#0084DC" d="M62.3057 52.3697L86.0615 62.3C88.1986 57.2488 89.3114 51.8281 89.3364 46.3486C89.3613 40.8691 88.2978 35.4386 86.2068 30.3684L62.5899 39.9284C63.3721 41.918 63.7497 44.0419 63.7009 46.1773C63.6521 48.3128 63.1779 50.4174 62.3057 52.3697Z"/><path fill="#C8F5E6" d="M31.6085 39.5518C33.3497 35.5353 36.6129 32.3622 40.6914 30.7198L40.9188 30.6257L31.4127 7.48193C26.3023 9.53717 21.6527 12.5794 17.7333 16.4324C13.8139 20.2854 10.7025 24.8728 8.5791 29.9289L31.6085 39.5518Z"/><path fill="#ECEEE1" d="M53.7975 30.8453L63.5942 7.6702C58.5121 5.5391 53.0569 4.42549 47.5411 4.39318C42.0252 4.36087 36.5572 5.41048 31.4502 7.48189L40.9626 30.6131C45.1031 28.9985 49.7189 29.082 53.7975 30.8453Z"/><path fill="#81D9FF" d="M62.4828 39.6459C62.5207 39.7464 62.5586 39.8343 62.6028 39.9347L86.2134 30.3746C84.1374 25.2933 81.07 20.6705 77.188 16.7727C73.3059 12.8749 68.686 9.77914 63.5945 7.66394L53.7979 30.8391C57.7376 32.537 60.8541 35.6972 62.4828 39.6459Z"/><path fill="#DAEFDC" d="M60.4551 40.462C59.3985 37.7896 57.566 35.49 55.1908 33.8554C52.8155 32.2208 50.0047 31.3251 47.1159 31.2823C44.227 31.2394 41.3906 32.0513 38.9673 33.6148C36.544 35.1782 34.6434 37.4225 33.507 40.0623C32.3706 42.7021 32.0499 45.6181 32.5856 48.4396C33.1213 51.261 34.4892 53.8604 36.5154 55.9071C38.5416 57.9539 41.1345 59.3556 43.9645 59.934C46.7944 60.5124 49.7335 60.2413 52.408 59.1552C55.959 57.7239 58.7971 54.9562 60.3042 51.4551C61.8114 47.9539 61.8656 44.0027 60.4551 40.462Z"/></g></svg>