<svg xmlns="http://www.w3.org/2000/svg" width="93" height="93" fill="none" viewBox="0 0 93 93"><g opacity=".85"><path fill="#fff" d="M30.2311 84.5649L28.4941 88.6388C34.1154 90.9938 40.1492 92.2228 46.2495 92.2551C52.3497 92.2874 58.3963 91.1225 64.0425 88.8271L62.3813 84.747C57.2752 86.8256 51.8057 87.8797 46.2879 87.8485C40.7701 87.8172 35.3131 86.7013 30.2311 84.5649Z"/><path fill="#fff" d="M7.612 61.8668L3.5127 63.524C5.81485 69.1366 9.20785 74.2432 13.4976 78.5516C17.7873 82.8599 22.8897 86.2856 28.5128 88.6326L30.2182 84.5901C25.132 82.4652 20.5174 79.3645 16.6384 75.4654C12.7593 71.5663 9.69205 66.9453 7.612 61.8668Z"/><path fill="#fff" d="M30.616 7.49451L28.9422 3.42065C23.2915 5.70021 18.1503 9.06773 13.8142 13.3295C9.47815 17.5912 6.03292 22.663 3.67676 28.2529L7.75081 29.9603C9.88296 24.9022 13.0009 20.3131 16.9251 16.4574C20.8493 12.6018 25.5023 9.55566 30.616 7.49451Z"/><path fill="#fff" d="M7.76355 29.9415L3.68949 28.2529C1.32547 33.8374 0.0956312 39.8313 0.0706993 45.8898C0.0457675 51.9483 1.22623 57.9519 3.54422 63.5554L7.64985 61.8794C5.54143 56.8132 4.4658 51.3815 4.48532 45.8991C4.50483 40.4167 5.6191 34.9927 7.76355 29.9415Z"/><path fill="#fff" d="M85.2344 62.2938L89.3084 63.9949C91.6739 58.4119 92.9046 52.4189 92.9295 46.3612C92.9545 40.3034 91.7732 34.3007 89.4537 28.6986L85.3418 30.3558C87.4512 35.4216 88.5279 40.8531 88.5094 46.3355C88.491 51.8179 87.3778 57.2421 85.2344 62.2938Z"/><path fill="#fff" d="M30.622 7.48813C35.7266 5.40799 41.1953 4.35309 46.7123 4.38434C52.2293 4.41558 57.6855 5.53234 62.7659 7.67017L64.4966 3.62775C58.8746 1.26771 52.8385 0.0355572 46.7356 0.00216237C40.6327 -0.0312325 34.5834 1.13479 28.9355 3.43316L30.6031 7.49441L30.622 7.48813Z"/><path fill="#fff" d="M85.3913 30.3746L89.4907 28.7112C87.1885 23.098 83.7964 17.9905 79.5079 13.6802C75.2195 9.36989 70.1187 5.94126 64.4969 3.59009L62.7852 7.63884C67.8716 9.7666 72.4861 12.8698 76.3651 16.7709C80.244 20.6721 83.3112 25.2947 85.3913 30.3746Z"/><path fill="#fff" d="M62.3877 84.747L64.0615 88.8271C69.7096 86.5483 74.849 83.1831 79.1848 78.9249C83.5205 74.6667 86.9672 69.5993 89.327 64.0137L85.2466 62.3126C83.1117 67.3644 79.9932 71.9471 76.0703 75.7971C72.1473 79.6472 67.4974 82.6888 62.3877 84.747Z"/><g opacity=".75"><path fill="#177DD3" d="M30.2311 84.5649L28.4941 88.6388C34.1154 90.9938 40.1492 92.2228 46.2495 92.2551C52.3497 92.2874 58.3963 91.1225 64.0425 88.8271L62.3813 84.747C57.2752 86.8256 51.8057 87.8797 46.2879 87.8485C40.7701 87.8172 35.3131 86.7013 30.2311 84.5649Z" opacity=".75"/><path fill="#072F7F" d="M7.612 61.8668L3.5127 63.524C5.81485 69.1366 9.20785 74.2432 13.4976 78.5516C17.7873 82.8599 22.8897 86.2856 28.5128 88.6326L30.2182 84.5901C25.132 82.4652 20.5174 79.3645 16.6384 75.4654C12.7593 71.5663 9.69205 66.9453 7.612 61.8668Z" opacity=".75"/><path fill="#CB80B8" d="M30.616 7.49451L28.9422 3.42065C23.2915 5.70021 18.1503 9.06773 13.8142 13.3295C9.47815 17.5912 6.03292 22.663 3.67676 28.2529L7.75081 29.9603C9.88296 24.9022 13.0009 20.3131 16.9251 16.4574C20.8493 12.6018 25.5023 9.55566 30.616 7.49451Z" opacity=".75"/><path fill="#B80A3F" d="M7.76355 29.9415L3.68949 28.2529C1.32547 33.8374 0.0956312 39.8313 0.0706993 45.8898C0.0457675 51.9483 1.22623 57.9519 3.54422 63.5554L7.64985 61.8794C5.54143 56.8132 4.4658 51.3815 4.48532 45.8991C4.50483 40.4167 5.6191 34.9927 7.76355 29.9415Z" opacity=".75"/><path fill="#E2ABD1" d="M85.2344 62.2938L89.3084 63.9949C91.6739 58.4119 92.9046 52.4189 92.9295 46.3612C92.9545 40.3034 91.7732 34.3007 89.4537 28.6986L85.3418 30.3558C87.4512 35.4216 88.5279 40.8531 88.5094 46.3355C88.491 51.8179 87.3778 57.2421 85.2344 62.2938Z" opacity=".75"/><path fill="#E4E0D7" d="M30.622 7.48813C35.7266 5.40799 41.1953 4.35309 46.7123 4.38434C52.2293 4.41558 57.6855 5.53234 62.7659 7.67017L64.4966 3.62775C58.8746 1.26771 52.8385 0.0355572 46.7356 0.00216237C40.6327 -0.0312325 34.5834 1.13479 28.9355 3.43316L30.6031 7.49441L30.622 7.48813Z" opacity=".75"/><path fill="#81D9FF" d="M85.3913 30.3746L89.4907 28.7112C87.1885 23.098 83.7964 17.9905 79.5079 13.6802C75.2195 9.36989 70.1187 5.94126 64.4969 3.59009L62.7852 7.63884C67.8716 9.7666 72.4861 12.8698 76.3651 16.7709C80.244 20.6721 83.3112 25.2947 85.3913 30.3746Z" opacity=".75"/><path fill="#77CDD5" d="M62.3877 84.747L64.0615 88.8271C69.7096 86.5483 74.849 83.1831 79.1848 78.9249C83.5205 74.6667 86.9672 69.5993 89.327 64.0137L85.2466 62.3126C83.1117 67.3644 79.9932 71.9471 76.0703 75.7971C72.1473 79.6472 67.4974 82.6888 62.3877 84.747Z" opacity=".75"/></g><path fill="#072F7F" d="M30.7617 52.4889L7.6123 61.8606C9.69132 66.9419 12.7605 71.5648 16.6433 75.4633C20.5261 79.3619 25.146 82.4593 30.2375 84.5775L40.072 61.302C38.0034 60.5309 36.1126 59.3529 34.5129 57.8386C32.9131 56.3243 31.6373 54.5047 30.7617 52.4889Z"/><path fill="#177DD3" d="M52.4014 61.1324C48.4614 62.7403 44.0535 62.7986 40.0719 61.2956L30.2373 84.565C35.3173 86.7039 40.7733 87.8217 46.2903 87.854C51.8073 87.8863 57.2762 86.8325 62.3812 84.7533L52.6288 61.0446L52.4014 61.1324Z"/><path fill="#B80A3F" d="M30.6538 52.2064C29.8245 50.195 29.4095 48.0387 29.4334 45.8651C29.4573 43.6915 29.9195 41.5447 30.7928 39.5517L7.7633 29.9226C5.62361 34.9773 4.51196 40.4029 4.49245 45.8866C4.47294 51.3703 5.54594 56.8036 7.6496 61.8732L30.7738 52.4951C30.7296 52.3947 30.6917 52.3068 30.6538 52.2064Z"/><path fill="#77CDD5" d="M52.6348 61.032L62.3872 84.7469C67.4978 82.6906 72.1476 79.6481 76.0679 75.7952C79.9882 71.9424 83.1013 67.3556 85.2272 62.3L61.4713 52.3696C59.7561 56.2788 56.5915 59.3811 52.6348 61.032Z"/><path fill="#E2ABD1" d="M61.4775 52.3696L85.2334 62.3001C87.3704 57.2488 88.4833 51.8281 88.5082 46.3486C88.5332 40.8691 87.4697 35.4385 85.3787 30.3683L61.7618 39.9284C62.5439 41.9179 62.9215 44.0418 62.8728 46.1773C62.824 48.3127 62.3498 50.4174 61.4775 52.3696Z"/><path fill="#CB80B8" d="M30.7804 39.5518C32.5216 35.5353 35.7848 32.3622 39.8634 30.7198L40.0908 30.6257L30.5846 7.48193C25.4742 9.53717 20.8246 12.5794 16.9052 16.4324C12.9858 20.2854 9.87437 24.8728 7.75098 29.9289L30.7804 39.5518Z"/><path fill="#E4E0D7" d="M52.9694 30.8453L62.7661 7.6702C57.684 5.5391 52.2288 4.42549 46.7129 4.39318C41.1971 4.36087 35.729 5.41048 30.6221 7.48189L40.1345 30.6131C44.275 28.9985 48.8908 29.082 52.9694 30.8453Z"/><path fill="#81D9FF" d="M61.6547 39.6458C61.6926 39.7463 61.7305 39.8341 61.7747 39.9346L85.3853 30.3745C83.3093 25.2932 80.2419 20.6704 76.3599 16.7726C72.4778 12.8748 67.8579 9.77913 62.7664 7.66394L52.9697 30.839C56.9095 32.5369 60.026 35.6971 61.6547 39.6458Z"/><path fill="#DAEFDC" d="M59.6269 40.462C58.5703 37.7896 56.7379 35.49 54.3626 33.8554C51.9874 32.2208 49.1766 31.3251 46.2878 31.2823C43.3989 31.2394 40.5625 32.0513 38.1392 33.6148C35.7159 35.1782 33.8152 37.4225 32.6789 40.0623C31.5425 42.7021 31.2218 45.6181 31.7575 48.4396C32.2931 51.261 33.6611 53.8604 35.6873 55.9071C37.7135 57.9539 40.3064 59.3556 43.1364 59.934C45.9663 60.5124 48.9054 60.2413 51.5799 59.1552C55.1308 57.7239 57.9689 54.9562 59.4761 51.4551C60.9833 47.9539 61.0375 44.0027 59.6269 40.462Z"/></g></svg>