<svg xmlns="http://www.w3.org/2000/svg" width="94" height="93" fill="none" viewBox="0 0 94 93"><g opacity=".85"><path fill="#fff" d="M30.403 84.5649L28.666 88.6388C34.2873 90.9938 40.3211 92.2228 46.4213 92.2551C52.5216 92.2874 58.5682 91.1225 64.2144 88.8271L62.5532 84.747C57.4471 86.8256 51.9776 87.8797 46.4598 87.8485C40.942 87.8172 35.4849 86.7013 30.403 84.5649Z"/><path fill="#fff" d="M7.78388 61.8668L3.68457 63.524C5.98673 69.1366 9.37972 74.2432 13.6695 78.5516C17.9592 82.8599 23.0616 86.2856 28.6847 88.6326L30.3901 84.5901C25.3039 82.4652 20.6893 79.3645 16.8103 75.4654C12.9312 71.5663 9.86392 66.9453 7.78388 61.8668Z"/><path fill="#fff" d="M30.7878 7.49451L29.114 3.42065C23.4634 5.70021 18.3221 9.06773 13.9861 13.3295C9.65001 17.5912 6.20479 22.663 3.84863 28.2529L7.92267 29.9603C10.0548 24.9022 13.1728 20.3131 17.097 16.4574C21.0212 12.6018 25.6741 9.55566 30.7878 7.49451Z"/><path fill="#fff" d="M7.93549 29.9415L3.8614 28.2529C1.49736 33.8374 0.267506 39.8313 0.242574 45.8898C0.217642 51.9483 1.39812 57.9519 3.71612 63.5554L7.82179 61.8794C5.71335 56.8132 4.63771 51.3815 4.65723 45.8991C4.67674 40.4167 5.79102 34.9927 7.93549 29.9415Z"/><path fill="#fff" d="M85.4062 62.2938L89.4803 63.9949C91.8459 58.4119 93.0765 52.4189 93.1015 46.3612C93.1264 40.3034 91.9451 34.3007 89.6256 28.6986L85.5136 30.3558C87.6231 35.4216 88.6998 40.8531 88.6813 46.3355C88.6629 51.8179 87.5497 57.2421 85.4062 62.2938Z"/><path fill="#fff" d="M30.7939 7.48813C35.8985 5.40799 41.3672 4.35309 46.8842 4.38434C52.4013 4.41558 57.8574 5.53234 62.9379 7.67017L64.6686 3.62775C59.0466 1.26771 53.0105 0.0355572 46.9076 0.00216237C40.8046 -0.0312325 34.7553 1.13479 29.1074 3.43316L30.7749 7.49441L30.7939 7.48813Z"/><path fill="#fff" d="M85.5633 30.3746L89.6626 28.7112C87.3605 23.098 83.9683 17.9905 79.6798 13.6802C75.3914 9.36989 70.2906 5.94126 64.6688 3.59009L62.957 7.63884C68.0435 9.7666 72.658 12.8698 76.537 16.7709C80.4159 20.6721 83.4831 25.2947 85.5633 30.3746Z"/><path fill="#fff" d="M62.5596 84.747L64.2334 88.8271C69.8814 86.5483 75.0208 83.1831 79.3566 78.9249C83.6924 74.6667 87.1391 69.5993 89.4988 64.0137L85.4184 62.3126C83.2836 67.3644 80.165 71.9471 76.2421 75.7971C72.3192 79.6472 67.6692 82.6888 62.5596 84.747Z"/><g opacity=".75"><g opacity=".75"><path fill="#28453B" d="M30.403 84.5649L28.666 88.6388C34.2873 90.9938 40.3211 92.2228 46.4213 92.2551C52.5216 92.2874 58.5682 91.1225 64.2144 88.8271L62.5532 84.747C57.4471 86.8256 51.9776 87.8797 46.4598 87.8485C40.942 87.8172 35.4849 86.7013 30.403 84.5649Z" opacity=".75"/></g><path fill="#0F273A" d="M7.78388 61.8668L3.68457 63.524C5.98673 69.1366 9.37972 74.2432 13.6695 78.5516C17.9592 82.8599 23.0616 86.2856 28.6847 88.6326L30.3901 84.5901C25.3039 82.4652 20.6893 79.3645 16.8103 75.4654C12.9312 71.5663 9.86392 66.9453 7.78388 61.8668Z" opacity=".75"/><path fill="#718044" d="M30.7878 7.49451L29.114 3.42065C23.4634 5.70021 18.3221 9.06773 13.9861 13.3295C9.65001 17.5912 6.20479 22.663 3.84863 28.2529L7.92267 29.9603C10.0548 24.9022 13.1728 20.3131 17.097 16.4574C21.0212 12.6018 25.6741 9.55566 30.7878 7.49451Z" opacity=".75"/><path fill="#88988B" d="M7.93549 29.9415L3.8614 28.2529C1.49736 33.8374 0.267506 39.8313 0.242574 45.8898C0.217642 51.9483 1.39812 57.9519 3.71612 63.5554L7.82179 61.8794C5.71335 56.8132 4.63771 51.3815 4.65723 45.8991C4.67674 40.4167 5.79102 34.9927 7.93549 29.9415Z" opacity=".75"/><path fill="#C2C677" d="M85.4062 62.2938L89.4803 63.9949C91.8459 58.4119 93.0765 52.4189 93.1015 46.3612C93.1264 40.3034 91.9451 34.3007 89.6256 28.6986L85.5136 30.3558C87.6231 35.4216 88.6998 40.8531 88.6813 46.3355C88.6629 51.8179 87.5497 57.2421 85.4062 62.2938Z" opacity=".75"/><path fill="#D9D4B5" d="M30.7939 7.48813C35.8985 5.40799 41.3672 4.35309 46.8842 4.38434C52.4013 4.41558 57.8574 5.53234 62.9379 7.67017L64.6686 3.62775C59.0466 1.26771 53.0105 0.0355572 46.9076 0.00216237C40.8046 -0.0312325 34.7553 1.13479 29.1074 3.43316L30.7749 7.49441L30.7939 7.48813Z" opacity=".75"/><path fill="#DBD36C" d="M85.5633 30.3746L89.6626 28.7112C87.3605 23.098 83.9683 17.9905 79.6798 13.6802C75.3914 9.36989 70.2906 5.94126 64.6688 3.59009L62.957 7.63884C68.0435 9.7666 72.658 12.8698 76.537 16.7709C80.4159 20.6721 83.4831 25.2947 85.5633 30.3746Z" opacity=".75"/><path fill="#4E6E50" d="M62.5596 84.747L64.2334 88.8271C69.8814 86.5483 75.0208 83.1831 79.3566 78.9249C83.6924 74.6667 87.1391 69.5993 89.4988 64.0137L85.4184 62.3126C83.2836 67.3644 80.165 71.9471 76.2421 75.7971C72.3192 79.6472 67.6692 82.6888 62.5596 84.747Z" opacity=".75"/></g><path fill="#0F273A" d="M30.9336 52.4889L7.78418 61.8606C9.8632 66.9419 12.9323 71.5648 16.8152 75.4633C20.698 79.3619 25.3179 82.4593 30.4094 84.5775L40.244 61.302C38.1754 60.5309 36.2846 59.3529 34.6848 57.8386C33.0851 56.3243 31.8092 54.5047 30.9336 52.4889Z"/><path fill="#28453B" d="M52.5733 61.1324C48.6333 62.7403 44.2254 62.7986 40.2437 61.2956L30.4092 84.565C35.4892 86.7039 40.9452 87.8217 46.4622 87.854C51.9792 87.8863 57.4481 86.8325 62.5531 84.7533L52.8006 61.0446L52.5733 61.1324Z"/><path fill="#88988B" d="M30.8257 52.2064C29.9964 50.195 29.5814 48.0387 29.6053 45.8651C29.6292 43.6915 30.0914 41.5447 30.9647 39.5517L7.93517 29.9226C5.79549 34.9773 4.68384 40.4029 4.66432 45.8866C4.64481 51.3703 5.71782 56.8036 7.82148 61.8732L30.9457 52.4951C30.9015 52.3947 30.8636 52.3068 30.8257 52.2064Z"/><path fill="#4E6E50" d="M52.8066 61.032L62.5591 84.7469C67.6696 82.6906 72.3194 79.6481 76.2397 75.7952C80.16 71.9424 83.2731 67.3556 85.399 62.3L61.6432 52.3696C59.928 56.2788 56.7633 59.3811 52.8066 61.032Z"/><path fill="#C2C677" d="M61.6494 52.3696L85.4053 62.3001C87.5423 57.2488 88.6552 51.8281 88.6801 46.3486C88.705 40.8691 87.6415 35.4385 85.5505 30.3683L61.9336 39.9284C62.7158 41.9179 63.0934 44.0418 63.0446 46.1773C62.9958 48.3127 62.5216 50.4174 61.6494 52.3696Z"/><path fill="#718044" d="M30.9523 39.5518C32.6934 35.5353 35.9567 32.3622 40.0352 30.7198L40.2626 30.6257L30.7565 7.48193C25.646 9.53717 20.9965 12.5794 17.0771 16.4324C13.1577 20.2854 10.0462 24.8728 7.92285 29.9289L30.9523 39.5518Z"/><path fill="#D9D4B5" d="M53.1412 30.8453L62.9379 7.6702C57.8558 5.5391 52.4006 4.42549 46.8848 4.39318C41.3689 4.36087 35.9009 5.41048 30.7939 7.48189L40.3064 30.6131C44.4468 28.9985 49.0626 29.082 53.1412 30.8453Z"/><path fill="#DBD36C" d="M61.8266 39.6458C61.8645 39.7463 61.9024 39.8341 61.9466 39.9346L85.5571 30.3745C83.4812 25.2932 80.4138 20.6704 76.5317 16.7726C72.6497 12.8748 68.0298 9.77913 62.9383 7.66394L53.1416 30.839C57.0814 32.5369 60.1979 35.6971 61.8266 39.6458Z"/><path fill="#DAEFDC" d="M59.7988 40.462C58.7422 37.7896 56.9097 35.49 54.5345 33.8554C52.1592 32.2208 49.3484 31.3251 46.4596 31.2823C43.5708 31.2394 40.7344 32.0513 38.3111 33.6148C35.8878 35.1782 33.9871 37.4225 32.8507 40.0623C31.7144 42.7021 31.3936 45.6181 31.9293 48.4396C32.465 51.261 33.8329 53.8604 35.8591 55.9071C37.8853 57.9539 40.4783 59.3556 43.3082 59.934C46.1381 60.5124 49.0772 60.2413 51.7517 59.1552C55.3027 57.7239 58.1407 54.9562 59.6479 51.4551C61.1551 47.9539 61.2093 44.0027 59.7988 40.462Z"/></g></svg>