<svg width="94" height="93" viewBox="0 0 94 93" fill="none" xmlns="http://www.w3.org/2000/svg">
<g opacity="0.85">
<path d="M30.5749 84.5651L28.8379 88.6389C34.4592 90.9939 40.493 92.2228 46.5932 92.2551C52.6935 92.2874 58.7401 91.1225 64.3864 88.8272L62.7252 84.7471C57.619 86.8257 52.1495 87.8798 46.6317 87.8486C41.1139 87.8173 35.6568 86.7014 30.5749 84.5651Z" fill="white"/>
<path d="M7.95576 61.8669L3.85645 63.5241C6.15861 69.1367 9.55161 74.2433 13.8414 78.5516C18.1311 82.86 23.2335 86.2856 28.8566 88.6326L30.562 84.5901C25.4758 82.4653 20.8612 79.3646 16.9822 75.4655C13.1031 71.5664 10.0358 66.9454 7.95576 61.8669Z" fill="white"/>
<path d="M30.9597 7.49451L29.2859 3.42065C23.6352 5.70021 18.494 9.06773 14.1579 13.3295C9.82189 17.5912 6.37666 22.663 4.02051 28.2529L8.09455 29.9603C10.2267 24.9022 13.3446 20.3131 17.2688 16.4574C21.193 12.6018 25.846 9.55566 30.9597 7.49451Z" fill="white"/>
<path d="M8.10718 29.9415L4.03319 28.2529C1.6692 33.8374 0.439381 39.8313 0.414449 45.8898C0.389518 51.9483 1.56997 57.9519 3.88791 63.5554L7.99348 61.8794C5.88509 56.8132 4.80948 51.3815 4.829 45.8991C4.84851 40.4167 5.96277 34.9927 8.10718 29.9415Z" fill="white"/>
<path d="M85.5771 62.2938L89.6512 63.9949C92.0168 58.4119 93.2475 52.4189 93.2724 46.3612C93.2974 40.3034 92.1161 34.3007 89.7965 28.6986L85.6845 30.3558C87.794 35.4216 88.8707 40.8531 88.8523 46.3355C88.8338 51.8179 87.7206 57.2421 85.5771 62.2938Z" fill="white"/>
<path d="M30.9658 7.48825C36.0704 5.40807 41.539 4.35316 47.0561 4.38441C52.5731 4.41565 58.0293 5.53243 63.1098 7.67029L64.8405 3.62781C59.2184 1.26773 53.1824 0.0355578 47.0794 0.00216239C40.9765 -0.031233 34.9271 1.13481 29.2793 3.43321L30.9468 7.49453L30.9658 7.48825Z" fill="white"/>
<path d="M85.7352 30.3746L89.8345 28.7112C87.5323 23.098 84.1402 17.9905 79.8517 13.6802C75.5633 9.36989 70.4625 5.94126 64.8406 3.59009L63.1289 7.63884C68.2153 9.7666 72.8299 12.8698 76.7088 16.7709C80.5878 20.6721 83.655 25.2947 85.7352 30.3746Z" fill="white"/>
<path d="M62.7314 84.747L64.4053 88.8271C70.0533 86.5483 75.1927 83.1831 79.5284 78.9249C83.8641 74.6667 87.3108 69.5993 89.6705 64.0137L85.5902 62.3126C83.4553 67.3644 80.3368 71.9471 76.4139 75.7971C72.491 79.6472 67.8411 82.6888 62.7314 84.747Z" fill="white"/>
<g opacity="0.75">
<path opacity="0.75" d="M30.5749 84.5651L28.8379 88.6389C34.4592 90.9939 40.493 92.2228 46.5932 92.2551C52.6935 92.2874 58.7401 91.1225 64.3864 88.8272L62.7252 84.7471C57.619 86.8257 52.1495 87.8798 46.6317 87.8486C41.1139 87.8173 35.6568 86.7014 30.5749 84.5651Z" fill="#B8803C"/>
<path opacity="0.75" d="M7.95576 61.8669L3.85645 63.5241C6.15861 69.1367 9.55161 74.2433 13.8414 78.5516C18.1311 82.86 23.2335 86.2856 28.8566 88.6326L30.562 84.5901C25.4758 82.4653 20.8612 79.3646 16.9822 75.4655C13.1031 71.5664 10.0358 66.9454 7.95576 61.8669Z" fill="#C6D27D"/>
<path opacity="0.75" d="M30.9597 7.49451L29.2859 3.42065C23.6352 5.70021 18.494 9.06773 14.1579 13.3295C9.82189 17.5912 6.37666 22.663 4.02051 28.2529L8.09455 29.9603C10.2267 24.9022 13.3446 20.3131 17.2688 16.4574C21.193 12.6018 25.846 9.55566 30.9597 7.49451Z" fill="#E3D778"/>
<path opacity="0.75" d="M8.10718 29.9415L4.03319 28.2529C1.6692 33.8374 0.439381 39.8313 0.414449 45.8898C0.389518 51.9483 1.56997 57.9519 3.88791 63.5554L7.99348 61.8794C5.88509 56.8132 4.80948 51.3815 4.829 45.8991C4.84851 40.4167 5.96277 34.9927 8.10718 29.9415Z" fill="#FF9314"/>
<path opacity="0.75" d="M85.5771 62.2938L89.6512 63.9949C92.0168 58.4119 93.2475 52.4189 93.2724 46.3612C93.2974 40.3034 92.1161 34.3007 89.7965 28.6986L85.6845 30.3558C87.794 35.4216 88.8707 40.8531 88.8523 46.3355C88.8338 51.8179 87.7206 57.2421 85.5771 62.2938Z" fill="#A6534E"/>
<path opacity="0.75" d="M30.9658 7.48825C36.0704 5.40807 41.539 4.35316 47.0561 4.38441C52.5731 4.41565 58.0293 5.53243 63.1098 7.67029L64.8405 3.62781C59.2184 1.26773 53.1824 0.0355578 47.0794 0.00216239C40.9765 -0.031233 34.9271 1.13481 29.2793 3.43321L30.9468 7.49453L30.9658 7.48825Z" fill="#CFB95F"/>
<path opacity="0.75" d="M85.7352 30.3746L89.8345 28.7112C87.5323 23.098 84.1402 17.9905 79.8517 13.6802C75.5633 9.36989 70.4625 5.94126 64.8406 3.59009L63.1289 7.63884C68.2153 9.7666 72.8299 12.8698 76.7088 16.7709C80.5878 20.6721 83.655 25.2947 85.7352 30.3746Z" fill="#C98B61"/>
<path opacity="0.75" d="M62.7314 84.747L64.4053 88.8271C70.0533 86.5483 75.1927 83.1831 79.5284 78.9249C83.8641 74.6667 87.3108 69.5993 89.6705 64.0137L85.5902 62.3126C83.4553 67.3644 80.3368 71.9471 76.4139 75.7971C72.491 79.6472 67.8411 82.6888 62.7314 84.747Z" fill="#764C4D"/>
</g>
<path d="M31.1056 52.4889L7.95605 61.8606C10.0351 66.9419 13.1042 71.5648 16.9871 75.4633C20.8699 79.3619 25.4898 82.4593 30.5813 84.5775L40.4159 61.302C38.3473 60.5309 36.4565 59.3529 34.8567 57.8386C33.257 56.3243 31.9811 54.5047 31.1056 52.4889Z" fill="#C6D27D"/>
<path d="M52.7451 61.1326C48.8051 62.7404 44.3972 62.7987 40.4156 61.2958L30.5811 84.565C35.6611 86.7039 41.117 87.8217 46.634 87.854C52.151 87.8863 57.6198 86.8325 62.7249 84.7533L52.9724 61.0447L52.7451 61.1326Z" fill="#B8803C"/>
<path d="M30.9975 52.2064C30.1682 50.195 29.7532 48.0387 29.7771 45.8651C29.801 43.6915 30.2632 41.5447 31.1365 39.5517L8.10704 29.9226C5.96736 34.9773 4.85571 40.4029 4.8362 45.8866C4.81669 51.3703 5.88969 56.8036 7.99335 61.8732L31.1175 52.4951C31.0733 52.3947 31.0354 52.3068 30.9975 52.2064Z" fill="#FF9314"/>
<path d="M52.9785 61.0321L62.7309 84.7471C67.8415 82.6907 72.4913 79.6482 76.4115 75.7953C80.3318 71.9425 83.4449 67.3557 85.5708 62.3L61.8151 52.3696C60.0999 56.2788 56.9352 59.3811 52.9785 61.0321Z" fill="#764C4D"/>
<path d="M61.8213 52.3697L85.577 62.3C87.7141 57.2488 88.8269 51.8281 88.8519 46.3486C88.8768 40.8691 87.8133 35.4386 85.7223 30.3684L62.1055 39.9284C62.8877 41.918 63.2653 44.0419 63.2165 46.1773C63.1677 48.3128 62.6935 50.4174 61.8213 52.3697Z" fill="#A6534E"/>
<path d="M31.1233 39.5518C32.8644 35.5353 36.1277 32.3622 40.2062 30.7198L40.4336 30.6257L30.9275 7.48193C25.817 9.53717 21.1674 12.5794 17.248 16.4324C13.3286 20.2854 10.2171 24.8728 8.09375 29.9289L31.1233 39.5518Z" fill="#E3D778"/>
<path d="M53.313 30.8453L63.1096 7.6702C58.0276 5.5391 52.5724 4.42549 47.0566 4.39318C41.5408 4.36087 36.0728 5.41048 30.9658 7.48189L40.4782 30.6131C44.6186 28.9985 49.2345 29.082 53.313 30.8453Z" fill="#CFB95F"/>
<path d="M61.9984 39.6459C62.0363 39.7464 62.0742 39.8343 62.1184 39.9347L85.7288 30.3746C83.6528 25.2933 80.5854 20.6705 76.7034 16.7727C72.8214 12.8749 68.2015 9.77914 63.1101 7.66394L53.3135 30.8391C57.2532 32.537 60.3697 35.6972 61.9984 39.6459Z" fill="#C98B61"/>
<path d="M59.9707 40.462C58.9141 37.7896 57.0817 35.49 54.7064 33.8554C52.3312 32.2208 49.5204 31.3251 46.6315 31.2823C43.7427 31.2394 40.9063 32.0513 38.483 33.6148C36.0597 35.1782 34.159 37.4225 33.0226 40.0623C31.8862 42.7021 31.5655 45.6181 32.1012 48.4396C32.6369 51.261 34.0048 53.8604 36.031 55.9071C38.0572 57.9539 40.6502 59.3556 43.4801 59.934C46.3101 60.5124 49.2492 60.2413 51.9237 59.1552C55.4746 57.7239 58.3127 54.9562 59.8199 51.4551C61.3271 47.9539 61.3813 44.0027 59.9707 40.462Z" fill="#DAEFDC"/>
</g>
</svg>
