<svg width="94" height="93" viewBox="0 0 94 93" fill="none" xmlns="http://www.w3.org/2000/svg">
<g opacity="0.85">
<path d="M30.7468 84.5649L29.0098 88.6388C34.631 90.9938 40.6648 92.2228 46.7651 92.2551C52.8654 92.2874 58.912 91.1225 64.5582 88.8271L62.897 84.747C57.7909 86.8256 52.3214 87.8797 46.8036 87.8485C41.2858 87.8172 35.8287 86.7013 30.7468 84.5649Z" fill="white"/>
<path d="M8.12762 61.8668L4.02832 63.524C6.33047 69.1366 9.72346 74.2432 14.0132 78.5516C18.3029 82.8599 23.4053 86.2856 29.0284 88.6326L30.7338 84.5901C25.6476 82.4652 21.033 79.3645 17.154 75.4654C13.275 71.5663 10.2077 66.9453 8.12762 61.8668Z" fill="white"/>
<path d="M31.1317 7.49451L29.4579 3.42065C23.8072 5.70021 18.6659 9.06773 14.3299 13.3295C9.99379 17.5912 6.54855 22.663 4.19238 28.2529L8.26644 29.9603C10.3986 24.9022 13.5166 20.3131 17.4408 16.4574C21.365 12.6018 26.018 9.55566 31.1317 7.49451Z" fill="white"/>
<path d="M8.27917 29.9415L4.20512 28.2529C1.8411 33.8374 0.611256 39.8313 0.586324 45.8898C0.561392 51.9483 1.74186 57.9519 4.05984 63.5554L8.16548 61.8794C6.05705 56.8132 4.98142 51.3815 5.00094 45.8991C5.02046 40.4167 6.13473 34.9927 8.27917 29.9415Z" fill="white"/>
<path d="M85.75 62.2938L89.824 63.9949C92.1896 58.4119 93.4202 52.4189 93.4452 46.3612C93.4701 40.3034 92.2888 34.3007 89.9693 28.6986L85.8574 30.3558C87.9668 35.4216 89.0435 40.8531 89.0251 46.3355C89.0066 51.8179 87.8934 57.2421 85.75 62.2938Z" fill="white"/>
<path d="M31.1376 7.48813C36.2423 5.40799 41.7109 4.35309 47.228 4.38434C52.745 4.41558 58.2012 5.53234 63.2816 7.67017L65.0123 3.62775C59.3903 1.26771 53.3542 0.0355572 47.2513 0.00216237C41.1484 -0.0312325 35.099 1.13479 29.4512 3.43316L31.1187 7.49441L31.1376 7.48813Z" fill="white"/>
<path d="M85.907 30.3746L90.0063 28.7112C87.7042 23.098 84.312 17.9905 80.0236 13.6802C75.7351 9.36989 70.6344 5.94126 65.0125 3.59009L63.3008 7.63884C68.3872 9.7666 73.0018 12.8698 76.8807 16.7709C80.7596 20.6721 83.8269 25.2947 85.907 30.3746Z" fill="white"/>
<path d="M62.9033 84.747L64.5772 88.8271C70.2252 86.5483 75.3646 83.1831 79.7004 78.9249C84.0362 74.6667 87.4829 69.5993 89.8427 64.0137L85.7623 62.3126C83.6274 67.3644 80.5089 71.9471 76.5859 75.7971C72.663 79.6472 68.013 82.6888 62.9033 84.747Z" fill="white"/>
<g opacity="0.75">
<path opacity="0.75" d="M30.7468 84.5649L29.0098 88.6388C34.631 90.9938 40.6648 92.2228 46.7651 92.2551C52.8654 92.2874 58.912 91.1225 64.5582 88.8271L62.897 84.747C57.7909 86.8256 52.3214 87.8797 46.8036 87.8485C41.2858 87.8172 35.8287 86.7013 30.7468 84.5649Z" fill="#A90C4F"/>
<path opacity="0.75" d="M8.12762 61.8668L4.02832 63.524C6.33047 69.1366 9.72346 74.2432 14.0132 78.5516C18.3029 82.8599 23.4053 86.2856 29.0284 88.6326L30.7338 84.5901C25.6476 82.4652 21.033 79.3645 17.154 75.4654C13.275 71.5663 10.2077 66.9453 8.12762 61.8668Z" fill="#740B57"/>
<path opacity="0.75" d="M31.1317 7.49451L29.4579 3.42065C23.8072 5.70021 18.6659 9.06773 14.3299 13.3295C9.99379 17.5912 6.54855 22.663 4.19238 28.2529L8.26644 29.9603C10.3986 24.9022 13.5166 20.3131 17.4408 16.4574C21.365 12.6018 26.018 9.55566 31.1317 7.49451Z" fill="#D4D3B8"/>
<path opacity="0.75" d="M8.27917 29.9415L4.20512 28.2529C1.8411 33.8374 0.611256 39.8313 0.586324 45.8898C0.561392 51.9483 1.74186 57.9519 4.05984 63.5554L8.16548 61.8794C6.05705 56.8132 4.98142 51.3815 5.00094 45.8991C5.02046 40.4167 6.13473 34.9927 8.27917 29.9415Z" fill="#C1287C"/>
<path opacity="0.75" d="M85.75 62.2938L89.824 63.9949C92.1896 58.4119 93.4202 52.4189 93.4452 46.3612C93.4701 40.3034 92.2888 34.3007 89.9693 28.6986L85.8574 30.3558C87.9668 35.4216 89.0435 40.8531 89.0251 46.3355C89.0066 51.8179 87.8934 57.2421 85.75 62.2938Z" fill="#C9B2C6"/>
<path opacity="0.75" d="M31.1376 7.48813C36.2423 5.40799 41.7109 4.35309 47.228 4.38434C52.745 4.41558 58.2012 5.53234 63.2816 7.67017L65.0123 3.62775C59.3903 1.26771 53.3542 0.0355572 47.2513 0.00216237C41.1484 -0.0312325 35.099 1.13479 29.4512 3.43316L31.1187 7.49441L31.1376 7.48813Z" fill="#C2CF70"/>
<path opacity="0.75" d="M85.907 30.3746L90.0063 28.7112C87.7042 23.098 84.312 17.9905 80.0236 13.6802C75.7351 9.36989 70.6344 5.94126 65.0125 3.59009L63.3008 7.63884C68.3872 9.7666 73.0018 12.8698 76.8807 16.7709C80.7596 20.6721 83.8269 25.2947 85.907 30.3746Z" fill="#F9F5F4"/>
<path opacity="0.75" d="M62.9033 84.747L64.5772 88.8271C70.2252 86.5483 75.3646 83.1831 79.7004 78.9249C84.0362 74.6667 87.4829 69.5993 89.8427 64.0137L85.7623 62.3126C83.6274 67.3644 80.5089 71.9471 76.5859 75.7971C72.663 79.6472 68.013 82.6888 62.9033 84.747Z" fill="#564750"/>
</g>
<path d="M31.2774 52.4889L8.12793 61.8606C10.2069 66.9419 13.2761 71.5648 17.1589 75.4633C21.0418 79.3619 25.6617 82.4593 30.7532 84.5775L40.5878 61.302C38.5192 60.5309 36.6284 59.3529 35.0286 57.8386C33.4289 56.3243 32.153 54.5047 31.2774 52.4889Z" fill="#740B57"/>
<path d="M52.917 61.1324C48.977 62.7403 44.5692 62.7986 40.5875 61.2956L30.7529 84.565C35.8329 86.7039 41.2889 87.8217 46.8059 87.854C52.323 87.8863 57.7918 86.8325 62.8969 84.7533L53.1444 61.0446L52.917 61.1324Z" fill="#A90C4F"/>
<path d="M31.1694 52.2064C30.3401 50.195 29.9251 48.0387 29.949 45.8651C29.9728 43.6915 30.4351 41.5447 31.3083 39.5517L8.27892 29.9226C6.13923 34.9773 5.02759 40.4029 5.00807 45.8866C4.98856 51.3703 6.06157 56.8036 8.16522 61.8732L31.2894 52.4951C31.2452 52.3947 31.2073 52.3068 31.1694 52.2064Z" fill="#C1287C"/>
<path d="M53.1504 61.032L62.9029 84.7469C68.0135 82.6906 72.6633 79.6481 76.5836 75.7952C80.5039 71.9424 83.617 67.3556 85.7429 62.3L61.987 52.3696C60.2718 56.2788 57.1071 59.3811 53.1504 61.032Z" fill="#564750"/>
<path d="M61.9932 52.3696L85.7489 62.3001C87.8859 57.2488 88.9988 51.8281 89.0237 46.3486C89.0487 40.8691 87.9852 35.4385 85.8942 30.3683L62.2774 39.9284C63.0596 41.9179 63.4372 44.0418 63.3884 46.1773C63.3396 48.3127 62.8654 50.4174 61.9932 52.3696Z" fill="#C9B2C6"/>
<path d="M31.296 39.5518C33.0372 35.5353 36.3004 32.3622 40.3789 30.7198L40.6063 30.6257L31.1002 7.48193C25.9898 9.53717 21.3402 12.5794 17.4208 16.4324C13.5014 20.2854 10.39 24.8728 8.2666 29.9289L31.296 39.5518Z" fill="#D4D3B8"/>
<path d="M53.4849 30.8453L63.2815 7.6702C58.1995 5.5391 52.7443 4.42549 47.2285 4.39318C41.7127 4.36087 36.2446 5.41048 31.1377 7.48189L40.6501 30.6131C44.7905 28.9985 49.4063 29.082 53.4849 30.8453Z" fill="#C2CF70"/>
<path d="M62.1703 39.6458C62.2082 39.7463 62.2461 39.8341 62.2903 39.9346L85.9009 30.3745C83.8249 25.2932 80.7575 20.6704 76.8755 16.7726C72.9934 12.8748 68.3735 9.77913 63.282 7.66394L53.4854 30.839C57.4251 32.5369 60.5416 35.6971 62.1703 39.6458Z" fill="#F9F5F4"/>
<path d="M60.1426 40.462C59.086 37.7896 57.2536 35.49 54.8783 33.8554C52.503 32.2208 49.6923 31.3251 46.8034 31.2823C43.9146 31.2394 41.0781 32.0513 38.6548 33.6148C36.2316 35.1782 34.3309 37.4225 33.1945 40.0623C32.0581 42.7021 31.7374 45.6181 32.2731 48.4396C32.8088 51.261 34.1767 53.8604 36.2029 55.9071C38.2291 57.9539 40.8221 59.3556 43.652 59.934C46.482 60.5124 49.4211 60.2413 52.0956 59.1552C55.6465 57.7239 58.4846 54.9562 59.9918 51.4551C61.499 47.9539 61.5532 44.0027 60.1426 40.462Z" fill="#DAEFDC"/>
</g>
</svg>
