<svg width="94" height="93" viewBox="0 0 94 93" fill="none" xmlns="http://www.w3.org/2000/svg">
<g opacity="0.85">
<path d="M30.9186 84.5651L29.1816 88.6389C34.8029 90.9939 40.8367 92.2228 46.937 92.2551C53.0372 92.2874 59.0839 91.1225 64.7301 88.8272L63.0689 84.7471C57.9628 86.8257 52.4933 87.8798 46.9755 87.8486C41.4576 87.8173 36.0006 86.7014 30.9186 84.5651Z" fill="white"/>
<path d="M8.29949 61.8669L4.2002 63.5241C6.50235 69.1367 9.89533 74.2433 14.1851 78.5516C18.4748 82.86 23.5771 86.2856 29.2002 88.6326L30.9056 84.5901C25.8195 82.4653 21.2049 79.3646 17.3259 75.4655C13.4468 71.5664 10.3795 66.9454 8.29949 61.8669Z" fill="white"/>
<path d="M31.3035 7.49451L29.6296 3.42065C23.979 5.70021 18.8377 9.06773 14.5017 13.3295C10.1656 17.5912 6.72041 22.663 4.36426 28.2529L8.4383 29.9603C10.5704 24.9022 13.6884 20.3131 17.6126 16.4574C21.5368 12.6018 26.1897 9.55566 31.3035 7.49451Z" fill="white"/>
<path d="M8.45117 29.9415L4.37705 28.2529C2.01299 33.8374 0.783132 39.8313 0.758199 45.8898C0.733267 51.9483 1.91375 57.9519 4.23177 63.5554L8.33747 61.8794C6.22901 56.8132 5.15337 51.3815 5.17289 45.8991C5.1924 40.4167 6.30669 34.9927 8.45117 29.9415Z" fill="white"/>
<path d="M85.9219 62.2938L89.9959 63.9949C92.3614 58.4119 93.5921 52.4189 93.617 46.3612C93.642 40.3034 92.4607 34.3007 90.1412 28.6986L86.0293 30.3558C88.1387 35.4216 89.2154 40.8531 89.1969 46.3355C89.1785 51.8179 88.0653 57.2421 85.9219 62.2938Z" fill="white"/>
<path d="M31.3095 7.48825C36.4142 5.40807 41.8828 4.35316 47.3998 4.38441C52.9169 4.41565 58.3731 5.53243 63.4535 7.67029L65.1842 3.62781C59.5622 1.26773 53.5261 0.0355578 47.4232 0.00216239C41.3202 -0.031233 35.2709 1.13481 29.623 3.43321L31.2906 7.49453L31.3095 7.48825Z" fill="white"/>
<path d="M86.0789 30.3746L90.1782 28.7112C87.8761 23.098 84.4839 17.9905 80.1955 13.6802C75.907 9.36989 70.8062 5.94126 65.1844 3.59009L63.4727 7.63884C68.5591 9.7666 73.1737 12.8698 77.0526 16.7709C80.9315 20.6721 83.9987 25.2947 86.0789 30.3746Z" fill="white"/>
<path d="M63.0752 84.747L64.749 88.8271C70.3971 86.5483 75.5365 83.1831 79.8723 78.9249C84.2081 74.6667 87.6548 69.5993 90.0145 64.0137L85.9342 62.3126C83.7993 67.3644 80.6807 71.9471 76.7578 75.7971C72.8349 79.6472 68.1849 82.6888 63.0752 84.747Z" fill="white"/>
<g opacity="0.75">
<path opacity="0.75" d="M30.9186 84.5651L29.1816 88.6389C34.8029 90.9939 40.8367 92.2228 46.937 92.2551C53.0372 92.2874 59.0839 91.1225 64.7301 88.8272L63.0689 84.7471C57.9628 86.8257 52.4933 87.8798 46.9755 87.8486C41.4576 87.8173 36.0006 86.7014 30.9186 84.5651Z" fill="#2F6761"/>
<path opacity="0.75" d="M8.29949 61.8669L4.2002 63.5241C6.50235 69.1367 9.89533 74.2433 14.1851 78.5516C18.4748 82.86 23.5771 86.2856 29.2002 88.6326L30.9056 84.5901C25.8195 82.4653 21.2049 79.3646 17.3259 75.4655C13.4468 71.5664 10.3795 66.9454 8.29949 61.8669Z" fill="#579F78"/>
<path opacity="0.75" d="M31.3035 7.49451L29.6296 3.42065C23.979 5.70021 18.8377 9.06773 14.5017 13.3295C10.1656 17.5912 6.72041 22.663 4.36426 28.2529L8.4383 29.9603C10.5704 24.9022 13.6884 20.3131 17.6126 16.4574C21.5368 12.6018 26.1897 9.55566 31.3035 7.49451Z" fill="#61BDB4"/>
<path opacity="0.75" d="M8.45117 29.9415L4.37705 28.2529C2.01299 33.8374 0.783132 39.8313 0.758199 45.8898C0.733267 51.9483 1.91375 57.9519 4.23177 63.5554L8.33747 61.8794C6.22901 56.8132 5.15337 51.3815 5.17289 45.8991C5.1924 40.4167 6.30669 34.9927 8.45117 29.9415Z" fill="#318B70"/>
<path opacity="0.75" d="M85.9219 62.2938L89.9959 63.9949C92.3614 58.4119 93.5921 52.4189 93.617 46.3612C93.642 40.3034 92.4607 34.3007 90.1412 28.6986L86.0293 30.3558C88.1387 35.4216 89.2154 40.8531 89.1969 46.3355C89.1785 51.8179 88.0653 57.2421 85.9219 62.2938Z" fill="#63C1A7"/>
<path opacity="0.75" d="M31.3095 7.48825C36.4142 5.40807 41.8828 4.35316 47.3998 4.38441C52.9169 4.41565 58.3731 5.53243 63.4535 7.67029L65.1842 3.62781C59.5622 1.26773 53.5261 0.0355578 47.4232 0.00216239C41.3202 -0.031233 35.2709 1.13481 29.623 3.43321L31.2906 7.49453L31.3095 7.48825Z" fill="#666064"/>
<path opacity="0.75" d="M86.0789 30.3746L90.1782 28.7112C87.8761 23.098 84.4839 17.9905 80.1955 13.6802C75.907 9.36989 70.8062 5.94126 65.1844 3.59009L63.4727 7.63884C68.5591 9.7666 73.1737 12.8698 77.0526 16.7709C80.9315 20.6721 83.9987 25.2947 86.0789 30.3746Z" fill="#D2C9BF"/>
<path opacity="0.75" d="M63.0752 84.747L64.749 88.8271C70.3971 86.5483 75.5365 83.1831 79.8723 78.9249C84.2081 74.6667 87.6548 69.5993 90.0145 64.0137L85.9342 62.3126C83.7993 67.3644 80.6807 71.9471 76.7578 75.7971C72.8349 79.6472 68.1849 82.6888 63.0752 84.747Z" fill="#189D8D"/>
</g>
<path d="M31.4492 52.4889L8.2998 61.8606C10.3788 66.9419 13.448 71.5648 17.3308 75.4633C21.2136 79.3619 25.8335 82.4593 30.925 84.5775L40.7595 61.302C38.6909 60.5309 36.8001 59.3529 35.2004 57.8386C33.6006 56.3243 32.3248 54.5047 31.4492 52.4889Z" fill="#579F78"/>
<path d="M53.089 61.1326C49.149 62.7404 44.7411 62.7987 40.7594 61.2958L30.9248 84.565C36.0048 86.7039 41.4608 87.8217 46.9779 87.854C52.4949 87.8863 57.9638 86.8325 63.0688 84.7533L53.3164 61.0447L53.089 61.1326Z" fill="#2F6761"/>
<path d="M31.3414 52.2064C30.5121 50.195 30.0971 48.0387 30.121 45.8651C30.1448 43.6915 30.6071 41.5447 31.4803 39.5517L8.45081 29.9226C6.31112 34.9773 5.19946 40.4029 5.17995 45.8866C5.16044 51.3703 6.23345 56.8036 8.33711 61.8732L31.4614 52.4951C31.4172 52.3947 31.3793 52.3068 31.3414 52.2064Z" fill="#318B70"/>
<path d="M53.3223 61.0321L63.0747 84.7471C68.1852 82.6907 72.835 79.6482 76.7553 75.7953C80.6756 71.9425 83.7886 67.3557 85.9146 62.3L62.1588 52.3696C60.4436 56.2788 57.279 59.3811 53.3223 61.0321Z" fill="#189D8D"/>
<path d="M62.165 52.3697L85.9209 62.3C88.0579 57.2488 89.1708 51.8281 89.1957 46.3486C89.2207 40.8691 88.1572 35.4386 86.0662 30.3684L62.4493 39.9284C63.2314 41.918 63.609 44.0419 63.5603 46.1773C63.5115 48.3128 63.0373 50.4174 62.165 52.3697Z" fill="#63C1A7"/>
<path d="M31.4679 39.5518C33.209 35.5353 36.4723 32.3622 40.5508 30.7198L40.7782 30.6257L31.2721 7.48193C26.1616 9.53717 21.5121 12.5794 17.5927 16.4324C13.6733 20.2854 10.5619 24.8728 8.43848 29.9289L31.4679 39.5518Z" fill="#61BDB4"/>
<path d="M53.6568 30.8453L63.4535 7.6702C58.3715 5.5391 52.9163 4.42549 47.4004 4.39318C41.8846 4.36087 36.4165 5.41048 31.3096 7.48189L40.822 30.6131C44.9624 28.9985 49.5783 29.082 53.6568 30.8453Z" fill="#666064"/>
<path d="M62.3422 39.6459C62.3801 39.7464 62.418 39.8343 62.4622 39.9347L86.0726 30.3746C83.9967 25.2933 80.9293 20.6705 77.0472 16.7727C73.1652 12.8749 68.5453 9.77914 63.4539 7.66394L53.6572 30.8391C57.597 32.537 60.7135 35.6972 62.3422 39.6459Z" fill="#D2C9BF"/>
<path d="M60.3144 40.462C59.2578 37.7896 57.4253 35.49 55.0501 33.8554C52.6748 32.2208 49.8641 31.3251 46.9752 31.2823C44.0864 31.2394 41.25 32.0513 38.8267 33.6148C36.4034 35.1782 34.5027 37.4225 33.3664 40.0623C32.23 42.7021 31.9093 45.6181 32.445 48.4396C32.9806 51.261 34.3486 53.8604 36.3748 55.9071C38.401 57.9539 40.9939 59.3556 43.8238 59.934C46.6538 60.5124 49.5929 60.2413 52.2674 59.1552C55.8183 57.7239 58.6564 54.9562 60.1636 51.4551C61.6707 47.9539 61.7249 44.0027 60.3144 40.462Z" fill="#DAEFDC"/>
</g>
</svg>
