<svg width="171" height="68" viewBox="0 0 171 68" fill="none" xmlns="http://www.w3.org/2000/svg">
<path d="M23.2243 25.6106C22.8774 25.6106 22.5457 25.7905 22.3647 26.0904L18.9866 31.6833C18.7152 32.1332 18.881 32.538 18.9715 32.688C19.062 32.8379 19.3184 33.1978 19.8462 33.1978H25.0792C25.3356 33.1978 25.5769 33.0628 25.7126 32.8379C26.3611 31.7733 27.5524 31.0985 28.8041 31.0985H34.6856C36.1032 31.0985 37.37 31.8333 38.0637 33.0628C38.7574 34.2924 38.7423 35.7468 38.0184 36.9614L34.6404 42.5543C33.9467 43.7089 32.6648 44.4286 31.3075 44.4286H10.7827C14.2814 49.6917 20.2986 53.1704 27.1302 53.1704C37.943 53.1704 46.72 44.4586 46.72 33.6926C46.72 30.7986 46.0866 28.0547 44.9405 25.5806H23.2243V25.6106Z" fill="black"/>
<path d="M31.3077 41.5797C31.6546 41.5797 31.9863 41.3998 32.1673 41.0999L35.5454 35.5069C35.8168 35.0571 35.6509 34.6523 35.5605 34.5023C35.47 34.3524 35.2136 33.9925 34.6858 33.9925H28.8043C28.5479 33.9925 28.3066 34.1274 28.1709 34.3524C27.5224 35.417 26.3311 36.0917 25.0794 36.0917H19.8464C18.4288 36.0917 17.162 35.357 16.4683 34.1274C15.7746 32.8979 15.7897 31.4434 16.5135 30.2289L19.8916 24.6359C20.5853 23.4814 21.8672 22.7616 23.2245 22.7616H43.3119C39.7831 17.6185 33.8563 14.2448 27.1304 14.2448C16.3175 14.2448 7.54053 22.9565 7.54053 33.7226C7.54053 36.5266 8.12867 39.1806 9.1994 41.5947H31.3077V41.5797Z" fill="black"/>
<path d="M54.2002 28.8952C54.1097 28.8952 54.0192 28.9252 53.9438 28.9851C53.8684 29.0451 53.8232 29.1201 53.793 29.1951C53.793 29.1951 53.7779 29.255 53.7478 29.39C53.7176 29.5099 53.6724 29.6599 53.6422 29.8398C53.597 30.0048 53.5517 30.1547 53.5216 30.3046C53.4763 30.4546 53.4612 30.5596 53.4462 30.6045C53.4311 30.7395 53.4462 30.8594 53.5366 30.9494C53.6121 31.0544 53.7176 31.0994 53.8383 31.0994C53.8835 31.0994 54.1399 31.0994 54.6074 31.0994C55.09 31.0994 55.648 31.0994 56.2813 31.0994C56.9298 31.0994 57.518 31.0994 58.0458 31.0994C58.5736 31.0994 58.9054 31.0994 59.026 31.0994C59.9761 31.0994 60.7452 31.4742 61.3183 32.2239C61.8914 32.9587 62.0572 33.8134 61.8461 34.788C61.8461 34.803 61.8461 34.803 61.831 34.818C61.831 34.833 61.8009 34.9529 61.7406 35.2078C61.6802 35.4478 61.6199 35.7326 61.5294 36.0625C61.454 36.4074 61.3786 36.7073 61.3032 36.9772C61.2429 37.2621 61.1826 37.442 61.1826 37.532C60.9865 38.2367 60.6246 38.8065 60.0666 39.2414C59.5086 39.6762 58.8601 39.9011 58.1363 39.9011C58.1363 39.9011 58.1212 39.9011 58.1061 39.9011C58.0156 39.9011 57.4727 39.9011 56.5226 39.9011C55.5725 39.9011 54.4415 39.9011 53.1596 39.9011C51.8778 39.9011 50.7015 39.9011 49.6458 39.9011C48.5902 39.9011 47.9719 39.9011 47.7607 39.9011C47.7607 39.9011 47.7909 39.7512 47.8663 39.4513C47.9417 39.1514 48.0322 38.7915 48.1227 38.3867C48.2132 37.9818 48.3187 37.622 48.3941 37.2621C48.4846 36.9172 48.5299 36.7073 48.56 36.6023C48.6505 36.6023 49.118 36.6023 49.9474 36.6023C50.792 36.6023 51.7722 36.6023 52.9183 36.6023C54.0645 36.6023 55.09 36.6023 56.0099 36.6023C56.9449 36.6023 57.5029 36.6023 57.6688 36.6023C57.8648 36.6023 58.0156 36.4974 58.091 36.3024C58.091 36.3024 58.1061 36.2425 58.1513 36.1075C58.1664 35.9876 58.2117 35.8376 58.2418 35.6577C58.2871 35.4927 58.3323 35.3278 58.3625 35.1779C58.3926 35.0429 58.4228 34.9379 58.4379 34.878C58.4831 34.758 58.468 34.6381 58.3926 34.5331C58.3172 34.4281 58.2117 34.3681 58.091 34.3681C58.1061 34.3681 58.1061 34.3681 58.1061 34.3681C58.1061 34.3681 58.091 34.3681 58.0759 34.3681C58.0156 34.3681 57.7592 34.3681 57.2917 34.3681C56.8092 34.3681 56.2512 34.3681 55.6027 34.3681C54.9693 34.3681 54.3661 34.3681 53.8383 34.3681C53.3104 34.3681 52.9937 34.3681 52.8731 34.3681C51.9079 34.3681 51.1388 34.0083 50.5657 33.2736C49.9927 32.5388 49.8117 31.6841 50.0379 30.7095C50.0379 30.6945 50.0379 30.6945 50.0379 30.6795C50.0379 30.6795 50.053 30.6495 50.053 30.5895C50.0982 30.4246 50.1586 30.1547 50.2491 29.7798C50.3395 29.405 50.4451 29.0151 50.5205 28.6553C50.611 28.2954 50.6713 28.0705 50.7015 27.9505C51.3047 26.4211 52.3151 25.6414 53.7327 25.6414C53.7478 25.6414 53.7478 25.6414 53.7629 25.6414C53.8684 25.6414 54.3962 25.6414 55.3463 25.6414C56.2964 25.6414 57.4275 25.6414 58.7244 25.6414C60.0063 25.6414 61.1826 25.6414 62.2382 25.6414C63.2939 25.6414 63.9122 25.6414 64.1233 25.6414C64.1233 25.6414 64.0931 25.7913 64.0177 26.0912C63.9423 26.3911 63.8518 26.751 63.7614 27.1558C63.6709 27.5457 63.5804 27.9205 63.4899 28.2504C63.3994 28.5953 63.3542 28.8052 63.324 28.9102C63.2335 28.9102 62.766 28.9102 61.9366 28.9102C61.0921 28.9102 60.1118 28.9102 58.9657 28.9102C57.8347 28.9102 56.7941 28.9102 55.8591 28.9102C54.9392 28.8952 54.3812 28.8952 54.2002 28.8952Z" fill="black"/>
<path d="M69.8691 28.8644H65.1187L65.9179 25.6255H78.6159L77.8015 28.8644H73.2019L70.4421 39.8853H67.049L69.8691 28.8644Z" fill="black"/>
<path d="M79.7167 27.9797C80.2747 26.4053 81.27 25.6255 82.6725 25.6255H93.1084L89.6398 39.8853H86.2467L87.2118 35.9568L88.931 28.8943H83.1702C83.0948 28.8943 83.0043 28.9243 82.9289 28.9843C82.8384 29.0443 82.7932 29.1343 82.763 29.2392L81.9185 32.688H87.0158L86.2014 35.9717H81.1343L80.1842 39.9003H76.8062L79.7167 27.9797Z" fill="black"/>
<path d="M97.6777 25.6255H104.69C105.686 25.6255 106.5 26.0004 107.118 26.7351C107.752 27.4699 107.948 28.3246 107.752 29.2842C107.752 29.2992 107.737 29.4042 107.691 29.5991C107.646 29.794 107.601 30.0189 107.54 30.2738C107.48 30.5437 107.405 30.7986 107.329 31.0236C107.254 31.2635 107.194 31.4434 107.118 31.5484C106.877 31.9232 106.56 32.2531 106.198 32.493C105.821 32.7329 105.52 32.8829 105.278 32.9579C105.293 32.9579 105.339 32.9878 105.399 33.0328C105.459 33.0928 105.52 33.1528 105.595 33.2128C105.655 33.2727 105.701 33.3177 105.731 33.3627C106.259 34.0674 106.424 34.8322 106.259 35.6719V35.6868C106.244 35.7618 106.198 35.9268 106.138 36.1667C106.078 36.4366 106.017 36.6915 105.942 36.9614C105.882 37.2313 105.821 37.4112 105.791 37.5162C105.218 39.0906 104.193 39.8703 102.73 39.8703C102.624 39.8703 102.066 39.8703 101.056 39.8703C100.045 39.8703 98.854 39.8703 97.4816 39.8703C96.1093 39.8703 94.8727 39.8703 93.7416 39.8703C92.6257 39.8703 91.9621 39.8703 91.751 39.8703C91.751 39.8703 91.8867 39.3155 92.1581 38.1609C92.4296 37.0364 92.7463 35.7168 93.1082 34.2324C93.4702 32.7479 93.8019 31.3984 94.1036 30.1839C94.3901 28.9843 94.5711 28.2346 94.6314 27.9647C95.1894 26.4053 96.2149 25.6255 97.6777 25.6255ZM96.0942 36.6165H102.142C102.202 36.6165 102.262 36.5865 102.323 36.5265C102.383 36.4666 102.428 36.4216 102.458 36.3616C102.488 36.3016 102.519 36.2566 102.519 36.2416C102.534 36.2266 102.534 36.2117 102.549 36.1517C102.564 36.0917 102.564 36.0317 102.594 35.9567C102.609 35.8818 102.624 35.8068 102.654 35.7468C102.669 35.6868 102.669 35.6269 102.684 35.5969C102.76 35.297 102.7 35.0121 102.488 34.7572C102.292 34.5173 102.021 34.3973 101.674 34.3973C101.674 34.3973 101.659 34.3973 101.644 34.3973C101.584 34.3973 101.342 34.3973 100.875 34.3973C100.422 34.3973 99.8795 34.3973 99.2612 34.3973C98.6429 34.3973 98.0849 34.3973 97.557 34.3973C97.0443 34.3973 96.7427 34.3973 96.622 34.3973C96.622 34.3973 96.607 34.4873 96.5466 34.6972C96.4863 34.8921 96.4411 35.1321 96.3807 35.402C96.3204 35.6719 96.2601 35.9268 96.1998 36.1367C96.1395 36.3916 96.0942 36.5415 96.0942 36.6165ZM97.8285 29.2392L97.4062 31.0835C97.4666 31.0835 97.738 31.0835 98.2357 31.0835C98.7484 31.0835 99.3366 31.0835 100.015 31.0835C100.694 31.0835 101.327 31.0835 101.9 31.0835C102.458 31.0835 102.805 31.0835 102.926 31.0835C103.167 31.0835 103.378 31.0236 103.559 30.8886C103.755 30.7687 103.861 30.5737 103.921 30.3488C103.921 30.3488 103.936 30.3038 103.966 30.2289C103.981 30.1389 104.012 30.0489 104.042 29.929C104.072 29.809 104.102 29.704 104.132 29.6141C104.147 29.5091 104.177 29.4341 104.193 29.3892C104.208 29.2692 104.177 29.1493 104.102 29.0443C104.012 28.9543 103.906 28.8943 103.785 28.8943C103.74 28.8943 103.469 28.8943 102.956 28.8943C102.458 28.8943 101.855 28.8943 101.176 28.8943C100.498 28.8943 99.8644 28.8943 99.3064 28.8943C98.7484 28.8943 98.3865 28.8943 98.2658 28.8943C98.1904 28.8943 98.1 28.9243 98.0245 28.9843C97.9341 29.0443 97.8737 29.1343 97.8285 29.2392Z" fill="black"/>
<path d="M110.059 27.9797C110.662 26.4053 111.673 25.6255 113.075 25.6255H113.98L110.542 39.8853H107.133L110.059 27.9797Z" fill="black"/>
<path d="M115.669 27.9797C115.85 27.2749 116.227 26.6902 116.8 26.2703C117.373 25.8355 118.022 25.6255 118.761 25.6255H119.771L117.238 36.1217C117.223 36.2416 117.253 36.3766 117.328 36.4666C117.419 36.5565 117.524 36.6165 117.66 36.6165L126.075 36.6315C126.045 36.7365 126.015 36.8714 125.969 37.0513C125.894 37.3662 125.804 37.7261 125.713 38.131C125.607 38.5358 125.517 38.8957 125.442 39.2255C125.366 39.5704 125.306 39.7803 125.276 39.8853H116.74C115.715 39.8853 114.9 39.5104 114.267 38.7757C113.633 38.041 113.437 37.1863 113.648 36.2267L115.669 27.9797Z" fill="black"/>
<path d="M130.056 27.9797C130.659 26.4053 131.67 25.6255 133.072 25.6255H133.977L130.524 39.8853H127.13L130.056 27.9797Z" fill="black"/>
<path d="M139.829 28.8644H135.078L135.877 25.6255H148.575L147.761 28.8644H143.161L140.417 39.8853H137.024L139.829 28.8644Z" fill="black"/>
<path d="M163.656 25.6255L156.734 33.6026L155.256 39.8853H151.637L153.205 33.3327L149.269 25.6255H153.25L155.467 29.9889L159.343 25.6255H163.656Z" fill="black"/>
<path d="M47.0215 43.0792C47.2025 42.5993 47.5192 42.3594 47.9415 42.3594H48.2129L47.1573 46.7078H46.1167L47.0215 43.0792Z" fill="black"/>
<path d="M49.6305 43.0792C49.8115 42.5993 50.1131 42.3594 50.5504 42.3594H50.8219L52.7371 44.6086L53.2499 42.3594H54.2904L53.2348 46.7078H52.2093L52.4053 45.8981L50.5202 43.649L49.7813 46.6928H48.7407L49.6305 43.0792Z" fill="black"/>
<path d="M56.5376 43.3491H55.0898L55.3311 42.3594H59.1918L58.9505 43.3491H57.548L56.7035 46.7078H55.678L56.5376 43.3491Z" fill="black"/>
<path d="M60.579 43.0792C60.7599 42.5993 61.0616 42.3594 61.514 42.3594H64.515L64.2737 43.3491H62.5244H61.6799C61.6497 43.3491 61.6346 43.3641 61.6045 43.3791C61.5743 43.3941 61.5592 43.424 61.5441 43.454L61.4084 44.0238H63.1728L62.9466 45.0135H61.1671L61.0314 45.5383C61.0314 45.5833 61.0314 45.6132 61.0616 45.6432C61.0766 45.6732 61.1219 45.6882 61.152 45.6882H63.6856C63.6102 45.9881 63.5348 46.318 63.4443 46.6779H60.8806C60.579 46.6779 60.3377 46.5579 60.1416 46.333C59.9607 46.1081 59.8853 45.8532 59.9607 45.5533L60.579 43.0792Z" fill="black"/>
<path d="M67.3653 45.2984H66.7018C66.7018 45.2984 66.6867 45.3583 66.6565 45.4783C66.6264 45.6133 66.5811 45.7632 66.551 45.9431C66.5057 46.1231 66.4756 46.288 66.4303 46.438C66.4001 46.5879 66.37 46.6779 66.37 46.7079H65.2842L66.1739 43.0942C66.3398 42.6144 66.6565 42.3745 67.0939 42.3745H69.2051C69.5068 42.3745 69.7481 42.4944 69.929 42.7193C70.11 42.9442 70.1854 43.1991 70.11 43.499C70.11 43.499 70.0949 43.559 70.0647 43.694C70.0346 43.8139 69.9893 43.9639 69.9592 44.1438C69.9139 44.3087 69.8838 44.4737 69.8385 44.6236C69.7933 44.8335 69.6726 44.9985 69.5068 45.1334C69.3409 45.2684 69.1448 45.3284 68.9186 45.3284H68.5265L69.371 46.7378H68.2098L67.3653 45.2984ZM69.0543 43.499C69.0543 43.4541 69.0543 43.4241 69.0242 43.3941C68.994 43.3641 68.9639 43.3491 68.9337 43.3491H67.2597C67.2447 43.3491 67.2145 43.3641 67.1843 43.3791C67.1542 43.3941 67.1391 43.4241 67.1391 43.454C67.1391 43.454 67.0788 43.724 66.9581 44.2787H68.7527C68.8131 44.2787 68.8583 44.2488 68.8885 44.1888C68.8734 44.1888 68.9337 43.9639 69.0543 43.499Z" fill="black"/>
<path d="M71.8443 43.0792C72.0253 42.5993 72.3269 42.3594 72.7642 42.3594H73.0357L74.9509 44.6086L75.4637 42.3594H76.5042L75.4486 46.7078H74.4231L74.6192 45.8981L72.719 43.664L71.98 46.7078H70.9395L71.8443 43.0792Z" fill="black"/>
<path d="M77.9523 43.0792C78.1182 42.5993 78.4198 42.3594 78.8571 42.3594H82.0391L80.9835 46.7078H79.958L80.2596 45.5083L80.7874 43.3641H79.0381C79.0079 43.3641 78.9928 43.3791 78.9627 43.3941C78.9325 43.409 78.9174 43.439 78.9174 43.469L78.6611 44.5186H80.2144L79.9731 45.5233H78.4198L78.1332 46.7228H77.0625L77.9523 43.0792Z" fill="black"/>
<path d="M84.271 43.3491H82.8232L83.0645 42.3594H86.9252L86.6839 43.3491H85.2814L84.4369 46.7078H83.4114L84.271 43.3491Z" fill="black"/>
<path d="M88.3878 43.0792C88.5687 42.5993 88.8854 42.3594 89.3077 42.3594H89.5791L88.5235 46.7078H87.4829L88.3878 43.0792Z" fill="black"/>
<path d="M90.9818 43.0792C91.1779 42.5993 91.5097 42.3594 91.9772 42.3594C91.9772 42.3594 91.9772 42.3594 91.9923 42.3594C92.0073 42.3594 92.128 42.3594 92.3391 42.3594C92.5502 42.3594 92.7915 42.3594 93.063 42.3594C93.3344 42.3594 93.5908 42.3594 93.817 42.3594C94.0432 42.3594 94.179 42.3594 94.2242 42.3594C94.5409 42.3594 94.7973 42.4794 95.0084 42.7043C95.2045 42.9292 95.2799 43.1841 95.2195 43.484C95.2195 43.484 95.1894 43.574 95.1441 43.7839C95.0838 44.0088 95.0235 44.2787 94.9481 44.6086C94.8727 44.9235 94.7973 45.2234 94.7219 45.4933C94.6615 45.7632 94.6163 45.9281 94.6012 46.0031C94.4353 46.4829 94.1036 46.7228 93.6059 46.7228C93.5908 46.7228 93.4702 46.7228 93.259 46.7228C93.0479 46.7228 92.8066 46.7228 92.5352 46.7228C92.2637 46.7228 92.0073 46.7228 91.7811 46.7228C91.5549 46.7228 91.4192 46.7228 91.374 46.7228C91.0422 46.7228 90.7858 46.6029 90.5747 46.378C90.3786 46.153 90.3032 45.8981 90.3635 45.5982C90.3635 45.5982 90.3937 45.4783 90.454 45.2384C90.5143 44.9985 90.5747 44.7286 90.6501 44.4137C90.7255 44.0988 90.8009 43.8139 90.8612 43.559C90.9215 43.3041 90.9517 43.1391 90.9818 43.0792ZM93.4099 45.7032C93.4702 45.7032 93.5154 45.6732 93.5456 45.5982C93.5456 45.5982 93.5607 45.4933 93.621 45.2984C93.6662 45.1034 93.7265 44.8785 93.7869 44.6086C93.8472 44.3537 93.9075 44.1138 93.9678 43.9039C94.0131 43.6939 94.0583 43.559 94.0583 43.499C94.0583 43.454 94.0583 43.424 94.0282 43.3941C93.998 43.3641 93.9678 43.3491 93.9226 43.3491C93.9226 43.3491 93.9226 43.3491 93.9075 43.3491C93.8924 43.3491 93.8019 43.3491 93.6361 43.3491C93.4702 43.3491 93.2892 43.3491 93.0781 43.3491C92.8669 43.3491 92.6709 43.3491 92.4899 43.3491C92.309 43.3491 92.2034 43.3491 92.1581 43.3491C92.0827 43.3491 92.0375 43.3791 92.0224 43.454C92.0224 43.469 91.9923 43.574 91.947 43.7539C91.9018 43.9489 91.8414 44.1738 91.7811 44.4287C91.7208 44.6836 91.6605 44.9235 91.6002 45.1334C91.5549 45.3433 91.5097 45.4783 91.4946 45.5383C91.4946 45.5833 91.4946 45.6132 91.5248 45.6432C91.5549 45.6732 91.5851 45.6882 91.6303 45.6882C91.6454 45.6882 91.7359 45.6882 91.8867 45.6882C92.0526 45.6882 92.2335 45.6882 92.4598 45.6882C92.6709 45.6882 92.882 45.6882 93.0479 45.6882C93.259 45.7032 93.3646 45.7032 93.4099 45.7032Z" fill="black"/>
<path d="M96.667 43.0792C96.848 42.5993 97.1496 42.3594 97.587 42.3594H97.8584L99.7736 44.6086L100.286 42.3594H101.327L100.271 46.7078H99.2458L99.4419 45.8981L97.5417 43.664L96.8028 46.7078H95.7622L96.667 43.0792Z" fill="black"/>
<path d="M102.79 43.0792C102.956 42.5993 103.257 42.3594 103.695 42.3594H106.877L105.821 46.7078H104.796L105.097 45.5083L105.625 43.3641H103.876C103.861 43.3641 103.83 43.3791 103.8 43.3941C103.77 43.409 103.755 43.439 103.755 43.469L103.499 44.5186H105.052L104.811 45.5233H103.257L102.971 46.7228H101.945L102.79 43.0792Z" fill="black"/>
<path d="M108.294 43.0792C108.355 42.8692 108.46 42.6893 108.641 42.5544C108.822 42.4194 109.018 42.3594 109.244 42.3594H109.546L108.777 45.5533C108.777 45.5982 108.777 45.6282 108.807 45.6582C108.837 45.6882 108.867 45.7032 108.913 45.7032H111.476C111.461 45.7332 111.461 45.7782 111.446 45.8232C111.431 45.9131 111.401 46.0331 111.371 46.153C111.341 46.273 111.311 46.3929 111.28 46.4829C111.25 46.5879 111.235 46.6479 111.235 46.6928H108.641C108.325 46.6928 108.083 46.5729 107.887 46.348C107.691 46.123 107.631 45.8681 107.706 45.5683L108.294 43.0792Z" fill="black"/>
<path d="M117.373 42.3594H119.53C119.831 42.3594 120.088 42.4794 120.269 42.7043C120.465 42.9292 120.525 43.1841 120.45 43.484C120.45 43.484 120.435 43.544 120.404 43.6789C120.374 43.7989 120.329 43.9489 120.299 44.1288C120.254 44.2937 120.223 44.4587 120.178 44.6086C120.133 44.8185 120.012 44.9835 119.846 45.1184C119.681 45.2534 119.469 45.3283 119.258 45.3283L116.996 45.3134C116.996 45.3134 116.981 45.3883 116.951 45.5083C116.921 45.6282 116.891 45.7782 116.845 45.9581C116.8 46.138 116.755 46.303 116.725 46.4529C116.695 46.6029 116.664 46.6928 116.664 46.7228C116.649 46.7228 116.604 46.7228 116.498 46.7228C116.408 46.7228 116.287 46.7228 116.152 46.7228C116.016 46.7228 115.895 46.7228 115.775 46.7228C115.669 46.7228 115.594 46.7228 115.563 46.7228C115.563 46.7228 115.609 46.5579 115.684 46.198C115.775 45.8532 115.865 45.4483 115.986 44.9985C116.091 44.5486 116.197 44.1288 116.287 43.7689C116.378 43.409 116.438 43.1841 116.453 43.0942C116.619 42.5993 116.936 42.3594 117.373 42.3594ZM117.237 44.2937H119.062C119.138 44.2937 119.168 44.2637 119.198 44.2038C119.198 44.2038 119.258 43.9788 119.379 43.514C119.379 43.469 119.379 43.439 119.349 43.4091C119.319 43.3791 119.288 43.3641 119.243 43.3641C119.228 43.3641 119.138 43.3641 118.987 43.3641C118.836 43.3641 118.655 43.3641 118.444 43.3641C118.233 43.3641 118.037 43.3641 117.871 43.3641C117.69 43.3641 117.599 43.3641 117.554 43.3641C117.524 43.3641 117.509 43.3791 117.479 43.3941C117.449 43.409 117.433 43.439 117.433 43.469C117.433 43.469 117.418 43.559 117.373 43.7239C117.328 43.8589 117.283 44.0538 117.237 44.2937Z" fill="black"/>
<path d="M122.093 43.0792C122.154 42.8692 122.259 42.6893 122.44 42.5544C122.621 42.4194 122.817 42.3594 123.043 42.3594H123.345L122.576 45.5533C122.576 45.5982 122.576 45.6282 122.606 45.6582C122.636 45.6882 122.666 45.7032 122.712 45.7032H125.275C125.26 45.7332 125.26 45.7782 125.245 45.8232C125.23 45.9131 125.2 46.0331 125.17 46.153C125.139 46.273 125.109 46.3929 125.079 46.4829C125.049 46.5879 125.034 46.6479 125.034 46.6928H122.44C122.123 46.6928 121.882 46.5729 121.686 46.348C121.49 46.123 121.43 45.8681 121.505 45.5683L122.093 43.0792Z" fill="black"/>
<path d="M127.22 43.0792C127.386 42.5993 127.688 42.3594 128.125 42.3594H131.307L130.252 46.7078H129.226L129.528 45.5083L130.056 43.3641H128.306C128.291 43.3641 128.261 43.3791 128.231 43.3941C128.201 43.409 128.186 43.439 128.186 43.469L127.929 44.5186H129.483L129.241 45.5233H127.688L127.401 46.7228H126.376L127.22 43.0792Z" fill="black"/>
<path d="M133.555 43.3491H132.107L132.348 42.3594H136.209L135.968 43.3491H134.565L133.721 46.7078H132.695L133.555 43.3491Z" fill="black"/>
<path d="M137.838 43.0792C138.018 42.5993 138.32 42.3594 138.773 42.3594H141.758L141.517 43.3491H138.938C138.923 43.3491 138.893 43.3641 138.863 43.3791C138.848 43.3941 138.818 43.424 138.803 43.454L138.667 44.0238H140.416L140.19 45.0135H138.426L138.018 46.6928H136.948L137.838 43.0792Z" fill="black"/>
<path d="M143.267 43.0792C143.463 42.5993 143.794 42.3594 144.262 42.3594C144.262 42.3594 144.262 42.3594 144.277 42.3594C144.307 42.3594 144.413 42.3594 144.624 42.3594C144.835 42.3594 145.076 42.3594 145.348 42.3594C145.619 42.3594 145.875 42.3594 146.102 42.3594C146.328 42.3594 146.464 42.3594 146.509 42.3594C146.826 42.3594 147.082 42.4794 147.293 42.7043C147.489 42.9292 147.565 43.1841 147.504 43.484C147.504 43.484 147.474 43.574 147.429 43.7839C147.368 44.0088 147.308 44.2787 147.233 44.6086C147.157 44.9235 147.082 45.2234 147.007 45.4933C146.946 45.7632 146.901 45.9281 146.886 46.0031C146.72 46.4829 146.388 46.7228 145.891 46.7228C145.875 46.7228 145.755 46.7228 145.544 46.7228C145.333 46.7228 145.091 46.7228 144.82 46.7228C144.548 46.7228 144.292 46.7228 144.066 46.7228C143.84 46.7228 143.704 46.7228 143.659 46.7228C143.327 46.7228 143.07 46.6029 142.859 46.378C142.663 46.153 142.588 45.8981 142.648 45.5982C142.648 45.5982 142.678 45.4783 142.739 45.2384C142.799 44.9985 142.859 44.7286 142.935 44.4137C143.01 44.0988 143.086 43.8139 143.146 43.559C143.206 43.3041 143.236 43.1391 143.267 43.0792ZM145.695 45.7032C145.755 45.7032 145.8 45.6732 145.83 45.5982C145.83 45.5982 145.86 45.4933 145.906 45.2984C145.951 45.1034 146.011 44.8785 146.072 44.6086C146.132 44.3537 146.192 44.1138 146.253 43.9039C146.298 43.6939 146.343 43.559 146.343 43.499C146.343 43.454 146.343 43.424 146.313 43.3941C146.298 43.3641 146.253 43.3491 146.207 43.3491C146.207 43.3491 146.207 43.3491 146.192 43.3491C146.177 43.3491 146.087 43.3491 145.921 43.3491C145.755 43.3491 145.574 43.3491 145.363 43.3491C145.152 43.3491 144.956 43.3491 144.775 43.3491C144.594 43.3491 144.488 43.3491 144.443 43.3491C144.367 43.3491 144.322 43.3791 144.307 43.454C144.307 43.469 144.277 43.574 144.232 43.7539C144.186 43.9489 144.126 44.1738 144.066 44.4287C144.005 44.6836 143.945 44.9235 143.885 45.1334C143.84 45.3433 143.794 45.4783 143.779 45.5383C143.779 45.5833 143.779 45.6132 143.809 45.6432C143.84 45.6732 143.87 45.6882 143.915 45.6882C143.93 45.6882 144.021 45.6882 144.171 45.6882C144.337 45.6882 144.518 45.6882 144.744 45.6882C144.956 45.6882 145.167 45.6882 145.333 45.6882C145.544 45.7032 145.649 45.7032 145.695 45.7032Z" fill="black"/>
<path d="M150.385 45.2984H149.721C149.721 45.2984 149.706 45.3583 149.676 45.4783C149.646 45.6133 149.601 45.7632 149.57 45.9431C149.525 46.1231 149.495 46.288 149.45 46.438C149.42 46.5879 149.39 46.6779 149.39 46.7079H148.304L149.193 43.0942C149.359 42.6144 149.676 42.3745 150.113 42.3745H152.225C152.526 42.3745 152.768 42.4944 152.949 42.7193C153.129 42.9442 153.205 43.1991 153.129 43.499C153.129 43.499 153.114 43.559 153.084 43.694C153.054 43.8139 153.009 43.9639 152.979 44.1438C152.933 44.3087 152.903 44.4737 152.858 44.6236C152.813 44.8335 152.692 44.9985 152.526 45.1334C152.36 45.2684 152.164 45.3284 151.938 45.3284H151.546L152.391 46.7378H151.229L150.385 45.2984ZM152.074 43.499C152.074 43.4541 152.074 43.4241 152.044 43.3941C152.014 43.3641 151.983 43.3491 151.953 43.3491H150.279C150.264 43.3491 150.234 43.3641 150.204 43.3791C150.174 43.3941 150.159 43.4241 150.159 43.454C150.159 43.454 150.098 43.724 149.978 44.2787H151.772C151.833 44.2787 151.878 44.2488 151.908 44.1888C151.878 44.1888 151.938 43.9639 152.074 43.499Z" fill="black"/>
<path d="M158.498 46.6928C158.393 46.6928 158.272 46.6928 158.136 46.6928C158 46.6928 157.895 46.6928 157.789 46.6928C157.699 46.6928 157.639 46.6928 157.623 46.6928C157.654 46.5879 157.699 46.4079 157.759 46.153C157.819 45.8981 157.895 45.6282 157.97 45.3433C158.046 45.0584 158.106 44.8185 158.151 44.6086C158.197 44.3987 158.227 44.2937 158.227 44.2937C158.046 44.5636 157.85 44.8485 157.623 45.1634C157.397 45.4783 157.201 45.7632 157.035 46.0031C156.869 46.243 156.779 46.363 156.779 46.363C156.628 46.363 156.492 46.318 156.372 46.228C156.251 46.138 156.176 46.0031 156.146 45.8532C156.13 45.8232 156.115 45.7182 156.085 45.5533C156.055 45.3883 156.01 45.1934 155.98 44.9985C155.934 44.7885 155.904 44.6086 155.874 44.4587C155.844 44.2937 155.829 44.2188 155.829 44.2188C155.799 44.3387 155.753 44.5186 155.693 44.7885C155.633 45.0435 155.557 45.3283 155.482 45.6282C155.407 45.9281 155.346 46.168 155.301 46.393C155.241 46.6029 155.226 46.7078 155.226 46.7078C155.211 46.7078 155.15 46.7078 155.045 46.7078C154.939 46.7078 154.818 46.7078 154.698 46.7078C154.562 46.7078 154.457 46.7078 154.351 46.7078C154.26 46.7078 154.2 46.7078 154.185 46.7078C154.215 46.6179 154.26 46.378 154.366 45.9881C154.457 45.5982 154.577 45.1634 154.683 44.6836C154.803 44.2038 154.909 43.7689 154.999 43.4091C155.09 43.0492 155.135 42.8543 155.135 42.8543C155.256 42.5244 155.467 42.3594 155.784 42.3594C155.799 42.3594 155.844 42.3594 155.904 42.3594C155.965 42.3594 156.04 42.3594 156.115 42.3594C156.191 42.3594 156.251 42.3594 156.311 42.3594C156.372 42.3594 156.402 42.3594 156.402 42.3594C156.417 42.4044 156.432 42.5544 156.492 42.7943C156.538 43.0342 156.583 43.3041 156.643 43.604C156.704 43.9039 156.749 44.1738 156.794 44.3987C156.839 44.6236 156.869 44.7436 156.869 44.7436L158.589 42.3594C158.619 42.3594 158.694 42.3594 158.815 42.3594C158.935 42.3594 159.071 42.3594 159.207 42.3594C159.358 42.3594 159.478 42.3594 159.584 42.3594C159.689 42.3594 159.75 42.3594 159.765 42.3594C159.75 42.4494 159.674 42.7193 159.569 43.1541C159.463 43.589 159.343 44.0838 159.207 44.6386C159.071 45.1784 158.951 45.6582 158.86 46.0781C158.755 46.4979 158.709 46.6928 158.709 46.6928C158.664 46.6928 158.604 46.6928 158.498 46.6928Z" fill="black"/>
</svg>
