<svg width="48" height="48" viewBox="0 0 48 48" fill="none" xmlns="http://www.w3.org/2000/svg">
<path d="M24 48C47.815 48 48 37.255 48 24C48 10.745 47.815 0 24 0C0.184999 0 0 10.745 0 24C0 37.255 0.184999 48 24 48Z" fill="#41C8FC"/>
<path d="M14 19.3534V22.747H34V19.3534H32.1721V19.2838C32.1899 19.2664 32.2076 19.2316 32.2254 19.1794C32.2254 19.1098 32.2431 19.0402 32.2786 18.9705C32.3141 18.9009 32.3319 18.7965 32.3496 18.6921C32.3496 18.5703 32.3673 18.4485 32.3673 18.3092C32.3673 16.2731 31.5333 14.5502 29.8829 13.1232C28.2325 11.6961 26.0852 11 23.4587 11C22.4117 11 21.4002 11.1218 20.4419 11.3655C19.4658 11.6091 18.685 11.8876 18.0994 12.1834C17.496 12.4793 16.9459 12.8099 16.4312 13.1928C15.8988 13.5756 15.5617 13.8367 15.4197 13.9933C15.2777 14.1499 15.1713 14.2718 15.1003 14.3762L18.3656 17.7697L18.8802 17.2303C19.2351 16.8648 19.8208 16.4993 20.6016 16.1513C21.3824 15.8032 22.1988 15.6292 23.0861 15.6292C24.1153 15.6292 24.9494 15.8902 25.5883 16.4123C26.2272 16.9344 26.5466 17.5783 26.5466 18.3092C26.5288 18.7791 26.4046 19.1272 26.1739 19.3534H14ZM34 28.6118V25.2356H14V28.6118H15.8279V28.6988C15.7924 28.7336 15.7746 28.7684 15.7746 28.8206C15.7569 28.8902 15.7391 28.9424 15.7214 29.012C15.6859 29.0817 15.6681 29.1861 15.6681 29.3079C15.6504 29.4297 15.6504 29.5515 15.6504 29.6908C15.6504 31.7095 16.4667 33.4324 18.1171 34.8594C19.7498 36.2865 21.8971 37 24.5413 37C25.5705 37 26.5821 36.8782 27.5581 36.6345C28.5164 36.3909 29.2972 36.1124 29.9006 35.8166C30.504 35.5208 31.0541 35.1727 31.5865 34.7898C32.1012 34.407 32.4383 34.1459 32.5803 33.9893C32.7223 33.8327 32.8287 33.7108 32.8997 33.6064L29.6344 30.2303L29.1198 30.7523C28.7649 31.1178 28.1792 31.4833 27.3984 31.8313C26.6176 32.1794 25.7835 32.3534 24.9139 32.3534C23.8669 32.3534 23.0328 32.0924 22.394 31.5703C21.7551 31.0482 21.4534 30.4217 21.4534 29.6908C21.4534 29.2035 21.5776 28.8554 21.8261 28.6118H34Z" fill="white"/>
</svg>
